<svg width="70" height="109" viewBox="0 0 70 109" fill="none" xmlns="http://www.w3.org/2000/svg">
<g filter="url(#filter0_d_1152_76)">
<path d="M37.1661 87.3353C37.1804 83.2434 39.2889 78.8031 42.0668 75.7553C44.3608 73.1903 47.0364 70.6812 50.4303 69.9772C52.6232 69.4873 55.0027 69.9059 56.941 71.0475C58.8794 72.1892 59.8687 73.8469 60.5465 75.9814C61.4146 78.6274 61.0507 81.592 59.9483 84.1677C58.8459 86.7434 57.6698 89.1836 55.792 91.3026C54.013 93.2802 51.6989 94.7583 49.2682 95.8607C46.5973 97.0058 45.3689 96.9273 42.4531 96.976C41.9358 96.9938 40.5314 97.3185 40.1068 97.0224C39.6823 96.7262 39.2185 95.7927 39.0378 95.0566C38.6026 93.4489 37.1435 90.6852 37.1661 87.3353Z" fill="#E9C10F"/>
<path d="M37.6689 87.3697C37.9199 81.1289 42.0226 74.9453 47.3346 71.7929C50.3789 69.9616 54.3603 69.7726 57.3011 71.95C60.488 74.257 60.9933 78.9007 60.0099 82.4218C58.2225 88.6638 53.5014 94.4371 47.0489 96.0579C45.8169 96.3766 44.5731 96.3504 43.2983 96.4288C41.5062 96.5251 40.6773 97.0198 39.5346 94.9186C38.3395 92.8018 37.7307 89.6636 37.6689 87.3697C37.6451 86.68 36.626 86.6633 36.6498 87.353C36.6997 89.3021 37.1254 91.1346 37.7758 92.9766C38.1778 94.1194 38.4465 95.9056 39.2551 96.8272C40.0269 97.681 40.5073 97.5954 41.6096 97.5229C43.0569 97.4385 44.5933 97.4373 46.0191 97.2328C53.7856 96.1709 60.2024 88.5092 61.3417 80.9948C62.4561 73.7576 56.4354 67.3705 49.0613 69.7999C42.1832 72.0913 36.871 80.2501 36.5451 87.3221C36.6212 88.0273 37.6403 88.0439 37.6689 87.3697Z" fill="#CA990E"/>
<path d="M40.8339 95.5301C41.3631 93.354 42.1539 91.2551 43.0494 89.1871C44.0495 87.1501 45.1388 85.1963 46.3851 83.2889C47.6159 81.4338 48.9145 79.5419 50.4806 77.8996C52.0468 76.2574 53.6867 74.7508 55.5941 73.4938L55.6833 73.5771C54.2587 75.318 52.8495 77.0066 51.4248 78.7475C50.0156 80.4361 48.5541 82.1093 47.2341 83.8811C45.9141 85.653 44.7356 87.5235 43.6463 89.4773C42.557 91.4311 41.677 93.4467 40.9908 95.5765L40.8339 95.5301Z" fill="#CA990E"/>
</g>
<g filter="url(#filter1_d_1152_76)">
<path d="M48.9346 36.3822C47.1724 39.3534 43.5138 40.9115 40.0799 40.7673C36.6459 40.6231 33.3464 39.0758 30.5265 37.0202C28.5081 35.5956 26.6409 33.8776 24.3317 32.9176C21.9616 31.9518 19.2539 31.9387 17.0291 30.7405C13.9852 29.0945 12.4037 25.68 11.6153 22.3414C10.8268 19.0029 11.3707 17.8236 9.94885 14.6706C9.34531 13.2584 8.8418 9.5161 9.64143 8.23822C10.2171 7.36985 14.012 6.31727 15.0783 6.11157C18.1436 5.6048 17.5887 5.61321 20.7059 5.85021C23.8232 6.08721 26.9864 7.12899 29.1671 9.43112C30.4592 10.7247 31.2834 12.4043 32.6366 13.7037C34.2162 15.2095 36.2872 16.0851 38.3089 16.8328C42.3522 18.3283 46.8401 19.6816 49.142 23.2883C51.2902 26.5724 50.7636 33.3559 48.9346 36.3822Z" fill="#CA990E"/>
<path d="M48.4757 36.0306C44.4574 41.9872 36.9016 40.5247 31.7466 37.1373C29.6613 35.7678 27.8058 33.9278 25.5083 32.8458C23.388 31.8423 21.1249 31.6871 18.9813 30.9277C13.2648 28.9026 12.3265 23.2717 11.542 17.9634C11.0093 14.5261 7.56643 9.33259 12.1693 7.55704C15.9441 6.07157 20.395 5.8822 24.2787 7.11612C29.1151 8.68755 30.5013 13.4994 34.7068 15.8724C39.0895 18.3238 44.9638 18.7018 48.2503 22.9568C50.9909 26.4824 50.4793 32.467 48.4581 36.2137C48.0888 36.8555 49.1577 37.2657 49.527 36.6239C51.1847 33.458 51.5821 29.3095 50.8053 25.8489C49.9241 22.1937 47.0666 19.8882 43.767 18.3409C41.5305 17.2647 39.0643 16.6591 36.7609 15.6381C33.6879 14.2972 32.2887 12.193 30.2418 9.78053C27.4225 6.43216 23.2773 5.3579 19.0444 5.19874C16.2874 5.05781 12.5335 5.68334 10.1736 7.18119C7.94742 8.56871 8.65149 12.1455 9.24591 14.2957C10.4581 18.3521 10.6417 22.8641 12.5542 26.6797C14.5219 30.5622 17.4846 31.7694 21.5195 32.71C27.6546 34.2211 31.6115 39.8333 37.8978 41.0511C42.3105 41.9047 46.8114 40.5503 49.3934 36.7342C49.8237 36.0982 48.9001 35.4556 48.4757 36.0306Z" fill="#E9C10F"/>
<path d="M39.5286 21.4441C41.9364 22.6598 43.9866 24.3954 45.4962 26.6332C47.6008 29.7285 48.0115 33.154 45.3836 36.1653C43.2411 38.6075 39.752 38.3965 36.8704 37.6279C34.1108 36.8711 32.1216 35.1414 30.4959 32.8308C29.1401 30.9155 28.351 28.8698 28.3959 26.473C28.4291 24.1982 29.7693 22.418 29.9128 20.2769C29.9187 20.2159 29.9187 20.2159 29.9245 20.1549C30.0103 17.331 38.4162 20.845 39.5286 21.4441Z" fill="#E9C10F"/>
<path d="M26.2174 14.5052C27.8917 18.2365 27.5138 24.1107 24.636 27.1597C22.7817 28.5213 18.9116 29.0741 17.021 27.6002C15.7607 26.6175 15.0527 25.0105 14.5101 23.6041C13.135 19.963 12.8612 15.7503 13.3455 11.9795C14.4452 3.7117 24.2848 10.2567 26.2174 14.5052Z" fill="#E9C10F"/>
</g>
<defs>
<filter id="filter0_d_1152_76" x="28.5449" y="64.2749" width="40.9297" height="44.291" filterUnits="userSpaceOnUse" color-interpolation-filters="sRGB">
<feFlood flood-opacity="0" result="BackgroundImageFix"/>
<feColorMatrix in="SourceAlpha" type="matrix" values="0 0 0 0 0 0 0 0 0 0 0 0 0 0 0 0 0 0 127 0" result="hardAlpha"/>
<feOffset dy="3"/>
<feGaussianBlur stdDeviation="4"/>
<feColorMatrix type="matrix" values="0 0 0 0 0 0 0 0 0 0 0 0 0 0 0 0 0 0 0.2 0"/>
<feBlend mode="normal" in2="BackgroundImageFix" result="effect1_dropShadow_1152_76"/>
<feBlend mode="normal" in="SourceGraphic" in2="effect1_dropShadow_1152_76" result="shape"/>
</filter>
<filter id="filter1_d_1152_76" x="0.650391" y="0.179199" width="58.5371" height="52.1177" filterUnits="userSpaceOnUse" color-interpolation-filters="sRGB">
<feFlood flood-opacity="0" result="BackgroundImageFix"/>
<feColorMatrix in="SourceAlpha" type="matrix" values="0 0 0 0 0 0 0 0 0 0 0 0 0 0 0 0 0 0 127 0" result="hardAlpha"/>
<feOffset dy="3"/>
<feGaussianBlur stdDeviation="4"/>
<feColorMatrix type="matrix" values="0 0 0 0 0 0 0 0 0 0 0 0 0 0 0 0 0 0 0.2 0"/>
<feBlend mode="normal" in2="BackgroundImageFix" result="effect1_dropShadow_1152_76"/>
<feBlend mode="normal" in="SourceGraphic" in2="effect1_dropShadow_1152_76" result="shape"/>
</filter>
</defs>
</svg>
