<svg width="76" height="100" viewBox="0 0 76 100" fill="none" xmlns="http://www.w3.org/2000/svg">
<g filter="url(#filter0_d_1222_1106)">
<path d="M16.9843 9.03018C21.412 5.46338 27.9307 5.21739 33.1579 7.43127C38.3851 9.64514 42.5054 13.9499 45.6417 18.6851C47.9171 22.0675 49.8235 25.8187 52.8368 28.5861C55.9731 31.4149 60.0934 33.0138 62.8607 36.2117C66.5505 40.4549 66.981 46.6661 66.366 52.2623C65.7511 57.8585 64.2137 59.3344 64.5211 64.9921C64.6441 67.4519 63.2912 73.6016 61.2618 75.016C59.8474 76.0614 53.4518 75.4465 51.6684 75.139C46.6256 74.1551 47.5481 74.401 42.8744 72.2487C38.2006 70.0963 33.9573 66.591 31.928 61.9172C30.7595 59.1499 30.3291 56.0751 29.0991 53.3692C27.5617 50.1099 24.8559 47.5885 22.15 45.3132C16.7998 40.7009 10.6502 35.9657 9.17423 29.0781C7.75981 22.7439 12.495 12.597 16.9843 9.03018Z" fill="#BD7D46"/>
<path d="M16.5547 8.23083C22.0894 4.11056 29.469 4.29505 35.3727 7.43137C42.3218 11.1212 45.8271 17.6398 50.1318 23.7895C52.7147 27.5408 56.097 29.6316 59.7253 32.2145C62.6156 34.1824 64.891 36.5808 66.1824 39.8401C68.9498 46.9122 66.6744 53.6153 65.629 60.6259C65.1985 63.4548 65.5675 66.2836 64.9525 69.0509C64.4605 71.2033 63.7226 74.4626 61.6932 75.7541C59.9098 76.9225 57.0195 76.492 55.0516 76.369C52.4687 76.1845 49.7629 75.8156 47.303 75.0776C41.8913 73.4787 36.2336 70.0349 32.9128 65.4226C30.6989 62.3478 30.1455 58.8425 28.9155 55.3987C27.3166 50.7865 23.6883 47.7116 20.06 44.6368C14.6483 40.0246 8.19117 34.4899 8.00668 26.8028C7.82219 20.2842 11.389 12.4741 16.3702 8.29233C17.2927 7.49287 18.5841 8.8458 17.6616 9.58376C13.3569 13.2735 10.3436 19.6077 9.91308 25.2654C9.35961 32.0915 14.5253 37.3187 19.2606 41.5005C23.9343 45.6822 28.854 49.3105 30.8834 55.4602C31.9289 58.5965 32.5438 61.7943 34.5117 64.5617C36.6641 67.5135 39.6774 69.6659 42.9367 71.2648C47.18 73.3557 51.4233 74.4626 56.1585 74.6471C59.1718 74.7701 61.0782 74.6471 62.2467 71.6338C63.2921 68.9279 63.4766 66.2836 63.4766 63.4548C63.5381 57.5511 66.0595 52.1394 65.5675 46.1127C65.26 42.4229 64.1531 38.9176 61.5087 36.2118C59.0488 33.6289 55.605 32.2145 52.8992 29.9391C47.2415 25.2654 44.8431 17.8858 39.4929 12.8431C33.5278 7.24688 24.4263 4.66403 17.4157 9.89124C16.4932 10.5677 15.5708 8.90729 16.5547 8.23083Z" fill="#DFA771"/>
<path d="M37.4637 45.4359C38.0787 43.2835 41.1535 41.1311 42.2604 39.1633C44.3513 35.535 45.6427 30.4922 44.4743 26.4335C43.3059 22.3747 42.3834 13.2732 27.5628 9.27593C24.9184 8.53797 22.0281 10.5674 19.6912 11.9818C17.4158 13.3347 16.0014 15.8561 15.4479 18.4389C14.8945 21.0218 15.2019 23.7276 15.8784 26.3105C17.1083 31.1687 19.7527 35.5965 23.3195 39.1018C26.8248 42.6071 29.9611 45.6204 34.8194 46.7273C35.4343 46.8503 36.0493 46.9733 36.6027 46.7888C37.1562 46.6043 37.4637 45.4359 37.4637 45.4359Z" fill="#F8AB89"/>
<path d="M48.9022 36.5193C43.06 38.9177 38.3248 48.8801 38.5093 55.2143C38.7553 61.5484 42.3221 67.6366 47.6723 70.9574C49.6402 72.1873 52.0385 73.0483 54.1909 72.3103C56.4663 71.5109 57.8192 69.174 58.8647 67.0216C60.4636 63.5163 61.755 59.888 62.6774 56.1367C63.5384 52.7544 65.1988 39.9631 58.3112 37.5648C55.2979 36.5193 51.2391 35.5354 48.9022 36.5193Z" fill="#F8AB89"/>
</g>
<g filter="url(#filter1_d_1222_1106)">
<path d="M23.7959 55.6698C29.9995 54.1988 37.2903 55.7337 42.9183 58.7396C47.587 61.2338 52.3197 64.3676 54.622 69.1642C56.093 72.298 56.4128 76.0073 55.4534 79.333C54.4941 82.6586 52.3836 84.7691 49.4417 86.5599C45.7963 88.8622 41.1915 89.3739 36.9705 88.6704C32.6856 87.9669 28.5925 87.0715 24.8191 85.025C21.2377 83.1063 18.1039 80.1644 15.6097 76.9027C12.9236 73.3852 12.6038 71.4026 11.3887 67.1176C11.1968 66.3502 10.1735 64.3036 10.4293 63.6001C10.6852 62.8966 11.9642 61.8094 12.9875 61.2338C15.2259 60.1466 18.8074 56.8849 23.7959 55.6698Z" fill="#F8E4B2"/>
<path d="M12.9241 64.4316C16.3776 64.7514 19.7672 65.327 23.0289 66.2223C26.3545 67.1177 29.5523 68.2049 32.6861 69.548C35.8198 70.891 38.8257 72.5539 41.8955 73.9609C44.9654 75.4318 48.0352 76.9667 51.169 78.4377L51.2969 78.2458C50.0178 77.0946 48.6108 76.0074 47.2038 74.9841C45.7968 73.9609 44.3258 73.0655 42.7909 72.2341C39.785 70.5073 36.4594 69.2922 33.1977 68.077C29.936 66.9258 26.5464 65.9665 23.1568 65.263C19.7672 64.6235 16.2497 64.2397 12.7962 64.2397L12.9241 64.4316Z" fill="#E6BE92"/>
</g>
<defs>
<filter id="filter0_d_1222_1106" x="0" y="0.10498" width="75.5039" height="87.4434" filterUnits="userSpaceOnUse" color-interpolation-filters="sRGB">
<feFlood flood-opacity="0" result="BackgroundImageFix"/>
<feColorMatrix in="SourceAlpha" type="matrix" values="0 0 0 0 0 0 0 0 0 0 0 0 0 0 0 0 0 0 127 0" result="hardAlpha"/>
<feOffset dy="3"/>
<feGaussianBlur stdDeviation="4"/>
<feColorMatrix type="matrix" values="0 0 0 0 0 0 0 0 0 0 0 0 0 0 0 0 0 0 0.2 0"/>
<feBlend mode="normal" in2="BackgroundImageFix" result="effect1_dropShadow_1222_1106"/>
<feBlend mode="normal" in="SourceGraphic" in2="effect1_dropShadow_1222_1106" result="shape"/>
</filter>
<filter id="filter1_d_1222_1106" x="2.38867" y="50.105" width="61.6113" height="49.8584" filterUnits="userSpaceOnUse" color-interpolation-filters="sRGB">
<feFlood flood-opacity="0" result="BackgroundImageFix"/>
<feColorMatrix in="SourceAlpha" type="matrix" values="0 0 0 0 0 0 0 0 0 0 0 0 0 0 0 0 0 0 127 0" result="hardAlpha"/>
<feOffset dy="3"/>
<feGaussianBlur stdDeviation="4"/>
<feColorMatrix type="matrix" values="0 0 0 0 0 0 0 0 0 0 0 0 0 0 0 0 0 0 0.2 0"/>
<feBlend mode="normal" in2="BackgroundImageFix" result="effect1_dropShadow_1222_1106"/>
<feBlend mode="normal" in="SourceGraphic" in2="effect1_dropShadow_1222_1106" result="shape"/>
</filter>
</defs>
</svg>
