<svg width="151" height="127" viewBox="0 0 151 127" fill="none" xmlns="http://www.w3.org/2000/svg">
<g filter="url(#filter0_d_1193_119)">
<path d="M79.5896 10.6674C73.3151 5.61297 64.0776 5.26439 56.6702 8.40164C49.2628 11.5389 43.424 17.6391 38.9796 24.3493C35.7552 29.1424 33.0537 34.4583 28.7835 38.3798C24.3391 42.3885 18.5003 44.6543 14.5787 49.1859C9.34999 55.199 8.73996 64.0007 9.61142 71.931C10.4829 79.8613 12.6615 81.9528 12.2258 89.9702C12.0515 93.456 13.9687 102.171 16.8445 104.175C18.8489 105.656 27.9121 104.785 30.4393 104.349C37.5853 102.955 36.2781 103.304 42.9012 100.253C49.5242 97.2033 55.5373 92.236 58.4131 85.6129C60.0689 81.6913 60.6789 77.334 62.4218 73.4996C64.6005 68.8809 68.4349 65.3079 72.2693 62.0835C79.851 55.5476 88.5656 48.8373 90.6571 39.077C92.6615 30.101 85.9512 15.7219 79.5896 10.6674Z" fill="#BD7D46"/>
<path d="M80.1994 9.53458C72.3562 3.6958 61.8987 3.95724 53.5327 8.40168C43.6852 13.6304 38.7179 22.8679 32.6177 31.5825C28.9576 36.8984 24.1646 39.8614 19.0229 43.5215C14.9271 46.3101 11.7027 49.7088 9.87263 54.3276C5.95106 64.3493 9.17546 73.8483 10.6569 83.7829C11.267 87.7916 10.7441 91.8003 11.6155 95.7219C12.3127 98.772 13.3585 103.391 16.2343 105.221C18.7615 106.877 22.8574 106.267 25.646 106.092C29.3062 105.831 33.1406 105.308 36.6264 104.262C44.2953 101.996 52.3127 97.1162 57.0186 90.5803C60.1558 86.223 60.9401 81.2557 62.683 76.3755C64.9488 69.8395 70.0904 65.4822 75.2321 61.125C82.9009 54.589 92.0512 46.7459 92.3126 35.8526C92.5741 26.6152 87.5196 15.5476 80.4608 9.62172C79.1536 8.48883 77.3235 10.406 78.6307 11.4518C84.7309 16.6805 89.0011 25.6566 89.6111 33.674C90.3954 43.3472 83.0752 50.7546 76.3649 56.6805C69.7419 62.6064 62.7702 67.748 59.8944 76.4626C58.4129 80.9071 57.5414 85.4387 54.7528 89.3602C51.7027 93.5432 47.4325 96.5933 42.8138 98.8591C36.8007 101.822 30.7876 103.391 24.0774 103.652C19.8073 103.826 17.1057 103.652 15.45 99.382C13.9685 95.5476 13.707 91.8003 13.707 87.7916C13.6199 79.4256 10.0469 71.7567 10.7441 63.2164C11.1798 57.9877 12.7484 53.0204 16.4957 49.186C19.9816 45.5258 24.8617 43.5215 28.6961 40.2971C36.7136 33.674 40.1123 23.2165 47.6939 16.0705C56.1471 8.14024 69.0447 4.48011 78.9793 11.8875C80.2865 12.8461 81.5937 10.4932 80.1994 9.53458Z" fill="#DFA771"/>
<path d="M50.5703 62.2574C49.6989 59.2073 45.3416 56.1572 43.773 53.3685C40.81 48.2269 38.9799 41.081 40.6357 35.3293C42.2915 29.5777 43.5987 16.6801 64.6008 11.0156C68.3481 9.96989 72.444 12.8457 75.7555 14.8501C78.9799 16.7673 80.9843 20.3403 81.7686 24.0004C82.5529 27.6605 82.1171 31.4949 81.1585 35.1551C79.4156 42.0396 75.6684 48.3141 70.6139 53.2814C65.6466 58.2487 61.2021 62.5189 54.3176 64.0875C53.4461 64.2618 52.5747 64.4361 51.7904 64.1746C51.0061 63.9132 50.5703 62.2574 50.5703 62.2574Z" fill="#F8AB89"/>
<path d="M34.3605 49.6218C42.6393 53.0205 49.3496 67.1381 49.0881 76.1141C48.7395 85.0902 43.6851 93.7176 36.1034 98.4235C33.3147 100.166 29.916 101.386 26.8659 100.341C23.6415 99.2078 21.7243 95.8962 20.2428 92.8461C17.977 87.8788 16.147 82.7372 14.8398 77.4213C13.6197 72.6283 11.2668 54.5019 21.0271 51.1033C25.2973 49.6218 31.0489 48.2274 34.3605 49.6218Z" fill="#F8AB89"/>
<path d="M120.548 14.5895C127.52 18.6854 131.093 27.1385 130.831 35.156C130.57 43.2605 126.91 50.8422 122.291 57.3782C118.979 62.084 114.971 66.5285 112.879 71.9315C110.701 77.5089 110.701 83.7834 107.912 89.0121C104.165 96.0709 96.1472 99.8182 88.3912 101.735C80.6352 103.653 72.4435 104.35 65.2104 107.661C61.986 109.056 58.1516 110.973 55.1886 109.056C53.0971 107.661 52.4871 104.96 52.0513 102.52C50.7442 95.3738 49.437 88.0535 49.9598 80.8204C50.4827 73.5873 52.9228 66.1799 58.1516 61.0383C61.2017 58.0753 65.1232 55.9838 67.999 52.9337C71.4849 49.2736 73.4892 44.3934 75.145 39.6875C78.5437 30.2758 81.681 19.7311 90.047 14.2409C97.6287 9.36076 113.489 10.4065 120.548 14.5895Z" fill="#DFA771"/>
<path d="M119.849 24.0884C119.849 24.437 119.849 24.7856 119.501 24.9599C119.239 25.047 118.978 24.9599 118.804 24.7856C118.106 24.3499 117.322 23.9141 116.625 23.4784C116.451 23.3912 116.189 23.217 116.189 23.0427C116.102 22.6941 116.363 22.3455 116.538 22.0841C117.409 21.1255 119.065 17.9882 119.849 19.034C120.372 19.644 119.849 22.5198 119.849 24.0884Z" fill="#BC7D45"/>
<path d="M87.4309 96.9421C87.6052 96.6807 87.9537 96.4193 88.2152 96.5935C88.4766 96.6807 88.5638 96.9421 88.6509 97.2036C88.9123 98.075 89.1738 98.8593 89.4352 99.7308C89.5224 99.9922 89.5224 100.167 89.4352 100.428C89.2609 100.777 88.9123 100.864 88.5638 100.864C87.2566 100.951 79.8492 102.084 79.9363 100.689C79.9363 99.9051 86.3851 98.075 87.4309 96.9421Z" fill="#BC7D45"/>
<path d="M119.065 30.4496C118.716 28.881 116.189 29.0553 114.795 28.3581C114.359 28.1838 113.836 27.9224 113.488 28.1838C113.139 28.3581 112.965 28.881 112.878 29.3167C112.703 30.1882 112.529 31.0597 112.355 31.9311C112.268 32.6283 112.18 33.4126 112.442 34.1098C112.965 35.3298 114.446 35.7655 115.666 35.9398C116.102 36.027 116.538 36.1141 116.886 35.7655C117.061 35.5912 117.148 35.3298 117.235 35.0684C117.671 33.7612 118.019 32.5411 118.455 31.234C118.455 31.234 119.152 30.7111 119.065 30.4496Z" fill="#BC7D45"/>
<path d="M114.969 39.0773C113.924 39.0773 113.052 38.5544 112.093 38.1186C111.135 37.6829 110.089 37.3343 109.13 37.7701C108.52 38.1186 108.172 38.7287 107.823 39.3387C106.865 41.2559 105.993 43.1731 105.209 45.1775C104.86 46.2232 104.512 47.4433 104.947 48.489C105.296 49.3605 106.08 49.9705 107.039 50.3191C107.91 50.6677 108.869 50.8419 109.828 50.9291C111.396 47.5304 112.878 44.0446 114.446 40.6459L114.969 39.0773Z" fill="#BC7D45"/>
<path d="M118.804 45.3519C118.456 45.8748 118.804 46.6591 119.415 46.7462C120.112 46.8334 120.896 46.9205 121.593 47.0077C121.942 47.0077 122.203 47.0948 122.465 46.8334C122.813 46.5719 122.813 46.1362 122.813 45.7005C122.813 44.829 122.813 43.8704 122.29 43.2604C121.855 42.7375 121.157 42.4761 120.46 42.3018C120.112 42.2147 119.763 42.1275 119.415 42.3018C118.892 42.5632 118.717 43.1733 118.804 43.6961C118.804 44.3062 118.892 44.829 118.804 45.3519Z" fill="#BC7D45"/>
<path d="M107.65 54.9377C108.26 54.1534 107.998 52.8462 107.04 52.5848C105.907 52.2362 104.774 51.8876 103.554 51.539C103.031 51.3647 102.508 51.2776 102.072 51.539C101.462 51.8005 101.288 52.5848 101.201 53.2819C100.939 54.6763 100.678 56.2449 101.375 57.4649C101.985 58.5107 103.031 59.0336 104.077 59.4693C104.599 59.7307 105.21 59.9922 105.82 59.8179C106.691 59.6436 107.127 58.5978 107.214 57.7264C107.388 56.7678 107.301 55.8092 107.65 54.9377Z" fill="#BC7D45"/>
<path d="M105.122 64.0007C104.686 62.5193 102.943 62.1707 101.462 61.4735C100.852 61.2121 100.242 61.4735 99.9804 62.0835C99.4575 63.565 99.109 65.0465 98.9347 66.6151C98.8475 67.3123 98.9347 68.0966 99.3704 68.7066C99.8061 69.2295 100.503 69.4038 101.113 69.4909C101.985 69.6652 102.856 69.7524 103.641 69.3166C104.251 68.9681 104.599 68.1837 104.686 67.4866C104.773 66.8766 105.209 64.3493 105.122 64.0007Z" fill="#BC7D45"/>
<path d="M70.5251 96.158C70.9608 94.938 70.3508 93.9794 69.8279 93.0208C69.4793 92.4107 68.695 92.2364 68.2593 92.7593C67.3007 93.7179 66.3421 94.7637 65.5577 95.9837C65.122 96.5937 64.7734 97.2909 64.7734 97.9009C64.7734 98.5109 65.122 98.9467 65.4706 99.2953C65.9063 99.731 66.3421 100.254 67.0392 100.167C67.5621 100.08 68.1721 99.6438 68.6079 99.0338C68.9564 98.3367 70.4379 96.5066 70.5251 96.158Z" fill="#BC7D45"/>
<path d="M102.508 74.3716C101.114 73.2387 99.7195 72.2801 98.1509 71.4958C97.3666 71.06 96.408 71.6701 96.4951 72.6287C96.7565 75.0688 96.3208 77.596 95.3622 79.8618C95.1008 80.559 94.7522 81.4304 95.2751 81.9533C95.7979 82.4762 96.5823 82.2147 97.2794 81.8661C98.9352 80.8204 101.462 77.6831 102.682 76.1145C103.031 75.5045 102.944 74.8073 102.508 74.3716Z" fill="#BC7D45"/>
<path d="M64.9477 102.432C63.9891 101.735 63.0305 101.212 61.9848 100.689C61.4619 100.428 60.8519 100.777 60.8519 101.387C61.0262 102.868 60.7647 104.35 60.0676 105.744C59.8933 106.18 59.6318 106.702 59.9804 107.051C60.329 107.4 60.939 107.225 61.2876 106.964C62.4205 106.354 64.1634 104.437 65.0349 103.478C65.3835 103.129 65.2963 102.694 64.9477 102.432Z" fill="#BC7D45"/>
<path d="M95.1885 86.3102C94.4913 85.2644 93.6198 84.393 92.6612 83.6086C92.0512 83.1729 91.2669 83.1729 90.744 83.6958C89.3497 85.0901 88.3911 87.0073 88.2168 88.9245C88.2168 89.2731 88.2168 89.6217 88.3911 89.8831C88.6525 90.1446 89.0883 90.1446 89.524 90.0574C91.4412 89.7089 93.1841 88.7502 94.5784 87.4431C94.6656 87.3559 94.8399 87.1816 94.927 87.0073L95.1885 86.3102Z" fill="#BC7D45"/>
<path d="M87.8682 93.8921C85.951 95.6351 83.2495 96.2451 80.7222 95.6351C80.7222 95.6351 80.548 95.6351 80.548 95.5479C80.1122 93.5436 83.3366 92.5849 84.731 91.1035C84.9053 90.9292 85.0795 90.7549 85.341 90.7549C85.6024 90.7549 85.8639 90.9292 86.0381 91.1035C86.7353 91.8006 87.4325 92.5849 87.9554 93.5435" fill="#BC7D45"/>
<path d="M99.8936 92.4104C98.5864 94.0662 92.5733 98.0749 90.569 97.9878H90.3947C89.7846 96.4191 96.1463 92.149 97.0178 90.7547C97.1049 90.5804 97.2792 90.4061 97.4535 90.4061C97.6278 90.3189 97.8892 90.4932 98.0635 90.5804C98.7607 91.0161 99.3707 91.539 99.8936 92.2361" fill="#BC7D45"/>
<path d="M78.3681 96.0704C78.6295 96.419 78.8909 96.8548 78.9781 97.2905C79.0652 97.7262 79.0652 98.2491 78.7167 98.5977C78.3681 98.9463 77.9323 99.0334 77.4966 99.0334C76.3637 99.2077 75.2308 99.2948 74.0979 99.4691C73.8365 99.4691 73.4879 99.5563 73.2265 99.2948C72.8779 98.9462 73.0522 98.4234 73.3136 98.0748C73.6622 97.5519 74.0108 97.1162 74.5336 96.7676C75.6665 95.9833 77.0609 95.7219 78.3681 96.0704Z" fill="#BC7D45"/>
<path d="M72.704 103.217C71.8326 103.827 70.6997 103.914 69.6539 103.914C68.6082 103.914 67.5624 103.478 66.8652 102.606H66.9524C67.8238 101.648 69.131 101.212 70.3511 101.125C71.5711 101.125 72.8783 101.386 74.0983 101.735C74.1855 101.735 73.1397 102.955 72.704 103.217Z" fill="#BC7D45"/>
<path d="M80.1123 82.4755C80.8966 81.8655 82.0295 81.9526 82.7267 82.737C82.9881 82.9984 83.2495 83.2598 83.511 83.6084C84.121 84.3927 85.341 85.3513 85.2539 86.3099C85.1668 87.2685 83.8596 87.9657 83.1624 88.5757C81.158 90.4929 78.718 91.9744 76.0164 92.6716C75.4936 92.8459 74.8835 92.933 74.3607 92.8459C73.8378 92.7587 73.3149 92.4102 73.0535 91.8873C72.792 91.2773 73.0535 90.6672 73.4021 90.1444C73.7506 89.6215 74.2735 89.2729 74.7092 88.9243C76.6265 87.3557 78.2822 85.4385 79.5894 83.1727C79.7637 82.8241 79.938 82.6498 80.1123 82.4755Z" fill="#BC7D45"/>
<path d="M88.5647 69.0554C89.0004 68.2711 89.8719 67.9225 90.7434 68.184C91.0048 68.2711 91.2662 68.3583 91.4405 68.4454C92.1377 68.794 92.6606 69.4912 92.7477 70.2755C92.8349 70.7984 92.6606 71.3212 92.4863 71.8441C91.7891 74.1099 91.0048 76.4628 89.8719 78.4672C89.4362 79.1644 89.0004 79.8615 88.3904 80.2973C87.7804 80.733 86.9961 80.9944 86.2118 80.8201C85.166 80.5587 84.4689 79.3387 84.3817 78.2058C84.2946 77.0729 85.4275 75.7657 85.7761 74.6328C86.5604 72.8899 87.7804 70.5369 88.5647 69.0554Z" fill="#BC7D45"/>
<path d="M94.9271 61.0378L94.4914 63.4779C94.3171 64.2622 93.5328 64.6979 92.8356 64.4365C92.487 64.2622 92.2256 64.175 91.877 64.0007C91.7027 63.9136 91.5284 63.8264 91.4413 63.6522C91.267 63.3907 91.267 63.1293 91.3541 62.8679C91.4413 62.2578 91.4413 61.6478 91.5284 60.9506C91.5284 60.6021 91.6156 60.1663 91.877 59.992C92.2256 59.8177 92.5742 59.992 92.9227 60.2535C93.1842 60.5149 93.4456 60.7763 93.7942 60.8635L94.9271 61.0378Z" fill="#BC7D45"/>
<path d="M95.1003 48.5762C96.0589 48.8376 97.0175 49.0119 97.9761 49.2733C98.2375 49.3605 98.499 49.3605 98.5861 49.5348C98.7604 49.7962 98.6732 50.0577 98.5861 50.3191C98.2375 51.452 97.9761 52.4977 97.6275 53.6306C97.4532 54.3278 97.1918 55.025 96.8432 55.635C96.4946 56.245 95.8846 56.855 95.1003 57.1165C94.4902 57.2908 93.7931 57.2908 93.2702 57.0293C92.8345 56.6807 92.6602 56.1579 92.573 55.635C92.3987 54.3278 92.8345 52.9335 93.7059 51.8006L95.1003 48.5762Z" fill="#BC7D45"/>
<path d="M100.155 23.0426C100.417 22.4325 101.114 22.084 101.724 22.2582L103.467 22.694C103.728 22.7811 103.99 22.7811 104.077 22.9554C104.251 23.2168 104.164 23.4783 104.077 23.7397C103.728 24.8726 103.467 25.9184 103.118 27.0513C102.944 27.7484 102.683 28.4456 102.334 29.0556C101.985 29.6656 101.375 30.2757 100.591 30.5371C99.9811 30.7114 99.2839 30.7985 98.7611 30.45C98.151 29.9271 97.6282 28.6199 97.541 28.097C97.541 27.0513 99.4582 24.7855 100.155 23.0426Z" fill="#BC7D45"/>
<path d="M104.424 31.8438C105.034 32.3666 105.557 32.8895 106.167 33.4124C106.342 33.5867 106.516 33.761 106.516 34.0224C106.516 34.371 106.254 34.6324 105.993 34.8939C104.599 36.1139 103.902 38.1183 103.379 40.1226C102.856 42.0398 102.42 44.1313 101.374 45.7871C100.851 46.6586 99.8928 47.4429 99.0213 47.0943C98.4985 46.8328 98.1499 46.2228 97.9756 45.5257C97.8884 44.8285 97.9756 44.1313 98.1499 43.4342C99.0213 39.4254 101.2 36.1139 103.291 32.8895L104.424 31.8438Z" fill="#BC7D45"/>
<path d="M113.663 62.4326C113.14 62.7811 112.443 62.694 112.007 62.1711L111.31 61.3868C111.136 61.2125 111.049 61.0382 111.049 60.7768C111.049 60.4282 111.31 60.2539 111.572 60.0796C112.966 59.121 113.837 57.3781 114.535 55.6352C115.232 53.8923 115.842 52.0622 116.975 50.6679C117.585 49.8836 118.456 49.2735 119.241 49.7093C119.763 49.9707 120.025 50.6679 120.025 51.2779C120.025 51.8879 119.851 52.5851 119.676 53.1951C118.456 56.6809 116.19 59.4696 114.012 62.084C113.925 62.2583 113.837 62.3454 113.663 62.4326Z" fill="#BC7D45"/>
<path d="M114.185 19.2954C112.094 21.8226 110.786 25.047 110.438 28.4457C110.351 29.23 110.264 30.1015 109.654 30.4501C109.305 30.7115 108.782 30.6244 108.346 30.4501C107.911 30.2758 107.562 30.0144 107.213 29.6658C106.603 29.1429 105.906 28.4457 105.906 27.5743C105.906 26.9642 106.255 26.5285 106.603 26.0056C108.085 24.0884 109.654 22.3455 111.309 20.6897C112.181 19.9926 113.139 19.5568 114.185 19.2954Z" fill="#BC7D45"/>
<path d="M123.858 26.4409C124.206 29.8396 124.555 33.3254 124.904 36.7241C124.991 37.857 125.078 39.2514 124.206 40.0357C123.422 40.7328 122.202 40.5586 121.505 39.7742C120.808 38.9899 120.546 37.857 120.633 36.8113C120.721 35.7655 121.156 34.7198 121.505 33.7612C122.463 31.4082 121.853 29.491 122.812 27.1381L123.858 26.4409Z" fill="#BC7D45"/>
<path d="M107.91 76.2886C107.736 79.8616 106.864 83.4345 105.208 86.5718C104.773 87.4433 104.25 88.3147 103.466 88.7504C102.681 89.2733 101.461 89.2733 100.938 88.489C100.415 87.7918 100.503 86.7461 100.938 85.9618C101.374 85.1775 102.071 84.6546 102.681 84.0446C104.686 82.2145 106.254 80.123 107.474 77.6829L107.91 76.2886Z" fill="#BC7D45"/>
<path d="M111.833 64.5234C112.007 64.1748 111.571 63.7391 111.136 63.8262C110.787 63.9134 110.526 64.2619 110.264 64.6105C109.567 65.6563 108.783 66.7892 108.434 68.0092C108.085 69.2293 108.085 70.7107 108.783 71.8436C109.218 69.5778 110.264 67.3992 111.833 65.7434V64.5234Z" fill="#BC7D45"/>
<path d="M111.136 16.3323C108.435 15.4608 103.903 15.4608 101.114 16.3323C100.243 16.5937 99.3714 17.0295 99.0228 17.9009C98.7614 18.6852 99.0228 19.5567 99.6328 20.0796C100.243 20.6025 101.114 20.7767 101.811 20.5153C102.596 20.341 103.206 19.731 103.903 19.2953C105.384 18.1624 111.136 16.3323 111.136 16.3323Z" fill="#BC7D45"/>
<path d="M96.32 31.7573C96.6685 31.6702 97.1043 32.0187 97.4529 32.2802C97.8014 32.5416 99.0215 32.8902 99.0215 33.3259C99.0215 33.9359 97.7143 34.6331 97.4529 35.0688C96.4942 36.6375 95.7099 38.4675 95.3614 40.4719C95.1871 41.4305 94.9256 42.6505 94.1413 42.8248C93.4441 42.9991 92.2241 42.4762 92.1369 41.5176C92.0498 40.559 92.9213 39.339 93.2698 38.5547C93.967 36.8118 94.6642 34.9817 95.2742 33.2388C95.1871 33.2388 95.8842 31.8444 96.32 31.7573Z" fill="#BC7D45"/>
<path d="M89.4357 45.0032C89.9586 44.7417 90.6558 45.0032 91.2658 45.1775C91.8758 45.2646 92.4859 45.6132 92.7473 46.1361C93.0087 46.659 92.8344 47.269 92.7473 47.7919C92.3116 49.5348 91.5273 51.2777 90.5686 52.7592C90.3944 52.9335 90.3072 53.1949 90.0458 53.1949C89.7843 53.282 89.5229 53.1949 89.2615 52.9335C89.0872 52.7592 89 52.4106 88.9129 52.1491C88.3029 50.4062 87.9543 48.489 88.39 46.7461C88.4771 46.3104 89 45.2646 89.4357 45.0032Z" fill="#BC7D45"/>
<path d="M85.8632 56.7676C86.8218 56.419 87.9547 57.029 88.3905 57.9876C88.8262 58.9462 88.6519 60.0791 88.129 61.0377C87.8676 61.4734 87.6061 61.9963 87.0833 62.0835C86.7347 62.1706 86.3861 61.9963 86.0375 61.9092C85.5146 61.7349 84.9918 61.4734 84.7303 60.9506C84.556 60.602 84.556 60.0791 84.6432 59.7305C84.7303 59.2948 84.9918 58.9462 85.2532 58.5976L85.8632 56.7676Z" fill="#BC7D45"/>
<path d="M83.5091 66.2664C84.8163 66.615 85.8621 68.0093 85.6878 69.4908C85.6006 70.5365 84.9906 71.408 84.3806 72.2795C83.7706 73.1509 83.1605 74.0224 82.5505 74.8938C82.3762 75.1553 82.2019 75.3296 82.0277 75.5039C81.5048 75.7653 80.8948 75.4167 80.6333 74.8067C80.3719 74.2838 80.5462 73.5867 80.7205 73.0638C80.8948 72.5409 81.1562 71.9309 81.2433 71.408C81.3305 70.8851 81.2433 70.3623 81.2433 69.7522C81.2433 69.2294 81.1562 66.7893 81.4176 66.3535C81.6791 65.8307 83.5091 66.2664 83.5091 66.2664Z" fill="#BC7D45"/>
<path d="M76.1906 77.5089C77.3235 77.6832 78.0206 78.8161 77.672 79.949C77.4106 80.8204 77.3235 81.6919 76.8006 82.3891C76.3648 82.9991 75.7548 83.522 75.1448 83.9577C73.9248 84.8292 72.6176 85.7006 71.2232 86.4849C70.8747 86.6592 70.5261 86.9207 70.0903 86.9207C69.6546 86.9207 69.2189 86.7464 69.0446 86.3978C68.7832 85.8749 69.2189 85.2649 69.5675 84.8292C71.3975 82.6505 73.2276 80.3847 74.9705 78.2061C75.1448 77.9446 75.4062 77.6832 75.7548 77.596C75.9291 77.4218 76.0163 77.4218 76.1906 77.5089Z" fill="#BC7D45"/>
<path d="M96.4946 22.2582C93.2702 24.0883 91.4401 27.7484 90.3072 31.4085C90.0458 32.28 89.6972 34.8944 88.9129 35.243C88.0414 35.6787 86.2113 33.9358 85.7756 33.0643C85.3399 32.1929 86.2114 30.7985 86.5599 29.8399C86.9085 28.9685 87.6057 28.1841 88.2157 27.487C90.3072 25.134 92.6601 22.7811 95.6231 21.7354L96.4946 22.2582Z" fill="#BC7D45"/>
<path d="M83.4226 37.3349C83.5097 36.9863 83.9454 36.8992 84.2069 37.0735C85.1655 37.6835 86.7341 37.5964 87.257 38.555C87.5184 38.9907 87.4313 39.6007 87.257 40.1236C86.9084 41.9536 86.4727 43.6966 86.1241 45.5266C86.0369 46.0495 85.8626 46.6595 85.4269 47.0953C84.904 47.531 84.0326 47.531 83.3354 47.4438C82.8125 47.3567 82.2025 47.2695 81.8539 46.921C81.3311 46.4852 81.3311 45.7009 81.4182 45.0037C81.5925 43.0865 82.8997 38.9907 83.4226 37.3349Z" fill="#BC7D45"/>
<path d="M78.3682 56.245C78.8039 55.0249 78.9782 53.8049 79.1525 52.4977C79.2396 51.9748 79.3268 51.3648 79.5882 50.9291C79.8497 50.4062 80.2854 50.0576 80.8083 50.0576C81.4183 50.0576 81.9412 50.6676 82.2898 51.1905C82.8998 52.062 83.5969 53.0206 83.6841 54.0663C83.7712 54.9378 83.4227 55.7221 83.0741 56.5064C82.5512 57.6393 82.0283 58.7722 81.3312 59.818C80.9826 60.428 80.5468 61.038 79.9368 61.3866C79.1525 61.8223 78.1939 61.7352 77.2353 61.648C76.8867 61.5609 76.5381 61.4737 76.2767 61.2123C76.0152 60.9509 75.9281 60.5151 76.1024 60.1665C76.1024 60.1665 77.9325 57.3779 78.3682 56.245Z" fill="#BC7D45"/>
<path d="M75.4917 65.3954C75.8402 66.0054 75.9274 66.7897 75.7531 67.574C75.5788 68.184 75.1431 68.7069 74.7945 69.2298C73.7488 70.6241 72.6158 72.1056 71.5701 73.4999C71.3087 73.8485 70.9601 74.2842 70.6115 74.5457C70.1758 74.8071 69.74 74.9814 69.3915 74.8071C68.9557 74.72 68.6943 74.2843 68.52 73.7614C68.3457 73.2385 68.3457 72.7156 68.3457 72.1927C68.4328 70.1012 68.7814 68.0969 69.5657 66.1797C69.9143 65.3082 70.4372 64.4368 71.1344 63.9139C71.9187 63.4782 75.1431 64.7853 75.4917 65.3954Z" fill="#BC7D45"/>
<path d="M65.1214 76.6377C66.08 76.812 66.9514 77.1606 67.7357 77.6834C67.91 77.7706 68.0843 77.9449 68.1715 78.1192C68.2586 78.3806 68.1715 78.7292 68.0843 79.0778C67.91 79.6007 67.8229 80.1235 67.6486 80.5593C67.5614 80.8207 67.4743 81.0821 67.2129 81.2564C66.9514 81.4307 66.69 81.2564 66.4285 81.1693C65.6442 80.8207 64.7728 80.4721 63.9885 80.0364C63.8142 79.9492 63.5527 79.775 63.5527 79.5135C63.5527 79.3392 63.5527 79.1649 63.6399 78.9906C63.9885 78.2063 64.337 77.5092 64.5985 76.7248L65.1214 76.6377Z" fill="#BC7D45"/>
<path d="M64.3387 84.7419C62.77 87.5306 61.8114 87.792 60.0685 93.3694C59.9814 93.7179 59.4585 93.7179 59.3713 93.3694C58.4999 90.4064 59.0228 87.0948 59.0228 83.8704C59.0228 83.609 59.0228 83.2604 59.197 83.0861C59.4585 82.6504 60.0685 82.7376 60.5914 82.9118C60.8528 83.0861 63.1186 83.4347 63.9901 83.6962C64.4258 83.8704 64.6001 84.3933 64.3387 84.7419Z" fill="#BC7D45"/>
<path d="M56.494 96.332C57.4526 97.7264 57.8883 99.4693 57.8012 101.212C57.8012 101.735 57.6269 102.258 57.2783 102.519C56.7554 102.781 56.1454 102.432 55.7968 101.909C55.4483 101.386 55.3611 100.776 55.0997 100.254C54.7511 99.5564 54.0539 99.0336 53.8796 98.2492C53.7925 97.7264 53.9668 97.2906 54.3154 96.9421C54.6639 96.5935 55.1868 96.5063 55.6225 96.5935L56.494 96.332Z" fill="#BC7D45"/>
<path d="M55.7105 79.6874C56.2334 79.8617 56.4949 80.4717 56.3206 80.9946C55.5363 83.8704 55.362 87.0076 55.8848 89.8835C56.0591 90.5806 56.1463 91.4521 55.7977 92.0621C55.4491 92.585 54.6648 92.7593 54.1419 92.585C53.2705 92.3235 52.6604 91.6264 52.3119 90.7549C51.9633 89.8835 51.8761 89.012 51.8761 88.0534C51.789 85.0033 52.2247 81.9532 53.1833 79.1645C53.2705 78.9902 53.2705 78.8159 53.4448 78.8159C53.5319 78.8159 53.7062 78.8159 53.7933 78.9031C54.0548 79.1645 54.9262 79.5131 55.7105 79.6874Z" fill="#BC7D45"/>
<path d="M66.9525 62.1709C65.6453 61.8223 64.1638 62.1709 62.9438 62.8681C61.7237 63.5653 60.678 64.611 59.8065 65.7439C58.4993 67.3125 57.2793 69.2297 57.2793 71.3212C57.2793 71.9313 57.3664 72.6284 57.8022 73.1513C58.1508 73.6742 58.8479 73.9356 59.4579 73.6742C59.8065 73.4999 60.068 73.1513 60.3294 72.8027C62.3338 69.7526 64.3381 66.6154 66.4296 63.5653L66.9525 62.1709Z" fill="#BC7D45"/>
<path d="M72.2689 53.805C72.4432 53.2821 72.9661 53.0207 73.4018 53.1078L74.1861 53.2821C74.3604 53.3693 74.6218 53.3693 74.709 53.5436C74.8833 53.805 74.8833 54.1536 74.7961 54.415C74.6218 55.4608 74.4475 56.4194 73.9247 57.2908C73.4018 58.1623 72.6175 58.9466 71.6589 58.9466C71.2231 58.9466 70.7874 58.7723 70.6131 58.4237C70.4388 57.988 70.6131 57.4651 70.8746 57.0294C71.3103 56.5065 71.9203 54.8507 72.2689 53.805Z" fill="#BC7D45"/>
<path d="M76.0149 42.9121C76.7992 43.1735 77.6706 43.5221 77.9321 44.3064C78.0192 44.655 78.0192 44.9165 78.1064 45.265C78.1064 46.3979 78.1935 47.5308 78.1935 48.5766C78.1935 49.0123 78.1935 49.4481 78.0192 49.7966C77.7578 50.3195 77.0606 50.4067 76.5377 50.4067C75.9277 50.4067 75.2306 50.2324 74.7077 49.7966C74.1848 49.4481 74.0977 49.2738 74.0977 48.5766C74.0977 47.8794 74.1848 46.7465 74.6205 46.2237C75.0563 45.7008 75.492 45.0908 75.7534 44.4807L76.0149 42.9121Z" fill="#BC7D45"/>
<path d="M82.5506 30.6242C82.3763 30.4499 82.2891 30.2756 82.0277 30.1885C81.9405 30.1885 81.7662 30.1885 81.6791 30.1885C80.9819 30.4499 80.3719 30.9728 79.9362 31.4957C78.1061 33.7615 77.6704 36.3758 77.4961 38.9902C77.4961 39.4259 77.7575 39.8617 78.1933 39.8617L79.5004 40.036C79.9362 40.1231 80.2848 39.8617 80.4591 39.4259C81.1562 37.073 82.0277 34.8072 83.1606 32.7157C83.3349 32.28 83.422 31.8442 83.1606 31.4085C82.8991 31.2342 82.7248 30.7985 82.5506 30.6242Z" fill="#BC7D45"/>
<path d="M90.8304 21.0384C90.4818 20.5156 87.4317 22.9556 85.6888 23.9142C85.4274 24.0885 85.1659 24.1757 84.9917 24.4371C84.8174 24.6986 84.6431 24.96 84.7302 25.3086C84.8174 25.7443 85.4274 25.9186 85.8631 25.7443C86.2988 25.57 86.5603 25.2214 86.9089 24.8728C88.0418 23.5657 90.7433 20.9513 90.8304 21.0384Z" fill="#BC7D45"/>
<path d="M124.732 70.1011C116.278 68.0968 106.344 70.1883 98.675 74.2841C92.3133 77.6828 85.8645 81.953 82.7273 88.4889C80.7229 92.759 80.2872 97.8135 81.5944 102.345C82.9016 106.877 85.7774 109.752 89.7861 112.193C94.7534 115.33 101.028 116.027 106.78 115.068C112.618 114.11 118.196 112.89 123.337 110.101C128.217 107.487 132.488 103.478 135.886 99.0336C139.546 94.2405 139.982 91.539 141.638 85.7002C141.899 84.6545 143.294 81.8658 142.945 80.9072C142.596 79.9486 140.854 78.4671 139.459 77.6828C136.409 76.2013 131.529 71.7569 124.732 70.1011Z" fill="#F8E4B2"/>
<path d="M139.547 82.0402C134.841 82.476 130.223 83.2603 125.778 84.4803C121.247 85.7004 116.889 87.1819 112.619 89.0119C108.349 90.842 104.253 93.1078 100.07 95.025C95.8872 97.0293 91.7042 99.1208 87.4341 101.125L87.2598 100.864C89.0027 99.2951 90.9199 97.8137 92.8371 96.4193C94.7543 95.025 96.7587 93.8049 98.8502 92.672C102.946 90.3191 107.478 88.6633 111.922 87.0076C116.366 85.4389 120.985 84.1317 125.604 83.1731C130.223 82.3017 135.016 81.7788 139.722 81.7788L139.547 82.0402Z" fill="#E6BE92"/>
</g>
<defs>
<filter id="filter0_d_1193_119" x="0" y="0.10498" width="151" height="126.362" filterUnits="userSpaceOnUse" color-interpolation-filters="sRGB">
<feFlood flood-opacity="0" result="BackgroundImageFix"/>
<feColorMatrix in="SourceAlpha" type="matrix" values="0 0 0 0 0 0 0 0 0 0 0 0 0 0 0 0 0 0 127 0" result="hardAlpha"/>
<feOffset dy="3"/>
<feGaussianBlur stdDeviation="4"/>
<feColorMatrix type="matrix" values="0 0 0 0 0 0 0 0 0 0 0 0 0 0 0 0 0 0 0.2 0"/>
<feBlend mode="normal" in2="BackgroundImageFix" result="effect1_dropShadow_1193_119"/>
<feBlend mode="normal" in="SourceGraphic" in2="effect1_dropShadow_1193_119" result="shape"/>
</filter>
</defs>
</svg>
