<svg width="124" height="89" viewBox="0 0 124 89" fill="none" xmlns="http://www.w3.org/2000/svg">
<g filter="url(#filter0_d_1233_1309)">
<path d="M87.286 34.9024C85.1831 38.4721 82.2507 41.5005 78.3259 43.1196C75.7347 44.0859 73.0685 44.3227 70.4398 44.9243C68.9557 45.1872 68.6431 42.8605 70.1272 42.5976C72.5044 42.0587 74.8937 41.9977 77.1203 41.0689C80.6299 39.7135 83.2098 37.2005 85.0985 34.0581C85.451 33.5428 86.0046 33.1911 86.6583 33.4557C87.2241 33.5819 87.6385 34.3871 87.286 34.9024Z" fill="#FFB231"/>
<path d="M86.7465 34.6628C84.9082 37.5789 82.6426 40.2808 79.5604 41.8503C77.5349 42.9427 75.4093 43.419 73.3089 43.782C73.0574 43.8447 71.4097 44.3086 71.2086 44.145C68.9332 43.1624 71.5114 42.7871 72.6308 42.5617C75.3474 42.0985 77.863 41.4717 80.2158 39.9771C81.2098 39.2485 82.2038 38.5199 83.022 37.5145C83.4876 37.0244 83.8906 36.2828 84.4695 35.818C84.1674 36.107 87.1129 32.4876 86.7213 34.776C86.5698 35.455 87.7014 35.7073 87.8528 35.0284C88.08 34.01 87.7161 32.9785 86.4714 32.7009C84.7488 32.4354 83.9924 34.7613 83.1743 35.7667C80.5561 38.9839 77.2223 40.6161 73.1348 41.3674C71.7639 41.6556 69.425 41.4902 68.7574 42.8856C66.9183 46.8705 74.9053 44.6132 76.1631 44.2998C81.3326 42.9583 85.1833 39.5408 87.966 35.0536C88.2053 34.5131 87.1243 34.0344 86.7465 34.6628Z" fill="#F0981D"/>
<path d="M80.0155 24.3715C80.0163 23.3026 80.8118 19.2036 80.8118 19.2036C80.8118 19.2036 84.5957 20.8791 85.0727 21.9358C84.9742 19.1818 86.1197 17.7742 87.3034 15.6625C87.7569 14.6945 88.0093 13.563 88.2364 12.5445C88.3374 12.0919 88.5149 10.2309 88.8169 9.94193C90.3898 8.74851 94.6995 13.3922 95.4907 14.6377C96.6084 16.55 97.3484 19.0908 96.8436 21.354C97.5365 19.8455 97.902 18.7392 99.6002 18.0489C101.047 17.4212 103.147 17.0582 104.669 17.16C106.329 17.1738 111.96 19.6179 113.018 18.0719C110.638 22.8864 108.766 36.6046 100.381 33.1901C103.939 33.7462 107.007 33.8367 109.646 36.9197C110.864 38.3794 112.335 39.7764 113.302 41.2987C114.181 42.6827 114.393 44.3931 115.272 45.7771C113.324 44.3923 110.583 43.8997 108.269 44.6901C105.954 45.4805 104.557 46.9508 102.004 47.2129C98.9988 47.374 95.893 46.9188 93.6185 44.8673C92.412 43.8855 92.1491 42.4014 91.3578 41.1558C91.9602 42.7156 93.2041 44.0621 93.2782 45.8605C93.3148 47.2941 92.3582 48.3874 92.1937 49.6573C91.4269 49.3675 90.3214 47.9331 89.5171 47.2785C87.9085 45.9694 86.4382 44.5724 85.4337 42.6853C84.2785 40.4083 83.7414 35.8934 86.0567 34.034C86.1698 34.0593 80.2351 32.9731 80.0155 24.3715Z" fill="#FFB231"/>
<path d="M80.4932 24.359C80.481 23.8811 80.6602 19.8823 81.1885 19.6438C80.5218 19.9703 83.9661 21.57 84.4057 22.262C84.7826 22.7024 85.4241 22.4892 85.4372 21.8981C85.5259 20.9676 87.7201 13.2607 88.7524 11.8279C92.8938 6.57468 96.1522 20.7244 96.1644 21.2023C96.1514 21.7933 96.893 22.1963 97.1576 21.5426C100.118 15.1944 105.171 18.1033 109.408 18.8108C109.521 18.836 112.791 19.0901 112.615 18.8133C111.798 17.6809 110.802 21.6162 110.676 22.182C109.73 24.8221 108.936 27.8521 107.249 30.0892C106.896 30.6045 106.544 31.1198 106.078 31.6099C105.122 32.7032 104.09 33.067 102.707 32.8773C101.374 32.4613 101.047 32.8634 101.889 33.8827C102.933 33.9967 104.064 34.2491 105.057 34.5894C106.277 34.9802 116.004 42.4953 113.714 44.2414C113.852 44.1535 107.804 44.1111 107.162 44.3243C100.86 46.4824 95.5272 48.0249 91.597 40.615C91.2705 39.9483 90.3018 40.5637 90.6282 41.2304C91.9966 44.149 93.3381 49.3185 89.065 46.1084C85.8226 43.6034 82.9221 37.9674 86.2575 34.1974C86.5595 33.9084 86.4342 33.4053 85.9815 33.3043C82.1089 32.5594 80.7796 27.8677 80.4932 24.359C80.4183 23.6296 79.3241 23.7419 79.399 24.4714C79.6481 27.6154 80.2618 30.722 82.7374 32.9371C83.3406 33.4281 84.447 33.7936 84.9118 34.3724C86.2184 35.9705 85.1268 32.8761 84.8109 34.825C84.381 37.8176 83.4488 39.8667 84.8799 43.0368C86.2735 45.8421 89.2392 48.523 91.8158 50.2856C92.13 50.4745 92.5452 50.2107 92.6209 49.8712C93.1379 48.0859 94.3469 45.8611 93.2039 44.0619C91.9983 42.0112 91.4447 42.3628 92.1098 44.1742C92.4989 45.0925 93.3537 45.5207 93.9569 46.0117C101.121 51.1731 107.88 42.7027 114.869 46.5185C115.297 46.7326 115.875 46.2677 115.612 45.8526C112.298 38.3425 108.591 34.1898 100.318 32.9383C99.6387 32.7869 99.4116 33.8053 100.065 34.0699C109.029 37.0195 110.674 24.3198 113.369 18.6253C113.584 18.1979 113.031 17.4807 112.59 17.8576C110.716 19.34 106.744 16.9099 104.631 16.795C101.814 16.6419 100.154 17.6969 97.7886 18.7137C94.8701 20.0821 97.7625 19.8957 97.5362 19.8453C97.6494 19.8705 96.7092 16.0972 96.7719 16.3487C96.0189 14.399 94.5112 12.6373 92.8147 11.1898C90.1128 8.9241 88.8428 8.75962 87.7966 11.8523C87.3049 13.5245 86.0934 18.956 84.5832 20.401C83.3751 21.557 86.997 21.2957 83.967 20.5011C83.0617 20.2992 81.9684 19.3426 80.9752 19.0023C80.661 18.8134 80.271 18.964 80.1701 19.4167C79.7662 21.2272 79.5008 22.9498 79.3485 24.6977C79.386 25.0624 80.4549 25.0632 80.4932 24.359Z" fill="#F0981D"/>
</g>
<g filter="url(#filter1_d_1233_1309)">
<path d="M59.5593 77.054C61.7484 77.2104 69.8795 75.6467 69.8795 75.6467C69.8795 75.6467 66.7522 68.1411 64.563 67.0465C69.8795 67.3592 72.8505 65.0138 77.2288 62.8246C79.1052 61.8864 81.4507 61.4173 83.3272 60.9482C84.109 60.7918 88.0182 60.4791 88.4873 59.8536C90.9892 56.7262 81.9198 48.1261 79.2616 46.406C75.3524 44.0605 70.505 42.3404 65.9703 43.435C68.9413 42.184 71.1305 41.4022 72.6942 38.1185C74.1015 35.1475 74.7269 31.2383 74.7269 27.9546C74.7269 24.5145 70.1923 13.256 73.1633 11.3796C63.4685 15.9143 36.1041 19.198 42.5152 36.0857C41.4206 28.8928 41.4206 22.7945 35.4786 17.478C32.664 14.9761 29.8494 12.0051 26.7221 9.97231C24.0638 8.0959 20.6237 7.62678 17.8091 5.90674C20.4674 9.81593 21.4055 15.2888 19.8419 19.8235C18.2782 24.3582 15.1509 27.1728 14.6818 32.1765C14.2126 38.1185 14.9945 44.3732 18.9037 49.0642C20.9365 51.4097 23.7511 52.1916 26.253 53.7553C23.1256 52.5043 20.4674 50.0024 17.0273 49.8461C14.2126 49.6897 12.0235 51.5661 9.36523 51.7225C9.99071 53.4425 12.8053 55.4753 13.8999 57.039C16.4018 60.3227 19.06 63.2937 22.8129 65.3265C27.3475 67.672 36.2605 68.923 40.0133 64.3883C40.4824 64.3883 42.3588 76.1158 59.5593 77.054Z" fill="#F0981D"/>
<path d="M59.5593 77.9921C63.1557 77.8358 66.7522 77.2103 70.1923 76.5848C70.9741 76.4285 71.1305 75.6466 70.8177 75.0211C69.4104 71.7374 68.0031 68.2973 65.1885 66.1082C65.0321 66.7336 64.8758 67.5155 64.7194 68.141C72.0687 67.9846 77.6979 63.1372 84.8908 61.8863C88.0182 61.2608 90.3637 61.4172 90.2073 57.8207C90.051 53.9115 84.7345 49.0641 81.9199 46.875C77.3852 43.2785 71.9123 41.7148 66.2831 42.4967C66.4395 43.1222 66.5958 43.904 66.7522 44.5294C72.5378 42.0276 74.8833 38.5875 75.6651 32.1764C76.2906 27.6417 71.2869 15.2887 74.1015 12.3177C75.0397 11.3795 73.9451 10.1285 72.8505 10.5976C61.5921 15.6014 35.7914 18.416 41.7333 36.5547C42.2024 37.962 43.9225 37.3365 43.7661 35.9292C42.8279 29.2054 42.2025 22.9507 37.3551 17.7906C31.5695 11.5359 26.0966 8.72123 18.7473 5.12477C17.8091 4.65567 16.7145 5.59391 17.34 6.53212C23.9074 17.947 12.4926 27.1726 14.0563 38.9002C15.1508 47.1877 19.2164 50.7842 26.0966 54.6933C26.4093 54.0679 26.8784 53.4424 27.1912 52.8169C24.2202 51.4096 21.0928 48.9078 17.6527 48.7514C14.8381 48.595 12.1799 50.1587 9.52161 50.6278C8.89614 50.7841 8.58339 51.566 8.89612 52.1915C14.5254 61.7299 30.4749 75.3339 41.2643 65.0136C40.6388 64.8573 40.0133 64.7009 39.5442 64.5445C41.1079 73.9266 51.4282 77.3666 59.5593 77.9921C60.9666 78.1485 60.9666 75.9594 59.5593 75.803C52.3664 75.1775 42.9843 72.2065 41.4206 64.0754C41.2642 63.2936 40.1697 63.1372 39.7006 63.6063C32.0386 70.9556 21.0928 63.45 15.7763 57.3516C14.2126 55.6316 11.398 53.5988 12.8053 52.0351C16.089 48.595 22.8128 53.1297 26.0966 54.6933C27.3475 55.3188 28.4421 53.5988 27.1912 52.8169C21.2492 49.3768 17.1836 45.7804 16.2454 38.7438C15.3072 32.3327 17.6527 28.1108 20.1546 22.4816C22.8129 16.696 22.1874 10.9104 19.06 5.43753C18.5909 5.90663 18.1218 6.37572 17.6527 6.84483C23.9074 9.81581 29.2239 12.4741 34.2277 17.4779C39.8569 23.1071 40.7951 28.8927 41.7333 36.3983C42.3588 36.2419 43.1407 36.0856 43.7661 35.7728C38.4496 19.5106 63.7812 16.8524 73.9451 12.3177C73.476 11.6922 73.0069 11.2231 72.6941 10.5976C70.3486 13.0995 71.5996 17.1651 72.225 20.1361C74.1015 28.5799 75.5088 38.2748 65.6576 42.4967C64.7194 42.9658 65.1885 44.6858 66.1267 44.5294C71.4432 43.7476 76.6033 45.4677 80.8253 48.7514C82.5453 50.1587 87.08 53.9115 87.2364 56.257C87.5491 60.4789 81.6071 60.0098 78.9489 60.9481C73.9451 62.6681 70.3486 65.7955 64.563 65.9518C63.4685 65.9518 63.1557 67.3591 64.0939 67.9846C66.2831 69.5483 66.4395 71.7374 67.8468 73.6138C69.7232 76.1157 68.1595 75.0212 68.9413 74.5521C66.5958 75.803 61.9048 75.803 59.5593 75.803C58.152 75.9594 58.152 78.1485 59.5593 77.9921Z" fill="#FFB231"/>
</g>
<defs>
<filter id="filter0_d_1233_1309" x="60.4844" y="4.50732" width="63.1934" height="56.8413" filterUnits="userSpaceOnUse" color-interpolation-filters="sRGB">
<feFlood flood-opacity="0" result="BackgroundImageFix"/>
<feColorMatrix in="SourceAlpha" type="matrix" values="0 0 0 0 0 0 0 0 0 0 0 0 0 0 0 0 0 0 127 0" result="hardAlpha"/>
<feOffset dy="3"/>
<feGaussianBlur stdDeviation="4"/>
<feColorMatrix type="matrix" values="0 0 0 0 0 0 0 0 0 0 0 0 0 0 0 0 0 0 0.2 0"/>
<feBlend mode="normal" in2="BackgroundImageFix" result="effect1_dropShadow_1233_1309"/>
<feBlend mode="normal" in="SourceGraphic" in2="effect1_dropShadow_1233_1309" result="shape"/>
</filter>
<filter id="filter1_d_1233_1309" x="0.773438" y="0" width="97.4414" height="89" filterUnits="userSpaceOnUse" color-interpolation-filters="sRGB">
<feFlood flood-opacity="0" result="BackgroundImageFix"/>
<feColorMatrix in="SourceAlpha" type="matrix" values="0 0 0 0 0 0 0 0 0 0 0 0 0 0 0 0 0 0 127 0" result="hardAlpha"/>
<feOffset dy="3"/>
<feGaussianBlur stdDeviation="4"/>
<feColorMatrix type="matrix" values="0 0 0 0 0 0 0 0 0 0 0 0 0 0 0 0 0 0 0.2 0"/>
<feBlend mode="normal" in2="BackgroundImageFix" result="effect1_dropShadow_1233_1309"/>
<feBlend mode="normal" in="SourceGraphic" in2="effect1_dropShadow_1233_1309" result="shape"/>
</filter>
</defs>
</svg>
