<svg width="159" height="163" viewBox="0 0 159 163" fill="none" xmlns="http://www.w3.org/2000/svg">
<g filter="url(#filter0_d_1019_7505)">
<path d="M117.262 48.2406C117.262 48.2406 115.223 45.5936 114.014 44.7307C110.536 42.3274 110.174 42.0064 106.045 40.948C103.57 40.2905 101.012 40.4159 98.631 41.0123C98.5637 40.044 98.4965 39.0756 98.4292 38.1072C97.8983 34.0364 95.357 30.262 92.1028 27.8824C90.8199 27.1813 89.5869 26.542 88.304 25.841C85.6407 24.8243 82.8448 24.5288 80.0278 24.9661C77.9793 25.0887 75.9098 25.9443 74.1021 26.9972C73.2902 26.1197 72.3045 25.2805 71.3807 24.3912C70.9188 23.9465 70.3951 23.5519 69.8096 23.2073C66.1462 20.954 65.437 20.7094 61.2844 19.8746C58.3502 19.2817 55.7597 20.2518 53.0073 21.1483C50.9614 21.7801 47.6107 24.5924 46.5768 26.3491C44.7064 29.6006 44.029 30.6599 43.5151 34.4506C43.2878 36.0663 43.5078 37.7294 43.6159 39.3806C43.8505 41.441 44.6442 43.5605 45.3998 45.5064C45.4498 45.5682 45.4498 45.5682 45.438 45.6801C44.7669 45.6091 44.0341 45.5882 43.413 45.5791C40.8434 45.8163 38.4384 46.6364 36.2479 48.1012C31.8052 51.0807 29.4482 56.2599 29.7991 61.4991C29.8809 62.8648 30.0745 64.2423 30.6773 65.4935C31.5093 67.7867 32.824 69.7916 34.5716 71.4465C33.8441 72.444 32.7839 73.9151 32.2565 75.1599C30.7243 78.9561 30.7652 79.6389 30.6751 83.7006C30.665 86.4702 32.097 89.5054 33.4381 91.7959C34.691 93.8508 37.9979 96.8015 40.2874 97.609C44.0572 98.8557 44.0954 99.0293 46.9151 99.1012C49.4874 99.3732 50.7531 99.1677 53.7291 98.2949C55.9986 97.6867 59.7613 95.2572 61.0425 93.3005C61.6581 92.2912 62.1263 91.6057 62.521 91.0819C65.4143 90.992 73.364 91.2104 77.0674 89.3401C80.7081 89.6685 95.7576 82.0992 97.8581 77.7412C99.6857 78.104 101.487 78.1813 103.026 78.0614C103.138 78.0732 106.464 77.6332 107.604 77.0186C111.593 75.1219 112.052 75.0574 115.164 71.8241C116.498 70.4384 117.632 68.8054 118.28 66.9514C118.366 66.6777 118.587 66.1922 118.832 65.483C120.022 62.7816 120.515 59.7237 120.239 56.9805C120.099 54.0254 119.112 50.5283 117.262 48.2406Z" fill="white"/>
<path d="M71.3533 65.8352C74.7977 64.2768 83.0038 63.6742 87.0382 65.6274C87 65.4537 82.4783 60.6218 73.362 62.8811C65.4113 64.8112 60.7065 74.5484 61.0829 75.2668C61.3776 74.6194 63.5727 69.3666 71.3533 65.8352Z" fill="#FFEECE"/>
<path d="M51.3195 91.6498C48.2262 91.4924 45.7039 91.2823 42.938 89.6328C41.7169 88.8818 40.4957 88.1307 39.4719 87.1177C38.4481 86.1048 37.548 84.9918 36.8215 83.8407C36.7715 83.7788 36.7715 83.7788 36.7215 83.717C35.7068 82.083 35.0394 80.3727 34.7194 78.586C33.4055 81.3874 33.2863 84.6544 34.2827 87.5304C36.4375 93.3561 43.7879 97.6389 49.8346 94.9986C52.0278 94.043 53.9091 92.8283 55.3403 91.0571C54.0128 91.3125 52.7234 91.7417 51.3195 91.6498Z" fill="#FFEECE"/>
<path d="M100.234 71.8289C103.084 70.5469 105.289 69.4795 107.312 66.9227C108.163 65.8253 109.026 64.616 109.615 63.3212C110.205 62.0264 110.632 60.658 110.836 59.2659C110.898 59.2159 110.848 59.154 110.859 59.0422C111.172 57.1528 111.138 55.3397 110.88 53.503C113.027 55.6525 114.409 58.6259 114.537 61.6928C114.782 67.9386 109.451 74.4997 102.856 74.3113C100.433 74.2249 98.2203 73.7647 96.3017 72.6572C97.6175 72.5135 98.9832 72.4317 100.234 71.8289Z" fill="#FFEECE"/>
<path d="M64.0074 46.0037C63.7793 42.8131 64.6431 39.4552 66.1308 36.6156C67.7421 33.676 69.6707 32.0139 72.3058 30.0872C72.6649 29.899 73.0241 29.7108 73.3833 29.5226C70.9228 29.2625 65.7499 32.7303 63.7285 37.9449C60.9732 45.2871 63.3145 48.8142 64.862 50.2218C64.321 48.9206 64.0774 47.4812 64.0074 46.0037Z" fill="#FFEECE"/>
<path d="M37.1681 69.3458C39.6414 67.3455 41.2608 65.9334 44.4105 65.0224C46.2209 64.4787 48.2431 64.0705 50.218 64.1097C52.3048 64.1607 54.4297 64.3853 56.4692 64.8836C54.0506 63.1578 50.4163 61.6992 45.8154 62.9657C41.45 64.144 37.4428 67.2827 36.588 70.0196C36.7235 69.8077 36.9708 69.6077 37.1681 69.3458Z" fill="#FFEECE"/>
<path d="M122 126.434C121.397 125.183 120.809 124.329 119.65 123.528C118.764 122.812 117.743 122.308 116.845 121.705C115.051 120.497 113.268 119.178 111.534 117.92C108.192 115.305 105.221 112.39 102.385 109.263C99.5989 106.197 91.484 93.6349 89.8074 91.3089C95.3249 87.2556 97.991 81.8264 98.2284 77.441C98.5959 71.8254 102.974 68.3867 102.974 68.3867C102.974 68.3867 92.5667 68.4173 91.6344 79.9104C91.5225 79.8986 89.4013 78.0345 88.4257 74.4256C87.4502 70.8167 88.4168 68.0917 89.0114 67.8153C83.6686 69.6819 82.6636 79.1882 84.2447 84.5575C78.6091 82.7743 73.7581 83.7316 66.9142 78.9369C66.3067 81.4737 72.1749 89.6145 77.2905 89.3637C73.2342 90.2919 66.0373 91.5102 62.3585 91.0082C65.1153 93.2787 74.9008 95.3875 87.5169 92.65C91.0492 98.2821 95.4253 106.096 98.2758 109.62C101.114 113.256 105.839 118.845 109.369 121.819C111.191 123.312 113.074 124.755 115.03 126.036C115.978 126.702 116.937 127.256 117.896 127.809C119.329 128.696 120.621 128.776 122.323 128.73C124.036 128.571 122.703 127.809 122 126.434Z" fill="#677341"/>
<path d="M88.1089 108.432C87.5325 107.466 84.6465 104.277 84.6465 104.277C84.6465 104.277 82.1314 107.743 82.3487 108.897C80.9694 106.433 79.2273 105.796 77.0469 104.492C76.0876 103.938 75.2757 103.06 74.5637 102.307C74.2519 102.047 73.0753 100.34 72.628 100.292C70.6149 100.08 69.2081 106.434 69.2662 108.023C69.3034 110.345 69.8762 112.95 71.6119 114.717C70.2408 113.78 69.3052 113.003 67.4185 113.199C65.7554 113.419 63.8096 114.175 62.4111 115.101C60.9508 116.078 57.1899 121.165 55.5833 120.317C60.2441 123.297 69.1837 134.477 74.8323 127.045C71.9762 129.457 69.3029 131.21 68.5417 135.201C68.2289 137.09 67.6688 139.18 67.5796 141.093C67.5141 142.782 68.2433 144.443 68.2396 146.082C69.2089 143.866 71.3967 141.892 73.8281 141.358C76.2594 140.823 78.3489 141.383 80.6776 140.216C83.4272 138.81 85.9123 136.698 86.9026 133.749C87.4036 132.219 86.9363 130.756 86.9282 129.228C87.26 130.903 86.8853 132.843 87.7382 134.403C88.4528 135.666 89.8713 136.155 90.6596 137.256C91.2397 136.583 91.3789 134.731 91.709 133.748C92.481 131.794 93.0411 129.705 92.8684 127.595C92.693 124.975 90.77 120.7 87.7003 120.319C87.874 120.281 92.485 116.245 88.1089 108.432Z" fill="#677341"/>
<path d="M132.792 114.739C133.089 114.6 133.436 114.524 133.746 114.274C137.164 112.43 130.383 110.243 129.186 109.268C135.005 108.244 135.865 101.719 137.329 96.9545C134.783 99.1167 126.167 99.8457 126.215 104.205C129.355 99.1083 127.053 93.6063 124.754 88.6135C121.938 91.7085 118.74 95.2155 116.449 98.7052C114.343 102.045 115.192 105.245 116.465 108.715C114.478 108.788 112.725 106.115 111.637 104.643C112.313 107.88 112.555 111.468 116.178 113.039C118.991 114.241 121.523 111.681 124.26 112.536C127.109 113.403 129.754 115.662 132.792 114.739Z" fill="#677341"/>
<path d="M117.515 123.924C119.255 121.903 120.734 119.684 121.9 117.206C123.055 114.841 123.91 112.104 123.573 109.41C123.403 107.809 120.933 108.17 121.103 109.771C121.364 112.117 120.495 114.457 119.487 116.499C118.468 118.653 117.013 120.648 115.52 122.469C115.075 122.931 115.316 123.861 115.79 124.194C116.364 124.65 117.008 124.436 117.515 123.924Z" fill="#677341"/>
<path d="M87.2741 121.688C91.123 123.791 95.2519 124.85 99.6201 124.181C102.437 123.743 104.939 122.538 107.592 121.518C109.117 121 108.111 118.745 106.586 119.263C104.181 120.083 102.026 121.212 99.5447 121.685C95.7976 122.363 92.0423 121.514 88.729 119.693C88.1434 119.349 87.4606 119.39 87.0041 119.963C86.6713 120.437 86.6886 121.343 87.2741 121.688Z" fill="#677341"/>
</g>
<defs>
<filter id="filter0_d_1019_7505" x="21.7656" y="14.6926" width="123.564" height="142.389" filterUnits="userSpaceOnUse" color-interpolation-filters="sRGB">
<feFlood flood-opacity="0" result="BackgroundImageFix"/>
<feColorMatrix in="SourceAlpha" type="matrix" values="0 0 0 0 0 0 0 0 0 0 0 0 0 0 0 0 0 0 127 0" result="hardAlpha"/>
<feOffset dy="3"/>
<feGaussianBlur stdDeviation="4"/>
<feColorMatrix type="matrix" values="0 0 0 0 0 0 0 0 0 0 0 0 0 0 0 0 0 0 0.2 0"/>
<feBlend mode="normal" in2="BackgroundImageFix" result="effect1_dropShadow_1019_7505"/>
<feBlend mode="normal" in="SourceGraphic" in2="effect1_dropShadow_1019_7505" result="shape"/>
</filter>
</defs>
</svg>
