<svg width="101" height="88" viewBox="0 0 101 88" fill="none" xmlns="http://www.w3.org/2000/svg">
<g filter="url(#filter0_d_1172_1092)">
<path d="M25.2969 11.6484C27.9592 14.7558 29.2637 19.4951 29.1515 23.6174C29.0904 27.058 28.7038 30.7056 26.5941 33.4558C25.2539 35.2592 23.1789 36.4968 20.9656 36.8987C18.7522 37.3007 16.9202 36.692 15.0126 35.5186C12.6268 34.0825 10.9656 31.6002 10.1176 28.9299C9.26952 26.2596 8.56587 23.6438 8.60316 20.8127C8.65817 18.1533 9.44461 15.5224 10.5648 13.0999C11.8388 10.488 12.8202 9.74496 14.996 7.8032C15.376 7.45177 16.2272 6.28851 16.7421 6.23536C17.2569 6.18221 18.2179 6.58601 18.8356 7.02524C20.2154 7.95818 23.1256 9.09739 25.2969 11.6484Z" fill="#E9C10F"/>
<path d="M24.8937 11.9504C28.7807 16.8393 29.7141 24.2013 27.7517 30.0583C26.6432 33.4336 23.7523 36.1776 20.1034 36.4502C16.1834 36.7855 12.7671 33.5999 11.2114 30.2915C8.48693 24.398 8.28968 16.9427 12.1161 11.5003C12.8407 10.4542 13.7995 9.6614 14.7134 8.76919C16.0073 7.52555 16.3117 6.60953 18.5496 7.45388C20.8373 8.27576 23.3484 10.254 24.8937 11.9504C25.3623 12.4571 26.1448 11.8039 25.6762 11.2972C24.3651 9.85421 22.8457 8.74488 21.1498 7.77518C20.099 7.17253 18.7286 5.99577 17.5144 5.82627C16.3722 5.684 16.0644 6.06267 15.2772 6.83773C14.2366 7.84709 13.0742 8.85169 12.1283 9.938C6.94185 15.8156 7.08885 25.8085 11.1353 32.242C15.0196 38.4494 23.7505 39.3519 27.7464 32.6953C31.457 26.467 30.1489 16.8195 25.7756 11.2523C25.2573 10.7681 24.4749 11.4213 24.8937 11.9504Z" fill="#CA990E"/>
<path d="M17.1674 7.83943C18.1884 9.83276 18.9608 11.9385 19.6338 14.0891C20.2073 16.2848 20.659 18.4756 20.9615 20.7339C21.2415 22.9425 21.4943 25.2233 21.3814 27.4898C21.2685 29.7563 21.0112 31.9683 20.3882 34.166L20.2662 34.1613C20.2075 31.9125 20.1713 29.7134 20.1126 27.4647C20.0764 25.2656 20.0899 23.0441 19.9318 20.8402C19.7736 18.6364 19.4439 16.4503 18.9922 14.2595C18.5406 12.0686 17.8901 9.96763 17.0182 7.90686L17.1674 7.83943Z" fill="#CA990E"/>
</g>
<g filter="url(#filter1_d_1172_1092)">
<path d="M57.8197 73.0998C55.0453 71.0416 53.8714 67.2423 54.3677 63.8414C54.864 60.4404 56.7423 57.3174 59.0767 54.7236C60.7012 52.8623 62.602 51.1816 63.7942 48.9833C64.9985 46.7249 65.2897 44.0329 66.7102 41.943C68.6603 39.0844 72.2192 37.8621 75.6211 37.4209C79.0231 36.9798 80.1402 37.642 83.4226 36.5516C84.8894 36.0964 88.6636 35.9801 89.8525 36.9068C90.6571 37.5687 91.3142 41.4516 91.4092 42.5335C91.5983 45.6347 91.647 45.0818 91.0909 48.1582C90.5348 51.2345 89.1735 54.274 86.6594 56.2065C85.24 57.3589 83.4845 58.0061 82.0529 59.2186C80.3928 60.6351 79.309 62.6052 78.3575 64.5393C76.4544 68.4075 74.6471 72.7326 70.8229 74.6518C67.3355 76.451 60.642 75.2301 57.8197 73.0998Z" fill="#CA990E"/>
<path d="M58.2165 72.6797C52.7045 68.0706 54.9357 60.7051 58.8349 55.9255C60.4114 53.992 62.4324 52.3354 63.7447 50.1613C64.9607 48.1553 65.3477 45.9201 66.3234 43.8659C68.9252 38.3877 74.6227 38.0331 79.9836 37.7982C83.4573 37.6215 88.9772 34.7306 90.2703 39.4916C91.36 43.399 91.091 47.8459 89.4645 51.5822C87.4044 56.2315 82.4756 57.1158 79.683 61.0553C76.7941 65.1629 75.8146 70.9672 71.2443 73.799C67.4558 76.1629 61.5555 75.039 58.0363 72.6435C57.4358 72.2102 56.9179 73.2313 57.5184 73.6646C60.4972 75.6388 64.5829 76.4604 68.1049 76.0434C71.8314 75.5424 74.4183 72.9369 76.2965 69.8138C77.5968 67.6998 78.4527 65.3088 79.7049 63.1226C81.3546 60.2036 83.5914 59.0281 86.2014 57.2399C89.8218 54.7797 91.3164 50.7668 91.9096 46.5727C92.3331 43.8447 92.0967 40.0464 90.8493 37.5451C89.6979 35.1881 86.0677 35.5209 83.8678 35.8912C79.7083 36.6802 75.2013 36.399 71.2094 37.9093C67.1452 39.4676 65.6399 42.2906 64.2897 46.2075C62.1561 52.1548 56.167 55.5141 54.3097 61.642C53.0072 65.9435 53.8918 70.5599 57.4224 73.5203C58.0108 74.0137 58.7449 73.1611 58.2165 72.6797Z" fill="#E9C10F"/>
<path d="M73.6446 65.2799C72.1879 67.55 70.2509 69.411 67.8697 70.6826C64.5746 72.458 61.125 72.5145 58.3997 69.591C56.1906 67.2089 56.7591 63.76 57.8196 60.9726C58.8561 58.3054 60.781 56.5045 63.2464 55.1248C65.2909 53.9731 67.4069 53.3983 69.7864 53.6893C72.0457 53.956 73.6788 55.4722 75.7938 55.8349C75.8539 55.847 75.8539 55.847 75.914 55.8591C78.7141 56.2346 74.3548 64.2349 73.6446 65.2799Z" fill="#E9C10F"/>
<path d="M81.9155 52.7522C78.0319 54.0342 72.2276 53.0546 69.4905 49.8787C68.3267 47.8943 68.1745 43.9879 69.8349 42.2588C70.9419 41.1061 72.6131 40.567 74.0679 40.1719C77.8309 39.1782 82.0496 39.3388 85.7506 40.208C93.8616 42.1515 86.3401 51.2664 81.9155 52.7522Z" fill="#E9C10F"/>
</g>
<defs>
<filter id="filter0_d_1172_1092" x="0.162109" y="0.796875" width="37.7539" height="47.5093" filterUnits="userSpaceOnUse" color-interpolation-filters="sRGB">
<feFlood flood-opacity="0" result="BackgroundImageFix"/>
<feColorMatrix in="SourceAlpha" type="matrix" values="0 0 0 0 0 0 0 0 0 0 0 0 0 0 0 0 0 0 127 0" result="hardAlpha"/>
<feOffset dy="3"/>
<feGaussianBlur stdDeviation="4"/>
<feColorMatrix type="matrix" values="0 0 0 0 0 0 0 0 0 0 0 0 0 0 0 0 0 0 0.2 0"/>
<feBlend mode="normal" in2="BackgroundImageFix" result="effect1_dropShadow_1172_1092"/>
<feBlend mode="normal" in="SourceGraphic" in2="effect1_dropShadow_1172_1092" result="shape"/>
</filter>
<filter id="filter1_d_1172_1092" x="45.7402" y="30.6294" width="54.3633" height="56.5195" filterUnits="userSpaceOnUse" color-interpolation-filters="sRGB">
<feFlood flood-opacity="0" result="BackgroundImageFix"/>
<feColorMatrix in="SourceAlpha" type="matrix" values="0 0 0 0 0 0 0 0 0 0 0 0 0 0 0 0 0 0 127 0" result="hardAlpha"/>
<feOffset dy="3"/>
<feGaussianBlur stdDeviation="4"/>
<feColorMatrix type="matrix" values="0 0 0 0 0 0 0 0 0 0 0 0 0 0 0 0 0 0 0.2 0"/>
<feBlend mode="normal" in2="BackgroundImageFix" result="effect1_dropShadow_1172_1092"/>
<feBlend mode="normal" in="SourceGraphic" in2="effect1_dropShadow_1172_1092" result="shape"/>
</filter>
</defs>
</svg>
