<svg xmlns="http://www.w3.org/2000/svg" id="Layer_1" viewBox="0 0 450 450"><g><g><path d="m225.26 445.78c-7 0-13.25-2.67-18.09-7.71l-17.68-18.41c-4.3-4.48-10.33-5.86-16.15-3.69l-23.91 8.92c-6.55 2.45-13.34 2.13-19.65-.9-6.3-3.04-10.78-8.15-12.95-14.8l-7.94-24.26c-1.93-5.9-6.77-9.76-12.95-10.33l-25.42-2.34c-6.96-.64-12.95-3.87-17.31-9.33-4.36-5.47-6.18-12.02-5.25-18.95l3.38-25.3c.82-6.15-1.87-11.73-7.19-14.92l-21.88-13.14c-6-3.6-9.99-9.1-11.54-15.92s-.35-13.51 3.49-19.35l14.02-21.33c3.41-5.18 3.41-11.38 0-16.56l-14.02-21.33c-3.84-5.84-5.05-12.53-3.49-19.35s5.55-12.32 11.54-15.92l21.89-13.14c5.32-3.19 8.01-8.77 7.19-14.92l-3.38-25.3c-.92-6.93.89-13.48 5.25-18.95s10.34-8.7 17.31-9.34l25.42-2.34c6.18-.57 11.02-4.43 12.95-10.33l7.94-24.26c2.17-6.65 6.65-11.76 12.95-14.8 6.3-3.03 13.09-3.35 19.65-.9l23.91 8.92c5.81 2.17 11.85.79 16.15-3.69l17.68-18.41c4.84-5.04 11.1-7.71 18.09-7.71s13.25 2.67 18.09 7.71l17.68 18.41c4.3 4.48 10.33 5.85 16.15 3.69l23.91-8.92c6.55-2.44 13.34-2.13 19.64.9s10.78 8.15 12.95 14.8l7.94 24.26c1.93 5.9 6.77 9.76 12.95 10.33l25.42 2.34c6.96.64 12.95 3.87 17.31 9.34s6.18 12.02 5.25 18.95l-3.38 25.3c-.82 6.15 1.87 11.73 7.19 14.92l21.88 13.14c6 3.6 9.99 9.1 11.54 15.92s.35 13.51-3.49 19.35l-14.02 21.33c-3.41 5.18-3.41 11.38 0 16.56l14.02 21.33c3.84 5.84 5.05 12.54 3.49 19.35-1.56 6.82-5.55 12.32-11.54 15.92l-21.88 13.14c-5.32 3.19-8.01 8.77-7.19 14.92l3.38 25.3c.92 6.93-.89 13.49-5.25 18.95-4.36 5.47-10.35 8.7-17.31 9.34l-25.42 2.34c-6.18.57-11.02 4.43-12.95 10.33l-7.94 24.26c-2.17 6.65-6.65 11.76-12.95 14.8-6.3 3.03-13.09 3.35-19.65.9l-23.91-8.92c-5.81-2.17-11.85-.79-16.15 3.69l-17.68 18.41c-4.84 5.03-11.1 7.7-18.09 7.7zm-46.49-40.81c6.65 0 13.07 2.69 17.94 7.76l17.68 18.41c2.99 3.12 6.55 4.64 10.88 4.64 4.32 0 7.88-1.52 10.87-4.64l17.68-18.41c7.04-7.33 17.33-9.68 26.85-6.13l23.92 8.92c4.05 1.51 7.92 1.33 11.81-.54 3.89-1.88 6.44-4.79 7.79-8.9l7.94-24.26c3.16-9.66 11.41-16.24 21.54-17.17l25.42-2.34c4.31-.4 7.71-2.23 10.41-5.61s3.73-7.11 3.16-11.39l-3.38-25.3c-1.34-10.08 3.24-19.59 11.95-24.82l21.88-13.14c3.71-2.23 5.98-5.36 6.94-9.57.96-4.22.28-8.02-2.1-11.64l-14.02-21.33c-5.58-8.5-5.58-19.05 0-27.54l14.02-21.33c2.38-3.61 3.06-7.42 2.1-11.64s-3.23-7.35-6.94-9.57l-21.88-13.14c-8.72-5.23-13.29-14.74-11.95-24.82l3.38-25.3c.57-4.29-.46-8.01-3.16-11.39s-6.1-5.22-10.41-5.61l-25.42-2.34c-10.12-.93-18.38-7.51-21.54-17.17l-7.94-24.26c-1.34-4.11-3.89-7.02-7.79-8.9s-7.76-2.05-11.81-.54l-23.92 8.92c-9.52 3.55-19.81 1.21-26.85-6.13l-17.68-18.41c-2.99-3.12-6.55-4.64-10.88-4.64-4.32 0-7.88 1.52-10.88 4.64l-17.68 18.41c-7.04 7.33-17.33 9.68-26.85 6.13l-23.91-8.92c-4.05-1.51-7.91-1.33-11.81.54-3.9 1.88-6.44 4.79-7.79 8.9l-7.94 24.26c-3.16 9.66-11.41 16.24-21.54 17.17l-25.42 2.34c-4.31.4-7.71 2.23-10.41 5.61s-3.73 7.11-3.16 11.39l3.38 25.3c1.34 10.08-3.24 19.59-11.95 24.82l-21.89 13.14c-3.71 2.23-5.98 5.36-6.94 9.57-.96 4.22-.27 8.02 2.1 11.63l14.02 21.33c5.58 8.5 5.58 19.05 0 27.54l-14.02 21.33c-2.37 3.61-3.06 7.42-2.1 11.64s3.23 7.35 6.94 9.57l21.89 13.14c8.72 5.23 13.29 14.74 11.95 24.82l-3.38 25.3c-.57 4.29.46 8.01 3.16 11.4 2.7 3.38 6.1 5.22 10.41 5.61l25.42 2.34c10.12.93 18.38 7.51 21.54 17.17l7.94 24.26c1.34 4.11 3.89 7.02 7.79 8.9s7.76 2.05 11.81.54l23.91-8.92c2.94-1.09 5.95-1.63 8.92-1.63z"/></g><g><path d="m225.26 407.58c-1.36 0-2.66-.55-3.61-1.54l-8.62-8.98c-13.39-13.95-32.97-18.42-51.08-11.66l-11.67 4.35c-1.28.48-2.69.41-3.92-.18s-2.16-1.66-2.58-2.95l-3.87-11.84c-6.01-18.38-21.71-30.9-40.97-32.67l-12.4-1.14c-1.36-.12-2.6-.8-3.45-1.86s-1.23-2.43-1.05-3.78l1.65-12.34c2.56-19.17-6.15-37.26-22.73-47.21l-10.68-6.41c-1.17-.7-2-1.85-2.3-3.17-.3-1.33-.05-2.72.7-3.86l6.84-10.41c10.62-16.16 10.62-36.24 0-52.4l-6.84-10.41c-.75-1.14-1-2.53-.7-3.86s1.13-2.47 2.3-3.17l10.68-6.41c16.58-9.95 25.29-28.04 22.73-47.21l-1.65-12.34c-.18-1.35.2-2.71 1.05-3.78.85-1.06 2.1-1.74 3.45-1.86l12.4-1.14c19.26-1.77 34.95-14.29 40.97-32.67l3.87-11.84c.42-1.29 1.36-2.36 2.58-2.95 1.23-.59 2.64-.66 3.92-.18l11.67 4.35c18.12 6.76 37.69 2.29 51.08-11.66l8.62-8.98c.94-.98 2.25-1.54 3.61-1.54 1.36 0 2.66.56 3.61 1.54l8.62 8.98c13.39 13.95 32.97 18.42 51.08 11.66l11.67-4.35c1.28-.48 2.69-.41 3.92.18s2.16 1.66 2.58 2.95l3.87 11.84c6.01 18.38 21.71 30.9 40.97 32.67l12.4 1.14c1.36.13 2.6.8 3.45 1.86s1.23 2.43 1.05 3.78l-1.65 12.34c-2.56 19.17 6.15 37.26 22.73 47.21l10.68 6.41c1.17.7 2 1.85 2.3 3.17.3 1.33.05 2.72-.7 3.86l-6.84 10.41c-10.62 16.16-10.62 36.24 0 52.4l6.84 10.41c.75 1.14 1 2.53.7 3.86s-1.13 2.47-2.3 3.17l-10.68 6.41c-16.58 9.95-25.29 28.04-22.73 47.21l1.65 12.34c.18 1.35-.2 2.71-1.05 3.78s-2.09 1.74-3.45 1.86l-12.4 1.14c-19.25 1.77-34.95 14.29-40.96 32.67l-3.87 11.83c-.42 1.29-1.36 2.36-2.58 2.95-1.23.59-2.64.66-3.92.18l-11.67-4.35c-18.12-6.76-37.69-2.29-51.08 11.66l-8.62 8.98c-.96 1-2.26 1.55-3.62 1.55zm-46.64-35.19c15.43 0 30.53 6.2 41.62 17.75l5.02 5.23 5.02-5.23c15.95-16.62 40.21-22.16 61.79-14.1l6.79 2.53 2.25-6.88c7.16-21.89 26.61-37.41 49.55-39.52l7.21-.67-.96-7.18c-3.05-22.83 7.75-45.25 27.5-57.1l6.21-3.73-3.98-6.05c-12.65-19.25-12.65-44.13 0-63.38l3.98-6.05-6.21-3.73c-19.75-11.86-30.55-34.27-27.5-57.1l.96-7.18-7.21-.66c-22.94-2.11-42.39-17.62-49.55-39.52l-2.25-6.89-6.79 2.53c-21.58 8.05-45.84 2.52-61.79-14.1l-5.02-5.23-5.02 5.23c-15.95 16.62-40.21 22.15-61.79 14.1l-6.79-2.53-2.25 6.89c-7.16 21.89-26.61 37.41-49.55 39.52l-7.21.66.96 7.18c3.05 22.83-7.75 45.25-27.5 57.1l-6.22 3.72 3.98 6.05c12.65 19.25 12.65 44.13 0 63.38l-3.98 6.05 6.21 3.73c19.75 11.86 30.55 34.27 27.5 57.1l-.96 7.18 7.21.66c22.94 2.11 42.39 17.62 49.55 39.52l2.25 6.89 6.79-2.53c6.59-2.45 13.42-3.64 20.18-3.64z"/></g><g><path d="m281.35 226.21c-.85 0-1.71-.22-2.5-.67-2.39-1.38-3.21-4.44-1.83-6.83l32.33-56c1.38-2.39 4.44-3.21 6.83-1.83s3.21 4.44 1.83 6.83l-32.33 56c-.92 1.6-2.6 2.5-4.33 2.5z"/></g><g><g><path d="m277.72 189.55c-8.09 0-14.67-6.58-14.67-14.67s6.58-14.67 14.67-14.67 14.67 6.58 14.67 14.67-6.58 14.67-14.67 14.67zm0-19.34c-2.58 0-4.67 2.1-4.67 4.67s2.1 4.67 4.67 4.67c2.58 0 4.67-2.1 4.67-4.67s-2.09-4.67-4.67-4.67z"/></g><g><path d="m317.32 226.21c-8.09 0-14.67-6.58-14.67-14.67s6.58-14.67 14.67-14.67 14.67 6.58 14.67 14.67-6.58 14.67-14.67 14.67zm0-19.34c-2.58 0-4.67 2.1-4.67 4.67s2.1 4.67 4.67 4.67c2.58 0 4.67-2.1 4.67-4.67s-2.1-4.67-4.67-4.67z"/></g></g><g><g><path d="m139.7 226.21c-2.76 0-5-2.24-5-5v-41.53l-7.23 9.21c-1.71 2.17-4.85 2.55-7.02.85-2.17-1.71-2.55-4.85-.85-7.02l16.17-20.59c1.32-1.68 3.55-2.33 5.57-1.64 2.02.7 3.37 2.59 3.37 4.73v56c-.01 2.75-2.25 4.99-5.01 4.99z"/></g><g><path d="m155.87 226.21h-32.33c-2.76 0-5-2.24-5-5s2.24-5 5-5h32.33c2.76 0 5 2.24 5 5s-2.24 5-5 5z"/></g></g><g><path d="m185.77 226.21c-11.67 0-21.17-9.5-21.17-21.17v-23.66c0-11.67 9.5-21.17 21.17-21.17s21.17 9.5 21.17 21.17v23.66c0 11.67-9.5 21.17-21.17 21.17zm0-56c-6.16 0-11.17 5.01-11.17 11.17v23.66c0 6.16 5.01 11.17 11.17 11.17s11.17-5.01 11.17-11.17v-23.66c0-6.16-5.01-11.17-11.17-11.17z"/></g><g><path d="m231.84 226.21c-11.67 0-21.17-9.5-21.17-21.17v-23.66c0-11.67 9.5-21.17 21.17-21.17s21.17 9.5 21.17 21.17v23.66c-.01 11.67-9.5 21.17-21.17 21.17zm0-56c-6.16 0-11.17 5.01-11.17 11.17v23.66c0 6.16 5.01 11.17 11.17 11.17s11.16-5.01 11.16-11.17v-23.66c0-6.16-5.01-11.17-11.16-11.17z"/></g><g><path d="m285.39 139.77h-120.26c-1.71 0-3.3-.87-4.21-2.31-.92-1.44-1.04-3.25-.32-4.8l15.06-32.42c.82-1.76 2.59-2.89 4.53-2.89h90.14c1.95 0 3.71 1.13 4.53 2.89l15.06 32.42c.72 1.55.6 3.36-.32 4.8-.92 1.43-2.51 2.31-4.21 2.31zm-112.42-10h104.58l-10.41-22.42h-83.76z"/></g><g><path d="m270.33 354.13h-90.14c-1.95 0-3.71-1.13-4.53-2.89l-15.06-32.42c-.72-1.55-.6-3.36.32-4.8s2.51-2.31 4.21-2.31h120.25c1.71 0 3.3.87 4.21 2.31.92 1.44 1.04 3.25.32 4.8l-15.06 32.42c-.81 1.76-2.57 2.89-4.52 2.89zm-86.95-10h83.76l10.41-22.42h-104.58z"/></g><g><g><path d="m154.32 291.28c-.47 0-.95-.07-1.43-.21-2.65-.79-4.15-3.57-3.36-6.22l10.31-34.62c.63-2.12 2.58-3.57 4.79-3.57s4.16 1.45 4.79 3.57l10.31 34.62c.79 2.65-.72 5.43-3.36 6.22s-5.43-.72-6.22-3.36l-5.52-18.53-5.52 18.53c-.65 2.16-2.64 3.57-4.79 3.57z"/></g><g><path d="m171.74 280.57h-14.21c-2.76 0-5-2.24-5-5s2.24-5 5-5h14.21c2.76 0 5 2.24 5 5s-2.24 5-5 5z"/></g></g><g><path d="m143.39 291.28c-1.45 0-2.86-.63-3.83-1.78l-20.27-24.12v20.91c0 2.76-2.24 5-5 5s-5-2.24-5-5v-34.63c0-2.1 1.31-3.98 3.29-4.7 1.98-.71 4.19-.13 5.54 1.48l20.27 24.12v-20.91c0-2.76 2.24-5 5-5s5 2.24 5 5v34.63c0 2.1-1.31 3.98-3.29 4.7-.56.2-1.14.3-1.71.3z"/></g><g><path d="m336.23 291.28h-23.76c-2.76 0-5-2.24-5-5v-34.62c0-2.76 2.24-5 5-5s5 2.24 5 5v29.62h18.76c2.76 0 5 2.24 5 5s-2.23 5-5 5z"/></g><g><g><path d="m262.48 273.97h-10.98c-2.76 0-5-2.24-5-5v-17.31c0-2.76 2.24-5 5-5h10.99c10.44 0 15.9 6.87 15.9 13.66s-5.47 13.65-15.91 13.65zm-5.98-10h5.99c4.08 0 5.9-1.84 5.9-3.66s-1.82-3.66-5.9-3.66h-5.99z"/></g><g><path d="m251.5 291.28c-2.76 0-5-2.24-5-5v-17.31c0-2.76 2.24-5 5-5s5 2.24 5 5v17.31c0 2.76-2.24 5-5 5z"/></g><g><path d="m273.39 291.28c-1.66 0-3.29-.83-4.24-2.34l-10.9-17.31c-1.47-2.34-.77-5.42 1.57-6.9 2.34-1.47 5.42-.77 6.9 1.57l10.9 17.31c1.47 2.34.77 5.42-1.57 6.9-.83.52-1.75.77-2.66.77z"/></g></g><g><g><path d="m207.8 256.66h-29.11c-2.76 0-5-2.24-5-5s2.24-5 5-5h29.11c2.76 0 5 2.24 5 5s-2.24 5-5 5z"/></g><g><path d="m193.25 291.28c-2.76 0-5-2.24-5-5v-34.62c0-2.76 2.24-5 5-5s5 2.24 5 5v34.62c0 2.76-2.24 5-5 5z"/></g></g><g><path d="m228.79 291.28c-8.67 0-15.73-7.05-15.73-15.72v-23.89c0-2.76 2.24-5 5-5s5 2.24 5 5v23.89c0 3.16 2.57 5.72 5.73 5.72s5.73-2.57 5.73-5.72v-23.89c0-2.76 2.24-5 5-5s5 2.24 5 5v23.89c-.01 8.66-7.06 15.72-15.73 15.72z"/></g><g><g><path d="m282.62 291.28c-.47 0-.95-.07-1.43-.21-2.65-.79-4.15-3.57-3.37-6.22l10.31-34.62c.63-2.12 2.58-3.57 4.79-3.57s4.16 1.45 4.79 3.57l10.31 34.62c.79 2.65-.72 5.43-3.36 6.22-2.65.79-5.43-.72-6.22-3.36l-5.52-18.53-5.52 18.53c-.64 2.16-2.63 3.57-4.78 3.57z"/></g><g><path d="m300.04 280.57h-14.21c-2.76 0-5-2.24-5-5s2.24-5 5-5h14.21c2.76 0 5 2.24 5 5s-2.24 5-5 5z"/></g></g></g></svg>