<svg xmlns="http://www.w3.org/2000/svg" viewBox="0 0 64 64"><g id="Peanuts"><path d="M57.98828,9.6377c-5.33154-3.07618-15.4751-.54981-19.71,6.7832a17.28,17.28,0,0,0-2.36377,9.26855,5.92721,5.92721,0,0,1-3.25781,5.64063A17.28987,17.28987,0,0,0,25.814,38.00781c-3.23095,5.60157-3.1289,12.46875.25293,17.08887a6.59342,6.59342,0,0,1,1.28663,3.50586l-.06983,1.21777a1.55235,1.55235,0,0,0,.76709,1.627,1.32433,1.32433,0,0,0,.603.14355,1.87782,1.87782,0,0,0,1.18994-.49219c.23682-.19629.48535-.39258.749-.58789a5.59948,5.59948,0,0,1,3.55518-.543c5.84326.82911,12.01562-2.49609,15.35449-8.2832A17.2632,17.2632,0,0,0,51.87061,42.419a5.93328,5.93328,0,0,1,3.2583-5.64454,17.279,17.279,0,0,0,6.83886-6.67382C66.20215,22.7627,63.31885,12.71582,57.98828,9.6377Zm2.24756,19.46289a15.28374,15.28374,0,0,1-6.043,5.90625,7.87127,7.87127,0,0,0-4.32129,7.48535,15.26927,15.26927,0,0,1-2.10058,8.1914c-2.93506,5.08887-8.30079,8.02344-13.33985,7.30371a7.39026,7.39026,0,0,0-5.03515.9209l-.05909.044.01368-.23535A8.47226,8.47226,0,0,0,27.68213,53.917c-2.92285-3.99219-2.97754-9.98437-.13574-14.90918a15.28672,15.28672,0,0,1,6.04638-5.91015,7.864,7.864,0,0,0,4.3208-7.48243,15.28052,15.28052,0,0,1,2.09717-8.19433c3.91553-6.78223,12.99951-8.34766,16.978-6.05078C60.96533,13.666,64.15137,22.31445,60.23584,29.10059Z"/><path d="M55.856,13.3291c-4.15918-2.40137-10.86817-.22168-13.54248,4.40528A11.046,11.046,0,0,0,42.896,29.55957,3.1305,3.1305,0,0,0,48.28223,32.669a11.04925,11.04925,0,0,0,10.52929-5.41016,11.15338,11.15338,0,0,0,1.08643-7.709A9.12122,9.12122,0,0,0,55.856,13.3291Zm1.22363,12.92969c-1.80859,3.13672-5.79883,5.04394-9.08447,4.334a.992.992,0,0,0-1.07813.48047l-.1665.29a1.13038,1.13038,0,1,1-1.95361-1.13769l.168-.29786a1.00032,1.00032,0,0,0-.13037-1.16308c-2.25439-2.48438-2.60058-6.89063-.78906-10.03027a9.59669,9.59669,0,0,1,7.90186-4.38086,5.78929,5.78929,0,0,1,2.90771.708,7.14277,7.14277,0,0,1,3.083,4.88672A9.26447,9.26447,0,0,1,57.07959,26.25879Z"/><path d="M55.1626,23.99707a.99972.99972,0,0,0-1.36572.36719,4.78757,4.78757,0,0,1-2.832,2.12695,3.35821,3.35821,0,0,1-2.56152-.248,1.00041,1.00041,0,0,0-1.001,1.73243,5.03076,5.03076,0,0,0,2.5293.65722,5.97032,5.97032,0,0,0,1.55176-.21,6.76259,6.76259,0,0,0,4.04687-3.06055A.99983.99983,0,0,0,55.1626,23.99707Z"/><path d="M43.07471,35.46484h-.001c-4.16553-2.40136-10.87207-.21875-13.541,4.40625a11.06246,11.06246,0,0,0,.57764,11.82422,3.1378,3.1378,0,0,0,2.87549,4.374,3.17442,3.17442,0,0,0,.81348-.10743,3.10437,3.10437,0,0,0,1.69873-1.15527,11.05483,11.05483,0,0,0,10.53222-5.40723C48.70068,44.77344,47.23682,37.87109,43.07471,35.46484Zm1.22314,12.93457a8.99347,8.99347,0,0,1-9.083,4.33106.998.998,0,0,0-1.07275.4707l-.17676.29981a1.131,1.131,0,0,1-1.96289-1.124l.17188-.293a.99851.99851,0,0,0-.1211-1.17675c-2.25293-2.48731-2.59863-6.89649-.78808-10.03614A9.58981,9.58981,0,0,1,39.166,36.49121a5.80455,5.80455,0,0,1,2.90869.70606C45.24121,39.0293,46.38379,44.78613,44.29785,48.39941Z"/><path d="M42.38379,46.1377a.9991.9991,0,0,0-1.3667.36425c-1.00146,1.7334-3.57861,2.93164-5.3999,1.87793a1.00016,1.00016,0,0,0-1,1.73242,4.94969,4.94969,0,0,0,2.498.65333,6.80569,6.80569,0,0,0,5.63331-3.26172A.99985.99985,0,0,0,42.38379,46.1377Z"/><path d="M23.44727,38.83691a26.51177,26.51177,0,0,0-4.80378-7.01825l4.265-4.26361,3.82635,3.82483a.99989.99989,0,1,0,1.41407-1.41406l-3.82618-3.82465,4.58857-4.58709A27.93239,27.93239,0,0,0,32.918,24.69043a1.00017,1.00017,0,0,0,1.07715-1.68555,25.90287,25.90287,0,0,1-3.66962-2.8645l3.81238-3.81116c.28467.26343.5686.51709.84942.75476a.99994.99994,0,1,0,1.291-1.52734q-.35952-.304-.72607-.64136l3.88916-3.88794a.99989.99989,0,1,0-1.41407-1.41406l-3.88641,3.88519a21.66645,21.66645,0,0,1-3.06219-4.25109c.28558-.10486.57189-.20746.8612-.28644a1.00022,1.00022,0,0,0-.52734-1.92969,12.66665,12.66665,0,0,0-1.21051.40247,16.09673,16.09673,0,0,1-.7536-2.20893,12.48537,12.48537,0,0,1,8.63159-.0578,8.4111,8.4111,0,0,0,5.06933.36817l.22461-.07227-.02539.06348a5.01862,5.01862,0,0,0-.293,2.085,1,1,0,1,0,1.998-.08985,3.11685,3.11685,0,0,1,.15283-1.2539c.11914-.30078.24561-.59473.3711-.8711a1.571,1.571,0,0,0-.12549-1.81933,1.54441,1.54441,0,0,0-1.76953-.32324L42.52,3.63672a6.53071,6.53071,0,0,1-3.71729-.335C33.46436,1.2334,26.80127,2.91309,22.22656,7.48047a17.29548,17.29548,0,0,0-4.68164,8.33887,5.93306,5.93306,0,0,1-4.6084,4.60546,17.31435,17.31435,0,0,0-8.33838,4.68067A16.28035,16.28035,0,0,0,.0083,36.21289c-.12451,3.97363,1.04785,7.59375,3.13672,9.68262,1.95605,1.95312,5.39551,3.16113,9.15869,3.16113a17.03781,17.03781,0,0,0,9.14063-2.6084.9999.9999,0,1,0-1.07618-1.68554,13.74006,13.74006,0,0,1-1.50756.82031A21.62646,21.62646,0,0,0,13.756,36.70459l3.47345-3.47229a24.50239,24.50239,0,0,1,4.40045,6.4386.99981.99981,0,1,0,1.81739-.834Zm-6.20643-8.44366a27.90258,27.90258,0,0,0-4.31658-3.32983,10.66949,10.66949,0,0,1,1.61773-.55854,12.46283,12.46283,0,0,0,4.84516-2.46978l2.107,2.10614Zm-6.352-2.199a25.3923,25.3923,0,0,1,4.93763,3.61292l-3.48474,3.48364A23.46377,23.46377,0,0,0,7.527,31.83191a9.40442,9.40442,0,0,1,1.61407-2.1864A12.49287,12.49287,0,0,1,10.88885,28.19421Zm16.69892-22.168a18.07424,18.07424,0,0,0,.80066,2.28211,13.95463,13.95463,0,0,0-1.85962,1.24444,1.00019,1.00019,0,0,0,1.2539,1.5586,11.95559,11.95559,0,0,1,1.47919-1.00055,23.71623,23.71623,0,0,0,3.4646,4.80163l-3.81628,3.81507a21.99351,21.99351,0,0,1-5.49311-9.59363c.07557-.07861.14563-.161.223-.23834A15.74712,15.74712,0,0,1,27.58777,6.02618Zm-5.71924,4.98511A25.26379,25.26379,0,0,0,27.496,20.14136l-4.58752,4.58606-2.076-2.0752a12.49377,12.49377,0,0,0,2.79748-5.23132,1.00023,1.00023,0,1,0-1.93945-.49024,10.46857,10.46857,0,0,1-2.28711,4.293L17.844,19.665a8.20081,8.20081,0,0,0,1.65015-3.39838A14.958,14.958,0,0,1,21.86853,11.01129ZM13.3833,22.374a8.33537,8.33537,0,0,0,3.00494-1.33661l1.57728,1.5766a10.45287,10.45287,0,0,1-3.91327,1.95142,13.13857,13.13857,0,0,0-3.24152,1.32068,21.44973,21.44973,0,0,0-2.70306-1.12177A14.95011,14.95011,0,0,1,13.3833,22.374ZM6.01172,26.52051c.07233-.07221.14941-.13745.22284-.20813a15.74444,15.74444,0,0,1,2.64148.89526,14.40033,14.40033,0,0,0-1.1485,1.02283A11.41316,11.41316,0,0,0,5.72369,30.9668a17.80116,17.80116,0,0,0-2.26605-.78186A13.12119,13.12119,0,0,1,6.01172,26.52051ZM16.98419,46.32629c-4.77911,1.50776-10.02228.554-12.4256-1.84582-1.67968-1.67969-2.65722-4.82324-2.55127-8.20508a15.75843,15.75843,0,0,1,.70514-4.21765,15.68408,15.68408,0,0,1,2.21833.74976A13.67378,13.67378,0,0,0,4.2002,36.499a.99951.99951,0,0,0,.94238,1.05371c.019.001.03808.002.05713.002a1.00057,1.00057,0,0,0,.99756-.94434,11.73848,11.73848,0,0,1,.54022-2.92724,21.4597,21.4597,0,0,1,4.19012,3.02136L5.6333,41.99707a.99989.99989,0,1,0,1.41406,1.41406l5.29438-5.29266A19.66807,19.66807,0,0,1,16.98419,46.32629Z"/></g></svg>