<svg xmlns="http://www.w3.org/2000/svg" xmlns:svg="http://www.w3.org/2000/svg" id="svg783" xml:space="preserve" viewBox="0 0 682.66669 682.66669"><defs id="defs787"><clipPath clipPathUnits="userSpaceOnUse" id="clipPath797"><path d="M 0,512 H 512 V 0 H 0 Z" id="path795"/></clipPath></defs><g id="g789" transform="matrix(1.3333333,0,0,-1.3333333,0,682.66667)"><g id="g791"><g id="g793" clip-path="url(#clipPath797)"><path d="m 353.104,373.411 h 15 v -38.938 h -15 z m 30,5.205 28.767,42.602 c 0.118,0.236 0.65,0.281 0.846,0.107 2.766,-2.447 3.874,-6.316 2.824,-9.857 l -4.375,-14.75 c -0.901,-3.035 -0.309,-6.362 1.585,-8.899 1.894,-2.537 4.914,-4.051 8.08,-4.051 h 23.403 c 3.775,-0.219 5.446,-2.745 4.423,-6.259 l -11.493,-32.454 c -1.88,-5.307 -6.729,-8.85 -12.356,-9.028 l -41.704,-1.314 z m -30.5,-59.143 72.677,1.562 c 11.85,0.373 22.064,7.836 26.022,19.012 l 11.494,32.454 c 4.567,12.624 -5.339,26.359 -18.563,26.267 h -16.815 l 2.502,8.434 c 2.702,9.108 -0.149,19.06 -7.262,25.356 -6.94,6.142 -18.093,4.734 -23.22,-2.946 l -27.821,-41.201 h -19.014 c -7.996,0 -14.5,-6.505 -14.5,-14.5 v -39.938 c 0,-7.995 6.504,-14.5 14.5,-14.5 m -119.5,-48.133 -3.555,8.912 c -1.536,3.81 0.401,8.275 4.222,9.802 3.83,1.53 8.266,-0.338 9.792,-4.212 l 4.438,-11.125 c -4.364,-1.576 -9.357,-2.826 -14.897,-3.377 m 31.306,12.168 c -0.846,-0.632 -1.839,-1.33 -2.946,-2.059 l -3.968,9.95 c -4.575,11.577 -17.809,17.168 -29.277,12.59 -11.423,-4.56 -17.209,-17.863 -12.605,-29.287 l 1.115,-2.796 c -12.67,2.156 -22.051,7.834 -27.104,11.606 -3.319,2.477 -8.019,1.795 -10.497,-1.526 -2.477,-3.319 -1.794,-8.018 1.525,-10.496 7.099,-5.299 20.519,-13.091 38.32,-15.015 15.539,-1.681 32.952,-1.032 54.419,15.019 3.317,2.481 3.996,7.181 1.516,10.498 -2.48,3.317 -7.18,3.994 -10.498,1.516 m -81.776,43.876 c 9.004,0.144 15.89,3.395 20.08,6.098 3.482,2.245 4.484,6.886 2.239,10.368 -2.245,3.482 -6.888,4.482 -10.368,2.238 -2.547,-1.643 -6.73,-3.618 -12.191,-3.706 -6.086,-0.088 -10.727,2.281 -12.94,3.707 -3.481,2.245 -8.122,1.241 -10.367,-2.24 -2.244,-3.482 -1.241,-8.123 2.24,-10.368 6.289,-4.053 13.844,-6.217 21.307,-6.097 m 44.382,-107.255 c -0.12,0 -0.249,0.001 -0.37,0.001 -58.515,0.204 -106.135,47.983 -106.302,106.571 v 37.567 c 27.021,1.778 53.442,7.637 78.532,17.415 20.524,8.007 40.013,18.602 57.946,31.506 5.416,-7.346 11.617,-14.06 18.435,-19.955 7.294,-6.3 15.348,-11.712 23.987,-16.153 -0.061,-0.902 -0.113,-1.808 -0.148,-2.717 -0.97,-24.775 7.299,-48.345 23.368,-66.91 l -18.543,-14.732 c -3.492,-2.775 -4.852,-7.468 -3.383,-11.68 1.469,-4.212 5.453,-7.042 9.914,-7.042 h 9.557 c -19.017,-33.37 -54.558,-53.871 -92.993,-53.871 m 30.996,-53.681 c -0.88,16.333 -14.443,29.352 -30.992,29.352 -16.224,0 -29.571,-12.514 -30.919,-28.394 -9.41,5.193 -16.262,11.865 -20.613,16.81 6.951,5.342 11.242,13.659 11.242,22.754 v 5.05 c 12.491,-4.412 25.904,-6.841 39.865,-6.89 0.14,0 0.28,-0.001 0.421,-0.001 13.994,0 27.578,2.367 40.294,6.778 v -4.937 c 0,-9.683 4.863,-18.479 12.621,-23.744 -4.577,-5.003 -11.939,-11.726 -21.919,-16.778 M 210.98,164.76 c 0,8.844 7.195,16.04 16.04,16.04 8.845,0 16.04,-7.196 16.04,-16.04 0,-2.404 -0.548,-4.758 -1.569,-6.895 -4.728,0.678 -9.558,1.035 -14.471,1.035 -4.913,0 -9.743,-0.357 -14.472,-1.035 -1.02,2.137 -1.568,4.491 -1.568,6.895 M 313.66,55.346 h -50.42 c -4.142,0 -7.5,-3.358 -7.5,-7.5 0,-4.143 3.358,-7.5 7.5,-7.5 h 57.92 c 7.526,0.183 14.018,-3.654 14.018,-12.673 C 335.178,20.685 329.493,15 322.505,15 h -190.97 c -6.988,0 -12.673,5.685 -12.673,12.673 0,8.878 6.587,12.866 14.018,12.673 h 95.36 c 4.142,0 7.5,3.357 7.5,7.5 0,4.142 -3.358,7.5 -7.5,7.5 h -87.86 c -1.107,48.529 38.207,88.554 86.64,88.554 48.446,0 87.718,-40.086 86.64,-88.554 m 0.424,318.432 c 1.688,43.167 36.396,77.023 79.162,78.192 22.259,0.608 43.269,-7.608 59.175,-23.121 15.912,-15.52 24.648,-36.307 24.599,-58.533 C 476.921,325.479 439.878,289 394.444,289 H 323.35 l 12.217,9.707 c 2.305,1.832 3.742,4.566 3.942,7.502 0.2,2.937 -0.853,5.842 -2.888,7.97 -15.407,16.105 -23.411,37.271 -22.537,59.599 M 105.34,331.485 c -9.339,-0.673 -17.379,6.872 -17.379,16.202 0,9.142 8.103,16.977 17.379,16.202 z M 336.941,274 h 57.503 c 53.687,0 97.459,43.192 97.576,96.283 0.058,26.316 -10.286,50.928 -29.126,69.304 -18.834,18.37 -43.723,28.101 -70.055,27.377 -15.963,-0.434 -30.986,-4.784 -44.139,-12.119 v 14.475 c 0,23.534 -19.289,42.68 -43,42.68 H 148.34 c -23.711,0 -43,-19.146 -43,-42.68 v -28.643 c 0,-4.143 3.358,-7.5 7.5,-7.5 4.142,0 7.5,3.357 7.5,7.5 v 28.643 c 0,15.263 12.56,27.68 28,27.68 H 305.7 c 15.44,0 28,-12.417 28,-27.68 v -24.801 c -15.691,-13.127 -27.179,-31.131 -32.069,-51.663 -5.898,3.392 -11.45,7.308 -16.566,11.728 -5.973,5.164 -11.413,11.054 -16.165,17.502 -4.845,6.582 -14.202,8.047 -20.86,3.262 -16.889,-12.152 -35.265,-22.141 -54.613,-29.69 -23.354,-9.1 -47.938,-14.595 -73.087,-16.349 v 26.368 c 0,4.142 -3.358,7.5 -7.5,7.5 -4.142,0 -7.5,-3.358 -7.5,-7.5 v -26.788 c -17.631,0.536 -32.379,-13.493 -32.379,-31.202 0,-17.668 15.046,-32.171 32.839,-31.202 3.678,-42.733 29.522,-79.292 65.93,-98.001 V 206.97 c 0,-5.918 -3.813,-11.164 -9.493,-13.055 L 68.996,162.824 C 39.678,153.04 19.98,125.856 19.98,95.18 V 7.5 c 0,-4.143 3.358,-7.5 7.5,-7.5 4.142,0 7.5,3.357 7.5,7.5 v 87.68 c 0,24.212 15.578,45.678 38.763,53.415 l 87.547,29.192 c 4.948,-6.133 15.004,-17.381 30.66,-25.152 C 152.321,138.044 124.246,99.197 125.38,54.646 113.075,51.84 103.862,40.815 103.862,27.673 103.862,12.414 116.276,0 131.535,0 h 190.97 c 15.259,0 27.673,12.414 27.673,27.673 0,13.142 -9.213,24.167 -21.518,26.973 0.835,44.409 -26.183,82.625 -65.523,97.602 15.773,7.55 26.277,18.607 31.395,24.944 l 85.764,-28.596 C 403.482,140.858 419.06,119.392 419.06,95.18 V 7.5 c 0,-4.143 3.358,-7.5 7.5,-7.5 4.142,0 7.5,3.357 7.5,7.5 v 87.68 c 0,30.676 -19.698,57.86 -49.018,67.645 l -93.243,31.091 c -5.675,1.89 -9.489,7.136 -9.489,13.054 v 11.29 c 23.497,11.865 42.884,31.215 54.631,55.74 m -52.356,72.088 c -2.547,-1.643 -6.73,-3.618 -12.191,-3.706 -6.097,-0.088 -10.727,2.281 -12.94,3.707 -3.48,2.245 -8.123,1.241 -10.367,-2.24 -2.244,-3.482 -1.241,-8.123 2.24,-10.368 6.121,-3.945 13.456,-6.102 20.719,-6.102 8.911,0 16.457,3.389 20.668,6.103 3.482,2.245 4.484,6.886 2.239,10.368 -2.245,3.482 -6.887,4.482 -10.368,2.238 M 85.521,51.71 c -4.143,0 -7.5,-3.357 -7.5,-7.5 V 7.5 c 0,-4.143 3.357,-7.5 7.5,-7.5 4.142,0 7.5,3.357 7.5,7.5 v 36.71 c 0,4.143 -3.358,7.5 -7.5,7.5 m 282.999,0 c -4.143,0 -7.5,-3.357 -7.5,-7.5 V 7.5 c 0,-4.143 3.357,-7.5 7.5,-7.5 4.142,0 7.5,3.357 7.5,7.5 v 36.71 c 0,4.143 -3.358,7.5 -7.5,7.5" style="fill:#000000;fill-opacity:1;fill-rule:nonzero;stroke:none" id="path799"/></g></g></g></svg>