<svg width="152" height="128" viewBox="0 0 152 128" fill="none" xmlns="http://www.w3.org/2000/svg">
<g filter="url(#filter0_d_1019_9435)">
<path d="M80.5115 11.4752C74.237 6.42071 64.9995 6.07213 57.5921 9.20938C50.1847 12.3466 44.3459 18.4468 39.9015 25.1571C36.6771 29.9501 33.9755 35.266 29.7054 39.1876C25.261 43.1963 19.4222 45.4621 15.5006 49.9937C10.2719 56.0067 9.66184 64.8085 10.5333 72.7387C11.4048 80.669 13.5834 82.7605 13.1477 90.7779C12.9734 94.2638 14.8906 102.978 17.7664 104.983C19.7708 106.464 28.8339 105.593 31.3612 105.157C38.5071 103.763 37.1999 104.111 43.823 101.061C50.4461 98.011 56.4592 93.0437 59.335 86.4206C60.9908 82.4991 61.6008 78.1418 63.3437 74.3074C65.5224 69.6886 69.3568 66.1156 73.1912 62.8913C80.7729 56.3553 89.4875 49.6451 91.579 39.8847C93.5833 30.9087 86.8731 16.5296 80.5115 11.4752Z" fill="#BD7D46"/>
<path d="M81.1212 10.3428C73.2781 4.50403 62.8206 4.76547 54.4546 9.20991C44.6071 14.4387 39.6398 23.6761 33.5396 32.3907C29.8795 37.7066 25.0864 40.6696 19.9448 44.3297C15.849 47.1184 12.6246 50.5171 10.7945 55.1358C6.87294 65.1576 10.0973 74.6565 11.5788 84.5911C12.1888 88.5998 11.666 92.6085 12.5374 96.5301C13.2346 99.5802 14.2803 104.199 17.1562 106.029C19.6834 107.685 23.7792 107.075 26.5679 106.9C30.228 106.639 34.0625 106.116 37.5483 105.07C45.2171 102.805 53.2346 97.9244 57.9404 91.3885C61.0777 87.0312 61.862 82.0639 63.6049 77.1837C65.8707 70.6478 71.0123 66.2905 76.1539 61.9332C83.8228 55.3972 92.9731 47.5541 93.2345 36.6609C93.496 27.4234 88.4415 16.3559 81.3827 10.43C80.0755 9.29705 78.2454 11.2143 79.5526 12.26C85.6528 17.4888 89.923 26.4648 90.533 34.4822C91.3173 44.1554 83.9971 51.5628 77.2868 57.4887C70.6637 63.4147 63.6921 68.5563 60.8162 77.2709C59.3348 81.7153 58.4633 86.2469 55.6746 90.1684C52.6245 94.3514 48.3544 97.4016 43.7356 99.6674C37.7226 102.63 31.7095 104.199 24.9993 104.46C20.7291 104.635 18.0276 104.46 16.3718 100.19C14.8904 96.3558 14.6289 92.6085 14.6289 88.5998C14.5418 80.2338 10.9688 72.565 11.666 64.0247C12.1017 58.7959 13.6703 53.8286 17.4176 49.9942C20.9034 46.3341 25.7836 44.3297 29.618 41.1053C37.6354 34.4822 41.0341 24.0247 48.6158 16.8787C57.069 8.94847 69.9666 5.28834 79.9012 12.6957C81.2084 13.6543 82.5156 11.3014 81.1212 10.3428Z" fill="#DFA771"/>
<path d="M51.4922 63.0657C50.6207 60.0155 46.2635 56.9654 44.6948 54.1768C41.7319 49.0352 39.9018 41.8892 41.5576 36.1376C43.2133 30.3859 44.5205 17.4883 65.5227 11.8239C69.27 10.7781 73.3658 13.6539 76.6774 15.6583C79.9018 17.5755 81.9061 21.1485 82.6904 24.8086C83.4748 28.4687 83.039 32.3032 82.0804 35.9633C80.3375 42.8478 76.5902 49.1223 71.5358 54.0896C66.5684 59.0569 62.124 63.3271 55.2395 64.8957C54.368 65.07 53.4966 65.2443 52.7122 64.9829C51.9279 64.7214 51.4922 63.0657 51.4922 63.0657Z" fill="#F8AB89"/>
<path d="M35.2823 50.43C43.5612 53.8287 50.2714 67.9463 50.01 76.9224C49.6614 85.8984 44.607 94.5258 37.0253 99.2317C34.2366 100.975 30.8379 102.195 27.7878 101.149C24.5634 100.016 22.6462 96.7045 21.1647 93.6544C18.8989 88.687 17.0688 83.5454 15.7617 78.2295C14.5416 73.4365 12.1887 55.3102 21.949 51.9115C26.2192 50.43 31.9708 49.0357 35.2823 50.43Z" fill="#F8AB89"/>
<path d="M121.47 15.3977C128.442 19.4936 132.015 27.9468 131.753 35.9642C131.492 44.0687 127.832 51.6504 123.213 58.1864C119.901 62.8923 115.893 67.3367 113.801 72.7397C111.622 78.3171 111.622 84.5916 108.834 89.8204C105.086 96.8792 97.069 100.626 89.3131 102.544C81.5571 104.461 73.3654 105.158 66.1323 108.47C62.9079 109.864 59.0734 111.781 56.1105 109.864C54.019 108.47 53.409 105.768 52.9732 103.328C51.666 96.182 50.3588 88.8617 50.8817 81.6286C51.4046 74.3955 53.8447 66.9881 59.0734 61.8465C62.1235 58.8835 66.0451 56.792 68.9209 53.7419C72.4068 50.0818 74.4111 45.2016 76.0669 40.4958C79.4656 31.084 82.6028 20.5394 90.9688 15.0492C98.5505 10.169 114.411 11.2147 121.47 15.3977Z" fill="#DFA771"/>
<path d="M120.771 24.8971C120.771 25.2457 120.771 25.5943 120.423 25.7686C120.161 25.8557 119.9 25.7686 119.725 25.5943C119.028 25.1586 118.244 24.7228 117.547 24.2871C117.372 24.2 117.111 24.0257 117.111 23.8514C117.024 23.5028 117.285 23.1542 117.46 22.8928C118.331 21.9342 119.987 18.7969 120.771 19.8427C121.294 20.4527 120.771 23.3285 120.771 24.8971Z" fill="#BC7D45"/>
<path d="M88.3527 97.7508C88.527 97.4894 88.8756 97.228 89.137 97.4023C89.3985 97.4894 89.4856 97.7508 89.5728 98.0123C89.8342 98.8837 90.0957 99.6681 90.3571 100.54C90.4442 100.801 90.4442 100.975 90.3571 101.237C90.1828 101.585 89.8342 101.672 89.4856 101.672C88.1784 101.76 80.771 102.892 80.8582 101.498C80.8582 100.714 87.307 98.8837 88.3527 97.7508Z" fill="#BC7D45"/>
<path d="M119.987 31.2584C119.638 29.6897 117.111 29.864 115.717 29.1669C115.281 28.9926 114.758 28.7311 114.409 28.9926C114.061 29.1669 113.887 29.6897 113.799 30.1255C113.625 30.9969 113.451 31.8684 113.277 32.7398C113.189 33.437 113.102 34.2213 113.364 34.9185C113.887 36.1385 115.368 36.5743 116.588 36.7485C117.024 36.8357 117.46 36.9228 117.808 36.5743C117.982 36.4 118.07 36.1385 118.157 35.8771C118.592 34.5699 118.941 33.3499 119.377 32.0427C119.377 32.0427 120.074 31.5198 119.987 31.2584Z" fill="#BC7D45"/>
<path d="M115.891 39.8855C114.845 39.8855 113.974 39.3626 113.015 38.9269C112.057 38.4911 111.011 38.1426 110.052 38.5783C109.442 38.9269 109.094 39.5369 108.745 40.1469C107.787 42.0641 106.915 43.9813 106.131 45.9857C105.782 47.0314 105.434 48.2515 105.869 49.2972C106.218 50.1687 107.002 50.7787 107.961 51.1273C108.832 51.4759 109.791 51.6502 110.75 51.7373C112.318 48.3386 113.8 44.8528 115.368 41.4541L115.891 39.8855Z" fill="#BC7D45"/>
<path d="M119.726 46.1606C119.378 46.6835 119.726 47.4678 120.336 47.555C121.034 47.6421 121.818 47.7292 122.515 47.8164C122.864 47.8164 123.125 47.9035 123.386 47.6421C123.735 47.3807 123.735 46.9449 123.735 46.5092C123.735 45.6377 123.735 44.6791 123.212 44.0691C122.776 43.5462 122.079 43.2848 121.382 43.1105C121.034 43.0234 120.685 42.9362 120.336 43.1105C119.814 43.372 119.639 43.982 119.726 44.5048C119.726 45.1149 119.814 45.6377 119.726 46.1606Z" fill="#BC7D45"/>
<path d="M108.571 55.7464C109.181 54.9621 108.92 53.6549 107.961 53.3935C106.829 53.0449 105.696 52.6963 104.476 52.3477C103.953 52.1734 103.43 52.0863 102.994 52.3477C102.384 52.6092 102.21 53.3935 102.123 54.0907C101.861 55.485 101.6 57.0536 102.297 58.2737C102.907 59.3194 103.953 59.8423 104.998 60.278C105.521 60.5395 106.131 60.8009 106.741 60.6266C107.613 60.4523 108.049 59.4066 108.136 58.5351C108.31 57.5765 108.223 56.6179 108.571 55.7464Z" fill="#BC7D45"/>
<path d="M106.044 64.8099C105.608 63.3285 103.865 62.9799 102.384 62.2827C101.774 62.0213 101.164 62.2827 100.902 62.8927C100.379 64.3742 100.031 65.8557 99.8565 67.4243C99.7694 68.1215 99.8565 68.9058 100.292 69.5158C100.728 70.0387 101.425 70.213 102.035 70.3001C102.907 70.4744 103.778 70.5616 104.562 70.1258C105.172 69.7773 105.521 68.9929 105.608 68.2958C105.695 67.6858 106.131 65.1585 106.044 64.8099Z" fill="#BC7D45"/>
<path d="M71.4469 96.9662C71.8827 95.7462 71.2726 94.7876 70.7498 93.829C70.4012 93.219 69.6169 93.0447 69.1811 93.5675C68.2225 94.5261 67.2639 95.5719 66.4796 96.7919C66.0439 97.402 65.6953 98.0991 65.6953 98.7091C65.6953 99.3192 66.0439 99.7549 66.3925 100.103C66.8282 100.539 67.2639 101.062 67.9611 100.975C68.484 100.888 69.094 100.452 69.5297 99.842C69.8783 99.1449 71.3598 97.3148 71.4469 96.9662Z" fill="#BC7D45"/>
<path d="M103.43 75.1803C102.036 74.0474 100.641 73.0888 99.0728 72.3045C98.2884 71.8688 97.3298 72.4788 97.417 73.4374C97.6784 75.8775 97.2427 78.4047 96.2841 80.6705C96.0227 81.3677 95.6741 82.2391 96.1969 82.762C96.7198 83.2849 97.5041 83.0234 98.2013 82.6749C99.8571 81.6291 102.384 78.4919 103.604 76.9232C103.953 76.3132 103.866 75.616 103.43 75.1803Z" fill="#BC7D45"/>
<path d="M65.8696 103.241C64.911 102.544 63.9524 102.021 62.9066 101.498C62.3838 101.237 61.7737 101.585 61.7737 102.195C61.948 103.677 61.6866 105.158 60.9894 106.553C60.8151 106.988 60.5537 107.511 60.9023 107.86C61.2509 108.208 61.8609 108.034 62.2095 107.773C63.3424 107.163 65.0853 105.245 65.9568 104.287C66.3053 103.938 66.2182 103.502 65.8696 103.241Z" fill="#BC7D45"/>
<path d="M96.1103 87.1189C95.4132 86.0731 94.5417 85.2017 93.5831 84.4174C92.9731 83.9816 92.1888 83.9816 91.6659 84.5045C90.2716 85.8988 89.313 87.816 89.1387 89.7333C89.1387 90.0818 89.1387 90.4304 89.313 90.6919C89.5744 90.9533 90.0101 90.9533 90.4459 90.8662C92.3631 90.5176 94.106 89.559 95.5003 88.2518C95.5875 88.1646 95.7618 87.9903 95.8489 87.816L96.1103 87.1189Z" fill="#BC7D45"/>
<path d="M88.7901 94.7008C86.8729 96.4438 84.1714 97.0538 81.6441 96.4438C81.6441 96.4438 81.4698 96.4438 81.4698 96.3566C81.0341 94.3523 84.2585 93.3937 85.6528 91.9122C85.8271 91.7379 86.0014 91.5636 86.2629 91.5636C86.5243 91.5636 86.7857 91.7379 86.96 91.9122C87.6572 92.6093 88.3544 93.3937 88.8772 94.3523" fill="#BC7D45"/>
<path d="M100.815 93.2196C99.5082 94.8754 93.4952 98.8841 91.4908 98.797H91.3165C90.7065 97.2283 97.0682 92.9582 97.9396 91.5639C98.0268 91.3896 98.2011 91.2153 98.3754 91.2153C98.5496 91.1281 98.8111 91.3024 98.9854 91.3896C99.6825 91.8253 100.293 92.3482 100.815 93.0453" fill="#BC7D45"/>
<path d="M79.2899 96.8794C79.5514 97.228 79.8128 97.6637 79.9 98.0994C79.9871 98.5352 79.9871 99.058 79.6385 99.4066C79.2899 99.7552 78.8542 99.8424 78.4185 99.8424C77.2856 100.017 76.1527 100.104 75.0198 100.278C74.7584 100.278 74.4098 100.365 74.1483 100.104C73.7997 99.7552 73.974 99.2323 74.2355 98.8837C74.5841 98.3609 74.9326 97.9251 75.4555 97.5766C76.5884 96.7922 77.9828 96.5308 79.2899 96.8794Z" fill="#BC7D45"/>
<path d="M73.6259 104.025C72.7544 104.635 71.6215 104.722 70.5758 104.722C69.53 104.722 68.4843 104.287 67.7871 103.415H67.8743C68.7457 102.457 70.0529 102.021 71.2729 101.934C72.493 101.934 73.8002 102.195 75.0202 102.544C75.1074 102.544 74.0616 103.764 73.6259 104.025Z" fill="#BC7D45"/>
<path d="M81.0342 83.2842C81.8185 82.6742 82.9514 82.7614 83.6485 83.5457C83.91 83.8071 84.1714 84.0685 84.4329 84.4171C85.0429 85.2014 86.2629 86.16 86.1758 87.1187C86.0886 88.0773 84.7814 88.7744 84.0843 89.3845C82.0799 91.3017 79.6398 92.7831 76.9383 93.4803C76.4154 93.6546 75.8054 93.7417 75.2825 93.6546C74.7597 93.5674 74.2368 93.2189 73.9753 92.696C73.7139 92.086 73.9753 91.4759 74.3239 90.9531C74.6725 90.4302 75.1954 90.0816 75.6311 89.733C77.5483 88.1644 79.2041 86.2472 80.5113 83.9814C80.6856 83.6328 80.8599 83.4585 81.0342 83.2842Z" fill="#BC7D45"/>
<path d="M89.4866 69.8637C89.9223 69.0794 90.7938 68.7308 91.6652 68.9922C91.9267 69.0794 92.1881 69.1665 92.3624 69.2536C93.0596 69.6022 93.5825 70.2994 93.6696 71.0837C93.7567 71.6066 93.5824 72.1295 93.4082 72.6523C92.711 74.9181 91.9267 77.2711 90.7938 79.2754C90.3581 79.9726 89.9223 80.6698 89.3123 81.1055C88.7023 81.5412 87.918 81.8027 87.1337 81.6284C86.0879 81.3669 85.3907 80.1469 85.3036 79.014C85.2164 77.8811 86.3493 76.5739 86.6979 75.441C87.4822 73.6981 88.7023 71.3451 89.4866 69.8637Z" fill="#BC7D45"/>
<path d="M95.849 61.8467L95.4132 64.2868C95.239 65.0711 94.4546 65.5069 93.7575 65.2454C93.4089 65.0711 93.1475 64.984 92.7989 64.8097C92.6246 64.7226 92.4503 64.6354 92.3631 64.4611C92.1888 64.1997 92.1888 63.9382 92.276 63.6768C92.3631 63.0668 92.3631 62.4568 92.4503 61.7596C92.4503 61.411 92.5374 60.9753 92.7989 60.801C93.1475 60.6267 93.496 60.801 93.8446 61.0624C94.1061 61.3239 94.3675 61.5853 94.7161 61.6725L95.849 61.8467Z" fill="#BC7D45"/>
<path d="M96.0221 49.3849C96.9807 49.6463 97.9393 49.8206 98.898 50.0821C99.1594 50.1692 99.4208 50.1692 99.508 50.3435C99.6823 50.6049 99.5951 50.8664 99.508 51.1278C99.1594 52.2607 98.898 53.3065 98.5494 54.4393C98.3751 55.1365 98.1136 55.8337 97.7651 56.4437C97.4165 57.0537 96.8064 57.6637 96.0221 57.9252C95.4121 58.0995 94.7149 58.0995 94.1921 57.838C93.7563 57.4895 93.582 56.9666 93.4949 56.4437C93.3206 55.1365 93.7563 53.7422 94.6278 52.6093L96.0221 49.3849Z" fill="#BC7D45"/>
<path d="M101.077 23.8508C101.339 23.2408 102.036 22.8922 102.646 23.0665L104.389 23.5022C104.65 23.5893 104.912 23.5893 104.999 23.7636C105.173 24.0251 105.086 24.2865 104.999 24.548C104.65 25.6808 104.389 26.7266 104.04 27.8595C103.866 28.5567 103.604 29.2538 103.256 29.8639C102.907 30.4739 102.297 31.0839 101.513 31.3453C100.903 31.5196 100.206 31.6068 99.6829 31.2582C99.0729 30.7353 98.55 29.4281 98.4629 28.9052C98.4629 27.8595 100.38 25.5937 101.077 23.8508Z" fill="#BC7D45"/>
<path d="M105.346 32.6525C105.956 33.1753 106.479 33.6982 107.089 34.2211C107.263 34.3954 107.438 34.5697 107.438 34.8311C107.438 35.1797 107.176 35.4411 106.915 35.7026C105.521 36.9226 104.823 38.927 104.301 40.9313C103.778 42.8485 103.342 44.94 102.296 46.5958C101.773 47.4673 100.815 48.2516 99.9432 47.903C99.4203 47.6416 99.0718 47.0315 98.8975 46.3344C98.8103 45.6372 98.8975 44.94 99.0718 44.2429C99.9432 40.2342 102.122 36.9226 104.213 33.6982L105.346 32.6525Z" fill="#BC7D45"/>
<path d="M114.585 63.2408C114.062 63.5894 113.365 63.5022 112.929 62.9794L112.232 62.195C112.058 62.0207 111.971 61.8465 111.971 61.585C111.971 61.2364 112.232 61.0621 112.494 60.8878C113.888 59.9292 114.759 58.1863 115.457 56.4434C116.154 54.7005 116.764 52.8704 117.897 51.4761C118.507 50.6918 119.378 50.0818 120.162 50.5175C120.685 50.7789 120.947 51.4761 120.947 52.0861C120.947 52.6961 120.772 53.3933 120.598 54.0033C119.378 57.4892 117.112 60.2778 114.934 62.8922C114.847 63.0665 114.759 63.1536 114.585 63.2408Z" fill="#BC7D45"/>
<path d="M115.107 20.1036C113.015 22.6309 111.708 25.8553 111.36 29.254C111.273 30.0383 111.185 30.9097 110.575 31.2583C110.227 31.5198 109.704 31.4326 109.268 31.2583C108.832 31.084 108.484 30.8226 108.135 30.474C107.525 29.9511 106.828 29.254 106.828 28.3825C106.828 27.7725 107.177 27.3367 107.525 26.8139C109.007 24.8967 110.575 23.1537 112.231 21.498C113.103 20.8008 114.061 20.3651 115.107 20.1036Z" fill="#BC7D45"/>
<path d="M124.78 27.2501C125.128 30.6488 125.477 34.1346 125.825 37.5333C125.913 38.6662 126 40.0606 125.128 40.8449C124.344 41.542 123.124 41.3678 122.427 40.5834C121.73 39.7991 121.468 38.6662 121.555 37.6205C121.642 36.5747 122.078 35.529 122.427 34.5704C123.385 32.2174 122.775 30.3002 123.734 27.9473L124.78 27.2501Z" fill="#BC7D45"/>
<path d="M108.832 77.0968C108.658 80.6698 107.786 84.2428 106.13 87.38C105.695 88.2515 105.172 89.1229 104.387 89.5587C103.603 90.0815 102.383 90.0815 101.86 89.2972C101.337 88.6001 101.424 87.5543 101.86 86.77C102.296 85.9857 102.993 85.4628 103.603 84.8528C105.607 83.0227 107.176 80.9312 108.396 78.4911L108.832 77.0968Z" fill="#BC7D45"/>
<path d="M112.755 65.3326C112.929 64.984 112.493 64.5483 112.057 64.6354C111.709 64.7226 111.447 65.0712 111.186 65.4197C110.489 66.4655 109.705 67.5984 109.356 68.8184C109.007 70.0385 109.007 71.5199 109.705 72.6528C110.14 70.387 111.186 68.2084 112.755 66.5526V65.3326Z" fill="#BC7D45"/>
<path d="M112.058 17.141C109.356 16.2696 104.825 16.2696 102.036 17.141C101.165 17.4025 100.293 17.8382 99.9447 18.7096C99.6833 19.494 99.9447 20.3654 100.555 20.8883C101.165 21.4112 102.036 21.5855 102.733 21.324C103.518 21.1497 104.128 20.5397 104.825 20.104C106.306 18.9711 112.058 17.141 112.058 17.141Z" fill="#BC7D45"/>
<path d="M97.2418 32.5655C97.5904 32.4784 98.0261 32.827 98.3747 33.0884C98.7233 33.3498 99.9434 33.6984 99.9434 34.1342C99.9434 34.7442 98.6362 35.4413 98.3747 35.8771C97.4161 37.4457 96.6318 39.2758 96.2832 41.2801C96.1089 42.2387 95.8475 43.4588 95.0632 43.6331C94.366 43.8073 93.146 43.2845 93.0588 42.3259C92.9717 41.3673 93.8431 40.1472 94.1917 39.3629C94.8889 37.62 95.5861 35.7899 96.1961 34.047C96.1089 34.047 96.8061 32.6527 97.2418 32.5655Z" fill="#BC7D45"/>
<path d="M90.3576 45.8119C90.8805 45.5505 91.5777 45.8119 92.1877 45.9862C92.7977 46.0733 93.4077 46.4219 93.6692 46.9448C93.9306 47.4677 93.7563 48.0777 93.6692 48.6006C93.2334 50.3435 92.4491 52.0864 91.4905 53.5679C91.3162 53.7422 91.2291 54.0036 90.9676 54.0036C90.7062 54.0908 90.4448 54.0036 90.1833 53.7422C90.009 53.5679 89.9219 53.2193 89.8347 52.9579C89.2247 51.2149 88.8761 49.2977 89.3119 47.5548C89.399 47.1191 89.9219 46.0733 90.3576 45.8119Z" fill="#BC7D45"/>
<path d="M86.7851 57.5768C87.7437 57.2282 88.8766 57.8382 89.3123 58.7968C89.7481 59.7554 89.5738 60.8883 89.0509 61.8469C88.7895 62.2826 88.528 62.8055 88.0051 62.8927C87.6566 62.9798 87.308 62.8055 86.9594 62.7184C86.4365 62.5441 85.9136 62.2826 85.6522 61.7598C85.4779 61.4112 85.4779 60.8883 85.5651 60.5397C85.6522 60.104 85.9136 59.7554 86.1751 59.4068L86.7851 57.5768Z" fill="#BC7D45"/>
<path d="M84.431 67.0756C85.7382 67.4242 86.7839 68.8185 86.6097 70.3C86.5225 71.3458 85.9125 72.2172 85.3025 73.0887C84.6924 73.9601 84.0824 74.8316 83.4724 75.703C83.2981 75.9645 83.1238 76.1388 82.9495 76.3131C82.4267 76.5745 81.8166 76.2259 81.5552 75.6159C81.2938 75.093 81.468 74.3959 81.6423 73.873C81.8166 73.3501 82.0781 72.7401 82.1652 72.2172C82.2524 71.6943 82.1652 71.1715 82.1652 70.5614C82.1652 70.0386 82.0781 67.5985 82.3395 67.1627C82.6009 66.6399 84.431 67.0756 84.431 67.0756Z" fill="#BC7D45"/>
<path d="M77.1124 78.3171C78.2453 78.4914 78.9425 79.6243 78.5939 80.7572C78.3325 81.6287 78.2453 82.5001 77.7225 83.1973C77.2867 83.8073 76.6767 84.3302 76.0667 84.7659C74.8466 85.6374 73.5394 86.5088 72.1451 87.2932C71.7965 87.4675 71.448 87.7289 71.0122 87.7289C70.5765 87.7289 70.1408 87.5546 69.9665 87.206C69.705 86.6831 70.1408 86.0731 70.4893 85.6374C72.3194 83.4587 74.1495 81.1929 75.8924 79.0143C76.0667 78.7529 76.3281 78.4914 76.6767 78.4043C76.851 78.23 76.9381 78.23 77.1124 78.3171Z" fill="#BC7D45"/>
<path d="M97.4164 23.0672C94.192 24.8973 92.362 28.5574 91.2291 32.2175C90.9676 33.089 90.6191 35.7033 89.8347 36.0519C88.9633 36.4877 87.1332 34.7447 86.6975 33.8733C86.2618 33.0018 87.1332 31.6075 87.4818 30.6489C87.8304 29.7774 88.5276 28.9931 89.1376 28.2959C91.2291 25.943 93.582 23.5901 96.545 22.5443L97.4164 23.0672Z" fill="#BC7D45"/>
<path d="M84.3444 38.1434C84.4316 37.7948 84.8673 37.7077 85.1287 37.8819C86.0873 38.492 87.656 38.4048 88.1789 39.3634C88.4403 39.7992 88.3531 40.4092 88.1789 40.9321C87.8303 42.7621 87.3945 44.505 87.046 46.3351C86.9588 46.858 86.7845 47.468 86.3488 47.9037C85.8259 48.3395 84.9545 48.3395 84.2573 48.2523C83.7344 48.1652 83.1244 48.078 82.7758 47.7294C82.2529 47.2937 82.2529 46.5094 82.3401 45.8122C82.5144 43.895 83.8216 39.7992 84.3444 38.1434Z" fill="#BC7D45"/>
<path d="M79.2901 57.0537C79.7258 55.8337 79.9001 54.6136 80.0744 53.3064C80.1615 52.7835 80.2487 52.1735 80.5101 51.7378C80.7715 51.2149 81.2073 50.8663 81.7301 50.8663C82.3402 50.8663 82.863 51.4764 83.2116 51.9992C83.8216 52.8707 84.5188 53.8293 84.606 54.875C84.6931 55.7465 84.3445 56.5308 83.9959 57.3151C83.4731 58.448 82.9502 59.5809 82.253 60.6267C81.9044 61.2367 81.4687 61.8467 80.8587 62.1953C80.0744 62.631 79.1158 62.5439 78.1572 62.4567C77.8086 62.3696 77.46 62.2824 77.1986 62.021C76.9371 61.7596 76.85 61.3238 77.0243 60.9753C77.0243 60.9753 78.8543 58.1866 79.2901 57.0537Z" fill="#BC7D45"/>
<path d="M76.4155 66.2046C76.7641 66.8146 76.8512 67.5989 76.6769 68.3832C76.5026 68.9932 76.0669 69.5161 75.7183 70.039C74.6726 71.4333 73.5397 72.9148 72.4939 74.3091C72.2325 74.6577 71.8839 75.0935 71.5353 75.3549C71.0996 75.6163 70.6639 75.7906 70.3153 75.6163C69.8795 75.5292 69.6181 75.0935 69.4438 74.5706C69.2695 74.0477 69.2695 73.5248 69.2695 73.002C69.3567 70.9105 69.7053 68.9061 70.4896 66.9889C70.8382 66.1174 71.361 65.246 72.0582 64.7231C72.8425 64.2874 76.0669 65.5945 76.4155 66.2046Z" fill="#BC7D45"/>
<path d="M66.0432 77.4462C67.0018 77.6205 67.8733 77.969 68.6576 78.4919C68.8319 78.5791 69.0062 78.7534 69.0933 78.9277C69.1805 79.1891 69.0933 79.5377 69.0062 79.8863C68.8319 80.4091 68.7448 80.932 68.5705 81.3677C68.4833 81.6292 68.3962 81.8906 68.1347 82.0649C67.8733 82.2392 67.6119 82.0649 67.3504 81.9778C66.5661 81.6292 65.6947 81.2806 64.9103 80.8449C64.736 80.7577 64.4746 80.5834 64.4746 80.322C64.4746 80.1477 64.4746 79.9734 64.5618 79.7991C64.9103 79.0148 65.2589 78.3176 65.5204 77.5333L66.0432 77.4462Z" fill="#BC7D45"/>
<path d="M65.2605 85.5511C63.6919 88.3398 62.7333 88.6012 60.9904 94.1786C60.9032 94.5271 60.3804 94.5271 60.2932 94.1786C59.4218 91.2156 59.9446 87.904 59.9446 84.6797C59.9446 84.4182 59.9446 84.0696 60.1189 83.8953C60.3804 83.4596 60.9904 83.5468 61.5133 83.721C61.7747 83.8953 64.0405 84.2439 64.9119 84.5054C65.3477 84.6796 65.522 85.2025 65.2605 85.5511Z" fill="#BC7D45"/>
<path d="M57.4159 97.1407C58.3745 98.5351 58.8102 100.278 58.7231 102.021C58.7231 102.544 58.5488 103.067 58.2002 103.328C57.6773 103.59 57.0673 103.241 56.7187 102.718C56.3701 102.195 56.283 101.585 56.0215 101.062C55.673 100.365 54.9758 99.8423 54.8015 99.058C54.7144 98.5351 54.8887 98.0994 55.2372 97.7508C55.5858 97.4022 56.1087 97.315 56.5444 97.4022L57.4159 97.1407Z" fill="#BC7D45"/>
<path d="M56.6324 80.4966C57.1553 80.6709 57.4167 81.2809 57.2424 81.8038C56.4581 84.6796 56.2838 87.8168 56.8067 90.6927C56.981 91.3898 57.0682 92.2613 56.7196 92.8713C56.371 93.3942 55.5867 93.5685 55.0638 93.3942C54.1923 93.1327 53.5823 92.4356 53.2337 91.5641C52.8851 90.6927 52.798 89.8212 52.798 88.8626C52.7109 85.8125 53.1466 82.7624 54.1052 79.9737C54.1923 79.7994 54.1923 79.6251 54.3666 79.6251C54.4538 79.6251 54.6281 79.6251 54.7152 79.7123C54.9767 79.9737 55.8481 80.3223 56.6324 80.4966Z" fill="#BC7D45"/>
<path d="M67.8744 62.9796C66.5672 62.6311 65.0857 62.9796 63.8657 63.6768C62.6456 64.374 61.5999 65.4197 60.7284 66.5526C59.4212 68.1213 58.2012 70.0385 58.2012 72.13C58.2012 72.74 58.2883 73.4372 58.724 73.96C59.0726 74.4829 59.7698 74.7443 60.3798 74.4829C60.7284 74.3086 60.9898 73.96 61.2513 73.6114C63.2556 70.5613 65.26 67.4241 67.3515 64.374L67.8744 62.9796Z" fill="#BC7D45"/>
<path d="M73.1908 54.6142C73.3651 54.0913 73.8879 53.8299 74.3237 53.917L75.108 54.0913C75.2823 54.1785 75.5437 54.1785 75.6309 54.3528C75.8051 54.6142 75.8052 54.9628 75.718 55.2242C75.5437 56.27 75.3694 57.2286 74.8465 58.1C74.3237 58.9715 73.5394 59.7558 72.5807 59.7558C72.145 59.7558 71.7093 59.5815 71.535 59.2329C71.3607 58.7972 71.535 58.2743 71.7964 57.8386C72.2322 57.3157 72.8422 55.6599 73.1908 54.6142Z" fill="#BC7D45"/>
<path d="M76.9367 43.7206C77.7211 43.982 78.5925 44.3306 78.854 45.1149C78.9411 45.4635 78.9411 45.7249 79.0282 46.0735C79.0282 47.2064 79.1154 48.3393 79.1154 49.3851C79.1154 49.8208 79.1154 50.2565 78.9411 50.6051C78.6797 51.128 77.9825 51.2151 77.4596 51.2151C76.8496 51.2151 76.1524 51.0408 75.6295 50.6051C75.1067 50.2565 75.0195 50.0822 75.0195 49.3851C75.0195 48.6879 75.1067 47.555 75.5424 47.0321C75.9781 46.5092 76.4139 45.8992 76.6753 45.2892L76.9367 43.7206Z" fill="#BC7D45"/>
<path d="M83.4724 31.4327C83.2981 31.2584 83.211 31.0841 82.9496 30.9969C82.8624 30.9969 82.6881 30.9969 82.601 30.9969C81.9038 31.2584 81.2938 31.7813 80.858 32.3041C79.028 34.5699 78.5923 37.1843 78.418 39.7987C78.418 40.2344 78.6794 40.6701 79.1151 40.6701L80.4223 40.8444C80.858 40.9316 81.2066 40.6701 81.3809 40.2344C82.0781 37.8815 82.9496 35.6157 84.0825 33.5242C84.2567 33.0885 84.3439 32.6527 84.0825 32.217C83.821 32.0427 83.6467 31.607 83.4724 31.4327Z" fill="#BC7D45"/>
<path d="M91.7523 21.8469C91.4037 21.324 88.3536 23.7641 86.6107 24.7227C86.3493 24.897 86.0878 24.9842 85.9135 25.2456C85.7392 25.507 85.5649 25.7685 85.6521 26.1171C85.7392 26.5528 86.3493 26.7271 86.785 26.5528C87.2207 26.3785 87.4821 26.0299 87.8307 25.6813C88.9636 24.3741 91.6652 21.7598 91.7523 21.8469Z" fill="#BC7D45"/>
<path d="M125.653 70.9093C117.2 68.905 107.266 70.9965 99.5968 75.0923C93.2352 78.491 86.7864 82.7612 83.6491 89.2971C81.6448 93.5673 81.209 98.6217 82.5162 103.153C83.8234 107.685 86.6992 110.561 90.708 113.001C95.6753 116.138 101.95 116.835 107.701 115.877C113.54 114.918 119.118 113.698 124.259 110.909C129.139 108.295 133.409 104.286 136.808 99.8418C140.468 95.0488 140.904 92.3472 142.56 86.5085C142.821 85.4627 144.216 82.674 143.867 81.7154C143.518 80.7568 141.775 79.2754 140.381 78.491C137.331 77.0096 132.451 72.5651 125.653 70.9093Z" fill="#F8E4B2"/>
<path d="M140.469 82.8485C135.763 83.2842 131.145 84.0685 126.7 85.2886C122.169 86.5086 117.811 87.9901 113.541 89.8201C109.271 91.6502 105.175 93.916 100.992 95.8332C96.8091 97.8376 92.6261 99.9291 88.3559 101.933L88.1816 101.672C89.9246 100.103 91.8418 98.6219 93.759 97.2275C95.6762 95.8332 97.6805 94.6132 99.772 93.4803C103.868 91.1273 108.399 89.4716 112.844 87.8158C117.288 86.2472 121.907 84.94 126.526 83.9814C131.145 83.1099 135.938 82.587 140.643 82.587L140.469 82.8485Z" fill="#E6BE92"/>
</g>
<defs>
<filter id="filter0_d_1019_9435" x="0.921875" y="0.913208" width="151" height="126.362" filterUnits="userSpaceOnUse" color-interpolation-filters="sRGB">
<feFlood flood-opacity="0" result="BackgroundImageFix"/>
<feColorMatrix in="SourceAlpha" type="matrix" values="0 0 0 0 0 0 0 0 0 0 0 0 0 0 0 0 0 0 127 0" result="hardAlpha"/>
<feOffset dy="3"/>
<feGaussianBlur stdDeviation="4"/>
<feColorMatrix type="matrix" values="0 0 0 0 0 0 0 0 0 0 0 0 0 0 0 0 0 0 0.2 0"/>
<feBlend mode="normal" in2="BackgroundImageFix" result="effect1_dropShadow_1019_9435"/>
<feBlend mode="normal" in="SourceGraphic" in2="effect1_dropShadow_1019_9435" result="shape"/>
</filter>
</defs>
</svg>
