<svg width="101" height="137" viewBox="0 0 101 137" fill="none" xmlns="http://www.w3.org/2000/svg">
<g filter="url(#filter0_d_1236_1323)">
<path d="M66.5309 83.0818C66.4202 78.7162 68.4472 73.93 71.2586 70.5171C73.6018 67.694 76.3746 64.8878 79.9682 64.0348C82.3049 63.4589 84.8361 63.788 87.0035 64.8817C89.1709 65.9754 90.215 67.7222 91.0676 70.003C92.1072 72.8104 91.7904 75.9725 90.7843 78.7441C89.7029 81.5425 88.5439 84.2414 86.5936 86.5013C84.7671 88.6326 82.3774 90.3709 79.8006 91.5828C77.025 92.95 75.6344 92.8509 72.5841 93.0874C72.0551 93.1482 70.4973 93.5322 70.0629 93.263C69.6284 92.9938 69.0529 91.9699 68.8609 91.191C68.3241 89.5604 66.6001 86.615 66.5309 83.0818Z" fill="#8C88C1"/>
<path d="M67.0599 83.0206C67.1061 76.3544 71.3843 69.2014 77.1757 65.8312C80.8951 63.6628 86.2241 63.7605 88.9967 67.3923C91.4827 70.5753 91.4915 74.8923 90.1751 78.579C87.8768 84.9863 83.0256 91.2415 75.8259 92.3166C74.6175 92.4918 73.4309 92.4898 72.1957 92.5897C70.5577 92.748 69.9194 92.3818 69.1811 90.7804C68.0737 88.3784 67.238 85.668 67.0599 83.0206C67.0208 82.3144 65.9119 82.4119 65.9509 83.118C66.1364 86.1441 67.1983 90.0871 68.8396 92.6807C69.4636 93.6026 69.8981 93.8718 70.9585 93.8763C72.6742 93.8174 74.5888 93.6032 76.2752 93.343C84.5037 91.9448 90.8321 83.767 92.0403 75.841C93.2024 68.1431 86.9294 61.0957 78.9538 63.8018C71.4537 66.2967 65.9799 75.5686 65.9267 83.169C65.99 83.8242 67.0747 83.7777 67.0599 83.0206Z" fill="#505097"/>
<path d="M70.8141 91.6825C71.2986 89.3503 72.0355 87.0131 72.9521 84.8239C73.9438 82.608 75.0133 80.4915 76.3108 78.4211C77.5841 76.4016 78.8817 74.3312 80.4876 72.5325C82.0934 70.7337 83.7769 69.0344 85.7688 67.6068L85.8465 67.7063C84.4202 69.653 82.9163 71.5003 81.5144 73.396C80.1124 75.2917 78.5575 77.1147 77.2065 79.0347C75.8555 80.9547 74.6841 83.0227 73.6147 85.1391C72.5452 87.2556 71.6797 89.469 70.967 91.7552L70.8141 91.6825Z" fill="#505097"/>
</g>
<g filter="url(#filter1_d_1236_1323)">
<path d="M28.3336 122.663C24.4418 120.682 21.1978 116.621 19.5349 112.524C18.1678 109.119 17.02 105.345 17.9807 101.779C18.5867 99.4494 20.0812 97.3802 22.0748 95.9948C24.0685 94.6095 26.1017 94.5229 28.5133 94.859C31.4771 95.2813 34.107 97.0653 36.0654 99.2695C38.0115 101.553 39.8332 103.857 40.8921 106.648C41.8968 109.269 42.2878 112.198 42.1268 115.041C42.0077 118.133 41.2586 119.308 40.0144 122.103C39.816 122.597 39.4121 124.15 38.9685 124.404C38.5249 124.658 37.3505 124.677 36.5741 124.475C34.8846 124.171 31.4737 124.284 28.3336 122.663Z" fill="#8C88C1"/>
<path d="M28.5317 122.169C22.6914 118.955 18.4378 111.787 18.2311 105.089C18.0949 100.786 20.7178 96.1464 25.2316 95.4372C29.2142 94.7663 33.0149 96.8138 35.6302 99.7266C40.1707 104.798 43.3621 112.042 40.88 118.885C40.4587 120.032 39.892 121.074 39.3918 122.208C38.7512 123.724 38.1253 124.111 36.3656 123.998C33.726 123.828 30.9446 123.273 28.5317 122.169C27.8921 121.867 27.4498 122.889 28.0894 123.19C30.8388 124.468 34.8118 125.411 37.8741 125.203C38.9819 125.093 39.4254 124.839 39.9342 123.908C40.6993 122.372 41.4224 120.586 41.9964 118.979C44.6842 111.077 40.5054 101.619 34.1104 96.7829C27.8941 92.0961 18.7102 94.2576 17.2929 102.56C15.9163 110.343 21.4641 119.571 28.1227 123.236C28.729 123.492 29.2045 122.516 28.5317 122.169Z" fill="#505097"/>
</g>
<g filter="url(#filter2_d_1236_1323)">
<path d="M80.3866 40.2168C80.562 45.2731 77.3332 49.9618 72.9961 52.4788C68.659 54.9959 63.404 55.6144 58.4304 55.326C54.8213 55.1013 51.1583 54.5082 47.6364 55.1366C43.9779 55.8603 40.6718 57.9629 36.98 58.202C32.019 58.5141 27.4525 55.6062 23.8217 52.1474C20.191 48.6885 17.1481 44.6165 13.0248 41.9073C11.1506 40.6759 8.94915 39.2664 8.97337 37.1172C9.01019 35.5684 10.2542 34.2946 11.3886 33.3004C14.7442 30.2494 18.168 27.1509 22.1429 24.988C26.1178 22.8252 30.8756 21.6394 35.2884 22.7252C37.8664 23.3642 40.2521 24.7467 42.8509 25.2698C45.9134 25.8756 49.1827 25.3218 52.2408 24.6107C58.2885 23.2361 64.8828 21.4804 70.5963 23.9945C75.5457 26.4322 80.2112 35.1605 80.3866 40.2168Z" fill="#505097"/>
<path d="M75.1552 43.0526C75.0186 43.1479 74.766 43.2225 74.6024 43.1335C74.4388 43.0445 74.4118 42.8602 74.4325 42.7443C74.3992 42.2598 74.3866 41.6593 74.3533 41.1748C74.374 41.0588 74.347 40.8746 74.4837 40.7793C74.641 40.568 74.8729 40.6094 75.1048 40.6507C75.9165 40.7954 78.1071 40.5877 77.8465 41.3788C77.6478 41.8219 75.975 42.4809 75.1552 43.0526Z" fill="#8C88C1"/>
<path d="M25.9756 50.1377C26.2076 50.179 26.4395 50.2203 26.4665 50.4046C26.4934 50.5889 26.3568 50.6842 26.2678 50.8478C25.9532 51.2703 25.5226 51.6721 25.208 52.0946C25.0714 52.1899 24.9824 52.3535 24.8665 52.3328C24.6822 52.3598 24.4709 52.2025 24.328 51.9975C23.8516 51.3144 20.8213 47.8429 21.5521 47.4348C21.962 47.1489 25.048 49.9723 25.9756 50.1377Z" fill="#8C88C1"/>
<path d="M71.5651 44.7455C72.2896 44.0371 71.316 42.7868 71.2495 41.8178C71.2432 41.5175 71.121 41.1966 70.9097 41.0393C70.6985 40.882 70.3776 41.0043 70.125 41.0789C69.6198 41.2281 69.0939 41.4933 68.5888 41.6425C68.1995 41.8125 67.742 42.03 67.4957 42.4048C67.0238 43.0386 67.2746 43.9806 67.5668 44.6908C67.6414 44.9433 67.832 45.2166 68.0639 45.2579C68.2275 45.3469 68.3641 45.2516 68.5484 45.2247C69.3062 45.0008 70.1799 44.7977 70.9376 44.5738C70.917 44.6898 71.4285 44.8408 71.5651 44.7455Z" fill="#8C88C1"/>
<path d="M65.6399 45.4238C65.2587 44.8773 65.3144 44.2292 65.1859 43.608C65.1256 42.9393 64.9495 42.2498 64.3427 41.9622C63.9678 41.7159 63.4833 41.7492 63.1148 41.8031C61.7772 41.9236 60.4873 42.1124 59.1767 42.4171C58.4873 42.5933 57.7295 42.8172 57.3259 43.4033C57.0113 43.8258 56.9556 44.4739 57.0841 45.095C57.2127 45.7161 57.4779 46.242 57.6748 46.8155C60.002 46.5125 62.2816 46.1412 64.6089 45.8382L65.6399 45.4238Z" fill="#8C88C1"/>
<path d="M63.5305 49.5355C63.1619 49.5894 62.9156 49.9643 63.0379 50.2852C63.2078 50.6744 63.4253 51.1319 63.5952 51.5212C63.6905 51.6578 63.7651 51.9104 63.997 51.9517C64.2289 51.9931 64.4815 51.9184 64.6865 51.7755C65.0964 51.4897 65.6905 51.1768 65.8415 50.6653C65.9719 50.2698 65.8703 49.833 65.7687 49.3961C65.6941 49.1435 65.6671 48.9593 65.4559 48.8019C65.197 48.5763 64.8078 48.7462 64.5345 48.9368C64.077 49.1543 63.8514 49.4132 63.5305 49.5355Z" fill="#8C88C1"/>
<path d="M54.8569 46.8516C55.505 46.9073 56.0246 46.3419 55.896 45.7208C55.7198 45.0313 55.496 44.2736 55.3198 43.5841C55.1975 43.2632 55.0753 42.9423 54.864 42.785C54.5368 42.607 54.0316 42.7562 53.6424 42.9261C52.864 43.2659 51.9013 43.6327 51.5246 44.4031C51.1687 45.0575 51.2766 45.7946 51.3368 46.4634C51.3908 46.8319 51.4447 47.2005 51.7513 47.4944C52.1054 47.8566 52.8425 47.7488 53.3001 47.5312C53.7576 47.3137 54.2358 46.9802 54.8569 46.8516Z" fill="#8C88C1"/>
<path d="M49.184 48.4726C49.7926 47.7435 49.4465 46.6649 49.3116 45.7435C49.2577 45.375 48.8828 45.1287 48.5143 45.1826C47.5246 45.3651 46.6302 45.6842 45.8311 46.14C45.4419 46.3099 45.032 46.5957 44.8333 47.0389C44.703 47.4344 44.8729 47.8237 45.0428 48.2129C45.2603 48.6704 45.4572 49.2439 45.948 49.5109C46.3912 49.7095 46.828 49.6079 47.2173 49.438C47.6065 49.2681 49.0267 48.6838 49.184 48.4726Z" fill="#8C88C1"/>
<path d="M20.7912 40.9586C21.5966 40.8031 21.8366 40.128 22.2402 39.5419C22.4865 39.1671 22.269 38.7095 21.8734 38.5792C21.0141 38.3662 20.134 38.2691 19.254 38.1721C18.8378 38.1577 18.3533 38.1909 17.9641 38.3608C17.6225 38.5991 17.5129 38.8786 17.4715 39.1105C17.3412 39.5061 17.2792 39.8539 17.565 40.2638C17.7556 40.5371 18.2671 40.6881 18.6833 40.7025C19.0788 40.8328 20.6069 40.9856 20.7912 40.9586Z" fill="#8C88C1"/>
<path d="M42.826 50.57C42.9644 49.4581 42.9662 48.4414 42.9204 47.3564C42.8394 46.8036 42.2327 46.516 41.7545 46.8495C40.5724 47.7754 39.0839 48.4073 37.6097 48.6231C37.1728 48.7247 36.5517 48.8533 36.4214 49.2488C36.291 49.6443 36.7612 50.0272 37.136 50.2735C38.2336 50.8281 40.7577 51.0986 41.9856 51.2577C42.4018 51.2721 42.8117 50.9862 42.826 50.57Z" fill="#8C88C1"/>
<path d="M15.6219 40.0972C15.63 39.3808 15.6381 38.6644 15.5302 37.9273C15.4762 37.5587 15.0331 37.3601 14.7598 37.5506C14.056 38.143 13.1616 38.4622 12.2402 38.597C11.94 38.6033 11.6191 38.7256 11.5094 39.0051C11.3998 39.2847 11.7063 39.5786 11.9858 39.6883C12.6879 40.1126 14.2637 40.3336 15.0754 40.4784C15.3549 40.588 15.6282 40.3974 15.6219 40.0972Z" fill="#8C88C1"/>
<path d="M34.1401 50.6362C34.4484 49.9135 34.6408 49.1701 34.7172 48.406C34.7999 47.9422 34.4457 47.5799 34.0025 47.3813C32.7953 47.1063 31.4577 47.2267 30.406 47.7571C30.2694 47.8524 30.0168 47.927 29.9755 48.1589C29.9341 48.3908 30.0771 48.5958 30.22 48.8007C31.0236 49.6619 32.1005 50.3324 33.3078 50.6074C33.4237 50.6281 33.5397 50.6488 33.6556 50.6695L34.1401 50.6362Z" fill="#8C88C1"/>
<path d="M27.7369 49.3158C26.2024 48.8627 24.9287 47.6187 24.4127 46.1508C24.4127 46.1508 24.365 46.0825 24.3857 45.9665C25.3152 45.1153 26.8685 46.469 28.0757 46.744C28.1917 46.7647 28.4236 46.806 28.4712 46.8743C28.5665 47.011 28.5935 47.1952 28.5045 47.3588C28.4011 47.9386 28.1612 48.6137 27.8259 49.1522" fill="#8C88C1"/>
<path d="M32.4806 55.2464C31.1844 55.135 27.08 53.3265 26.4543 52.1381L26.4067 52.0698C27.0359 51.2248 31.4199 53.143 32.4365 53.1448C32.5525 53.1654 32.6684 53.1861 32.7844 53.2068C32.8797 53.3434 32.859 53.4594 32.9066 53.5277C32.8716 54.0598 32.7889 54.5237 32.6379 55.0351" fill="#8C88C1"/>
<path d="M23.4629 45.0843C23.3532 45.3638 23.2436 45.6434 23.0386 45.7863C22.8813 45.9976 22.5604 46.1198 22.2602 46.1261C22.0283 46.0848 21.7694 45.8592 21.6265 45.6542C21.177 45.1553 20.7482 44.5405 20.2987 44.0416C20.2035 43.905 20.0605 43.7 20.0812 43.5841C20.1225 43.3522 20.4434 43.2299 20.7437 43.2236C21.1599 43.238 21.5077 43.3 21.7873 43.4097C22.5783 43.6703 23.1914 44.2582 23.4629 45.0843Z" fill="#8C88C1"/>
<path d="M17.7704 44.4877C17.1636 44.2001 16.7142 43.7012 16.4013 43.1071C16.0885 42.5129 15.9123 41.8234 16.1316 41.2643L16.1793 41.3326C16.991 41.4773 17.6724 42.0176 18.1011 42.6324C18.5299 43.2472 18.8014 44.0733 19.0253 44.8311C19.0459 44.7151 18.05 44.5974 17.7704 44.4877Z" fill="#8C88C1"/>
<path d="M31.1747 41.4339C31.7339 41.6532 32.0943 42.3157 31.875 42.8748C31.8337 43.1067 31.7923 43.3386 31.635 43.5499C31.4633 44.1773 31.298 45.105 30.7721 45.3702C30.2463 45.6354 29.4283 45.1904 28.9168 45.0394C27.2664 44.5657 25.6573 43.8601 24.3836 42.6161C24.1247 42.3905 23.9341 42.1172 23.7435 41.844C23.6213 41.5231 23.6356 41.1068 23.8613 40.848C24.0869 40.5891 24.4761 40.4192 24.8923 40.4336C25.3085 40.4479 25.6357 40.6259 25.9836 40.6879C27.4497 41.1886 29.0255 41.4097 30.5949 41.3305C30.8269 41.3719 31.0588 41.4132 31.1747 41.4339Z" fill="#8C88C1"/>
<path d="M41.0409 41.4576C41.6414 41.445 42.0639 41.7596 42.2608 42.3331C42.2877 42.5174 42.383 42.654 42.3624 42.7699C42.3956 43.2545 42.2446 43.7659 41.8347 44.0518C41.5615 44.2424 41.2406 44.3646 40.872 44.4186C39.4248 44.8186 37.9776 45.2186 36.4764 45.2501C35.9919 45.2834 35.4598 45.2484 35.0166 45.0497C34.5734 44.8511 34.1509 44.5365 34.0494 44.0996C33.8732 43.4102 34.2974 42.7081 34.7963 42.2587C35.4111 41.8299 36.4548 42.0159 37.1442 41.8397C38.3658 41.6985 40.0036 41.5718 41.0409 41.4576Z" fill="#8C88C1"/>
<path d="M47.388 42.1103L45.9677 42.6946C45.5102 42.9122 44.9717 42.5769 44.9385 42.0924C44.9115 41.9081 44.8369 41.6555 44.8782 41.4236C44.8989 41.3076 44.8512 41.2393 44.8719 41.1234C44.9609 40.9598 45.0975 40.8645 45.2342 40.7692C45.6234 40.5993 45.8967 40.4087 46.2859 40.2388C46.4908 40.0959 46.7434 40.0213 46.907 40.1102C47.0706 40.1992 47.1452 40.4518 47.1039 40.6838C47.0625 40.9157 47.0212 41.1476 47.0958 41.4002L47.388 42.1103Z" fill="#8C88C1"/>
<path d="M54.0263 38.0899C54.2232 38.6634 54.42 39.2369 54.6169 39.8104C54.6439 39.9947 54.7392 40.1313 54.7185 40.2472C54.6295 40.4109 54.4929 40.5061 54.3086 40.5331C53.6192 40.7093 52.9297 40.8855 52.2879 41.13C51.851 41.2316 51.4142 41.3332 50.9297 41.3665C50.4452 41.3997 49.9337 41.2487 49.5795 40.8865C49.273 40.5926 49.0348 40.251 49.0968 39.9031C49.1588 39.5552 49.3368 39.228 49.61 39.0375C50.2455 38.4927 51.1193 38.2895 51.9993 38.3866L54.0263 38.0899Z" fill="#8C88C1"/>
<path d="M69.1752 32.296C69.612 32.1944 69.9869 32.4407 70.0885 32.8776L70.4346 33.9562C70.4615 34.1405 70.5568 34.2771 70.5362 34.3931C70.4472 34.5567 70.3105 34.652 70.1263 34.6789C69.4368 34.8551 68.7474 35.0313 68.1056 35.2759C67.6687 35.3774 67.2318 35.479 66.7473 35.5123C66.2628 35.5456 65.7513 35.3946 65.3972 35.0323C65.0906 34.7384 64.8524 34.3968 64.9144 34.0489C64.9495 33.5168 65.4897 32.8354 65.763 32.6448C66.1935 32.243 68.0012 32.5054 69.1752 32.296Z" fill="#8C88C1"/>
<path d="M65.9344 37.4007C65.8517 37.8646 65.7691 38.3284 65.6864 38.7922C65.6657 38.9082 65.6243 39.1401 65.4877 39.2354C65.2828 39.3783 65.0509 39.337 64.8872 39.248C63.7483 38.9253 62.4378 39.2301 61.2908 39.6238C60.0961 39.9492 58.8125 40.4383 57.6799 40.4158C57.0794 40.4284 56.336 40.2361 56.2075 39.6149C56.1535 39.2464 56.3522 38.8032 56.6938 38.565C56.9877 38.2585 57.3769 38.0886 57.8138 37.987C60.1761 37.1519 62.6939 37.1221 65.0751 37.1877L65.9344 37.4007Z" fill="#8C88C1"/>
<path d="M52.8954 52.4834C52.5682 52.3054 52.3983 51.9162 52.5286 51.5207L52.7003 50.8932C52.721 50.7773 52.81 50.6137 52.9466 50.5184C53.0832 50.4231 53.3152 50.4645 53.4788 50.5534C54.481 50.9714 55.7027 50.8302 56.8083 50.6684C57.9823 50.459 59.1086 50.1812 60.2205 50.3196C60.8003 50.4229 61.4754 50.6629 61.4403 51.1951C61.4466 51.4953 61.2003 51.8701 60.8588 52.1084C60.5172 52.3466 60.0803 52.4482 59.7594 52.5704C57.5751 53.0784 55.3512 52.8015 53.175 52.5931C53.059 52.5724 52.9431 52.5517 52.8954 52.4834Z" fill="#8C88C1"/>
<path d="M75.7971 38.441C73.8051 38.2056 71.6415 38.5975 69.743 39.5153C69.2855 39.7329 68.8279 39.9504 68.3848 39.7518C68.1052 39.6421 67.983 39.3212 67.9083 39.0686C67.8337 38.816 67.9434 38.5365 67.9371 38.2362C67.9721 37.7041 68.1915 37.145 68.6014 36.8591C68.8746 36.6685 69.2908 36.6829 69.6387 36.7449C71.1668 36.8977 72.5583 37.1458 73.9975 37.4621C74.7409 37.6545 75.2793 37.9898 75.7971 38.441Z" fill="#8C88C1"/>
<path d="M75.2382 45.9393C73.5097 47.2463 71.8971 48.574 70.1685 49.8811C69.5537 50.3099 68.8705 50.7863 68.2431 50.6146C67.6156 50.4429 67.3235 49.7328 67.4952 49.1054C67.6668 48.4779 68.1657 48.0285 68.7599 47.7157C69.354 47.4028 69.9752 47.2743 70.644 47.214C72.1865 46.9506 73.0206 45.9627 74.5631 45.6993L75.2382 45.9393Z" fill="#8C88C1"/>
<path d="M43.6414 54.0651C41.7016 55.2148 39.4966 55.8387 37.306 56.0464C36.7055 56.059 36.0367 56.1193 35.5459 55.8523C35.0551 55.5853 34.6263 54.9705 34.8457 54.4114C34.9967 53.8999 35.5908 53.5871 36.1913 53.5745C36.7917 53.5619 37.3032 53.7129 37.8147 53.8639C39.4175 54.2693 41.0615 54.4427 42.7677 54.2683L43.6414 54.0651Z" fill="#8C88C1"/>
<path d="M51.1355 52.2894C51.3881 52.2147 51.4501 51.8669 51.3072 51.6619C51.1643 51.457 50.864 51.4633 50.5638 51.4696C49.7314 51.4408 48.899 51.4121 48.1413 51.6359C47.3835 51.8598 46.5844 52.3155 46.2078 53.0859C47.5597 52.5492 49.0815 52.4018 50.4047 52.6975L51.1355 52.2894Z" fill="#8C88C1"/>
<path d="M76.3206 35.8425C75.8459 34.1427 74.3627 31.7247 72.9523 30.5759C72.5298 30.2613 71.9913 29.9261 71.4385 30.007C70.9333 30.1562 70.5028 30.558 70.4677 31.0902C70.3851 31.554 70.5819 32.1275 70.9568 32.3738C71.3109 32.736 71.8224 32.887 72.2656 33.0857C73.4521 33.4767 76.3206 35.8425 76.3206 35.8425Z" fill="#8C88C1"/>
<path d="M63.2785 33.1583C63.4898 33.3156 63.4278 33.6635 63.3181 33.9431C63.2084 34.2227 63.5483 35.0011 63.2273 35.1234C62.8858 35.3616 62.1361 34.869 61.7199 34.8546C60.5873 34.8322 59.345 35.0893 58.198 35.483C57.6245 35.6799 56.9144 35.9721 56.5602 35.6098C56.2537 35.3159 56.0981 34.5105 56.5764 34.177C57.0546 33.8435 58.0029 33.8929 58.5081 33.7437C59.682 33.5342 60.8083 33.2564 61.9823 33.0469C62.0983 33.0676 63.0673 33.001 63.2785 33.1583Z" fill="#8C88C1"/>
<path d="M53.9865 33.9547C54.3137 34.1327 54.347 34.6172 54.4692 34.9381C54.5915 35.259 54.6247 35.7435 54.4468 36.0707C54.2688 36.3979 53.9479 36.5202 53.5793 36.5741C52.5007 36.9202 51.395 37.082 50.2624 37.0596C50.1464 37.0389 49.9622 37.0659 49.8669 36.9293C49.7033 36.8403 49.6763 36.656 49.7653 36.4924C49.8543 36.3288 49.9433 36.1652 50.0323 36.0016C50.7298 35.109 51.6592 34.2577 52.7379 33.9116C53.0381 33.9053 53.7752 33.7974 53.9865 33.9547Z" fill="#8C88C1"/>
<path d="M46.6307 35.9348C47.1009 36.3177 47.1881 37.1707 46.8528 37.7092C46.5175 38.2476 45.8074 38.5398 45.1386 38.6001C44.8384 38.6064 44.4698 38.6603 44.2793 38.387C44.1363 38.1821 44.1094 37.9978 44.0347 37.7452C43.9808 37.3767 43.9269 37.0081 44.0842 36.7969C44.2415 36.5856 44.4464 36.4427 44.699 36.3681C44.9516 36.2935 45.2518 36.2872 45.4837 36.3285L46.6307 35.9348Z" fill="#8C88C1"/>
<path d="M40.7819 37.8821C41.0534 38.7082 40.6354 39.7105 39.7886 40.0979C39.1945 40.4108 38.5464 40.355 37.8983 40.2993C37.2501 40.2436 36.5337 40.2355 35.8856 40.1798C35.7013 40.2068 35.5377 40.1178 35.4218 40.0971C35.0946 39.9192 35.0613 39.4347 35.3552 39.1281C35.6492 38.8216 35.9701 38.6993 36.291 38.5771C36.6595 38.5231 37.0281 38.4692 37.349 38.3469C37.6699 38.2247 37.9432 38.0341 38.2164 37.8435C38.4897 37.653 39.767 36.8637 40.0672 36.8574C40.4358 36.8034 40.7819 37.8821 40.7819 37.8821Z" fill="#8C88C1"/>
<path d="M32.487 37.7793C32.7315 38.4211 32.4232 39.1438 31.6654 39.3677C31.1603 39.5169 30.6344 39.7821 30.1023 39.747C29.6177 39.7803 29.1746 39.5817 28.7314 39.383C27.8451 38.9857 26.9588 38.5884 26.1408 38.1435C25.9295 37.9862 25.65 37.8765 25.507 37.6716C25.3641 37.4666 25.2895 37.214 25.4468 37.0028C25.6724 36.7439 26.0886 36.7583 26.3888 36.752C28.1489 36.9461 29.9566 37.2085 31.7166 37.4027C31.9485 37.444 32.1805 37.4854 32.2757 37.622C32.46 37.595 32.5077 37.6633 32.487 37.7793Z" fill="#8C88C1"/>
<path d="M68.3697 30.1177C66.3589 28.9816 63.7997 29.2432 61.5264 29.9147C61.0212 30.064 59.4643 30.7436 59.0419 30.429C58.551 30.162 58.8404 28.5386 59.1757 28.0001C59.511 27.4617 60.5277 27.4635 61.1488 27.3349C61.7699 27.2064 62.3497 27.3097 62.9295 27.4131C64.9008 27.7645 66.8515 28.2319 68.3778 29.4013L68.3697 30.1177Z" fill="#8C88C1"/>
<path d="M56.0823 28.227C56.2666 28.2 56.4778 28.3573 56.5048 28.5416C56.4967 29.258 57.0684 30.0778 56.7331 30.6163C56.5552 30.9435 56.2343 31.0657 55.9133 31.188C54.8347 31.5341 53.8037 31.9485 52.6567 32.3423C52.3358 32.4645 51.9465 32.6344 51.6193 32.4564C51.2238 32.3261 50.938 31.9162 50.7204 31.4587C50.5982 31.1378 50.4076 30.8645 50.4696 30.5166C50.5523 30.0528 50.9415 29.8829 51.3307 29.713C52.3824 29.1826 54.956 28.5048 56.0823 28.227Z" fill="#8C88C1"/>
<path d="M44.4207 31.8907C45.2261 31.7351 45.8886 31.3746 46.667 31.0348C46.9879 30.9126 47.3088 30.7903 47.6774 30.7364C48.0459 30.6825 48.3731 30.8604 48.5637 31.1337C48.8019 31.4753 48.6032 31.9184 48.4729 32.3139C48.1853 32.9207 47.9453 33.5958 47.3988 33.9769C46.9889 34.2628 46.4837 34.412 45.9309 34.4929C45.1938 34.6008 44.409 34.6404 43.6243 34.6799C43.2081 34.6656 42.7236 34.6989 42.3488 34.4526C41.858 34.1856 41.5928 33.6598 41.3276 33.1339C41.253 32.8813 41.1577 32.7447 41.199 32.5128C41.2404 32.2809 41.3977 32.0696 41.6979 32.0633C41.6503 31.995 43.6836 31.9985 44.4207 31.8907Z" fill="#8C88C1"/>
<path d="M38.6555 33.3746C38.5251 33.7702 38.0469 34.1037 37.6101 34.2053C37.1732 34.3068 36.8253 34.2448 36.4091 34.2304C35.2972 34.092 34.2329 34.0219 33.0526 33.9312C32.7524 33.9375 32.4045 33.8755 32.1249 33.7658C31.8454 33.6562 31.6341 33.4989 31.5595 33.2463C31.4849 32.9937 31.5946 32.7141 31.8202 32.4552C32.0458 32.1963 32.3191 32.0058 32.5923 31.8152C33.6647 31.1689 34.9483 30.6798 36.1906 30.4227C36.8117 30.2942 37.4122 30.2815 37.903 30.5485C38.4415 30.8838 38.8334 33.0474 38.6555 33.3746Z" fill="#8C88C1"/>
<path d="M29.2809 31.5851C29.5461 32.111 29.627 32.6638 29.6396 33.2643C29.6189 33.3802 29.6459 33.5645 29.5092 33.6598C29.4203 33.8234 29.1677 33.898 28.9834 33.925C28.6625 34.0472 28.3623 34.0535 28.0414 34.1758C27.8571 34.2028 27.6728 34.2297 27.5568 34.209C27.3932 34.1201 27.3663 33.9358 27.3393 33.7515C27.2584 33.1987 27.1775 32.6459 27.0966 32.093C27.1172 31.9771 27.0903 31.7928 27.2269 31.6975C27.2952 31.6499 27.4318 31.5546 27.5478 31.5753C28.1006 31.4944 28.5851 31.4611 29.0903 31.3119L29.2809 31.5851Z" fill="#8C88C1"/>
<path d="M24.7348 33.9451C22.7967 34.0782 22.279 33.627 18.7634 34.5556C18.5108 34.6302 18.3202 34.357 18.5252 34.214C19.8105 32.7083 21.736 31.9748 23.4232 30.8997C23.5598 30.8044 23.6964 30.7091 23.8807 30.6821C24.1809 30.6758 24.3509 31.065 24.4255 31.3176C24.4524 31.5019 24.9891 32.8538 25.1383 33.359C25.2606 33.6799 25.035 33.9388 24.7348 33.9451Z" fill="#8C88C1"/>
<path d="M16.0627 33.5947C15.5971 34.5287 14.8519 35.353 13.9162 35.904C13.6429 36.0946 13.322 36.2169 13.1108 36.0596C12.7836 35.8816 12.7503 35.3971 12.9283 35.0699C13.1062 34.7427 13.4002 34.4361 13.5782 34.1089C13.7768 33.6658 13.8595 33.2019 14.2217 32.8478C14.495 32.6572 14.7476 32.5826 15.0955 32.6446C15.375 32.7543 15.5863 32.9116 15.7085 33.2325L16.0627 33.5947Z" fill="#8C88C1"/>
<path d="M24.5331 27.6871C24.5871 28.0556 24.4091 28.3828 24.0406 28.4368C22.2724 28.9591 20.6059 29.9182 19.1776 31.219C18.8153 31.5732 18.4531 31.9273 17.9892 31.8446C17.5731 31.8303 17.2665 31.5363 17.1649 31.0995C17.0157 30.5943 17.1874 29.9668 17.502 29.5444C17.8166 29.1219 18.2472 28.7201 18.773 28.4549C20.3443 27.3591 22.0854 26.6525 23.9012 26.1985C23.9695 26.1509 24.0855 26.1715 24.2014 26.1922C24.2491 26.2605 24.2967 26.3288 24.2284 26.3765C24.2347 26.6767 24.3839 27.1819 24.5331 27.6871Z" fill="#8C88C1"/>
<path d="M37.497 27.7857C37.2255 26.9597 36.5648 26.3035 35.7944 25.9269C35.0241 25.5502 34.1647 25.3372 33.237 25.1718C32.0091 25.0128 30.5763 24.9966 29.4356 25.6906C29.094 25.9288 28.7525 26.167 28.6221 26.5626C28.4918 26.9581 28.5934 27.3949 28.9206 27.5729C29.1318 27.7302 29.4321 27.7239 29.664 27.7653C31.9292 27.8101 34.2628 27.8074 36.5756 27.9206L37.497 27.7857Z" fill="#8C88C1"/>
<path d="M43.7128 27.8161C44.0337 27.6939 44.3609 27.8719 44.4832 28.1928L44.6324 28.6979C44.6801 28.7663 44.7071 28.9505 44.6864 29.0665C44.5974 29.2301 44.4608 29.3254 44.2082 29.4C43.6347 29.5969 43.0405 29.9097 42.44 29.9223C41.8396 29.9349 41.1438 29.8108 40.831 29.2167C40.6881 29.0117 40.6135 28.7592 40.7231 28.4796C40.8804 28.2683 41.249 28.2144 41.6175 28.1605C41.9178 28.1542 43.0234 27.9923 43.7128 27.8161Z" fill="#8C88C1"/>
<path d="M50.7024 26.1911C50.8516 26.6962 50.9326 27.2491 50.618 27.6716C50.529 27.8352 50.324 27.9781 50.1874 28.0734C49.6409 28.4545 49.026 28.8833 48.4795 29.2644C48.2746 29.4074 48.0696 29.5503 47.7694 29.5566C47.4008 29.6106 47.1626 29.269 46.9721 28.9957C46.7338 28.6541 46.6799 28.2856 46.6943 27.8694C46.7086 27.4532 46.7769 27.4056 47.1185 27.1673C47.4601 26.9291 48.1226 26.5687 48.5864 26.6513C49.0026 26.6657 49.4665 26.7484 49.9033 26.6468L50.7024 26.1911Z" fill="#8C88C1"/>
<path d="M59.3087 25.5719C59.3294 25.4559 59.4183 25.2923 59.3231 25.1557C59.2754 25.0874 59.2278 25.019 59.1801 24.9507C58.8053 24.7044 58.3621 24.5058 57.8983 24.4231C56.0906 24.1607 54.5813 24.9086 53.1404 25.6089C52.9355 25.7518 52.8258 26.0314 52.9004 26.2839L53.2402 27.0624C53.3148 27.315 53.5944 27.4246 53.847 27.35C55.2942 26.95 56.7891 26.6182 58.2426 26.5184C58.5428 26.5121 58.8161 26.3216 58.9734 26.1103C59.1307 25.8991 59.288 25.6878 59.3087 25.5719Z" fill="#8C88C1"/>
<path d="M67.12 26.7252C67.2979 26.398 64.9932 25.5684 63.8956 25.0138C63.732 24.9248 63.5684 24.8358 63.3841 24.8628C63.1998 24.8897 63.0155 24.9167 62.8789 25.012C62.7216 25.2232 62.7756 25.5918 62.9868 25.7491C63.198 25.9064 63.5459 25.9684 63.7778 26.0098C64.8421 26.0799 67.1883 26.6776 67.12 26.7252Z" fill="#8C88C1"/>
</g>
<defs>
<filter id="filter0_d_1236_1323" x="57.9258" y="58.2117" width="42.2539" height="46.6646" filterUnits="userSpaceOnUse" color-interpolation-filters="sRGB">
<feFlood flood-opacity="0" result="BackgroundImageFix"/>
<feColorMatrix in="SourceAlpha" type="matrix" values="0 0 0 0 0 0 0 0 0 0 0 0 0 0 0 0 0 0 127 0" result="hardAlpha"/>
<feOffset dy="3"/>
<feGaussianBlur stdDeviation="4"/>
<feColorMatrix type="matrix" values="0 0 0 0 0 0 0 0 0 0 0 0 0 0 0 0 0 0 0.2 0"/>
<feBlend mode="normal" in2="BackgroundImageFix" result="effect1_dropShadow_1236_1323"/>
<feBlend mode="normal" in="SourceGraphic" in2="effect1_dropShadow_1236_1323" result="shape"/>
</filter>
<filter id="filter1_d_1236_1323" x="9.08203" y="89.3481" width="41.7422" height="46.8834" filterUnits="userSpaceOnUse" color-interpolation-filters="sRGB">
<feFlood flood-opacity="0" result="BackgroundImageFix"/>
<feColorMatrix in="SourceAlpha" type="matrix" values="0 0 0 0 0 0 0 0 0 0 0 0 0 0 0 0 0 0 127 0" result="hardAlpha"/>
<feOffset dy="3"/>
<feGaussianBlur stdDeviation="4"/>
<feColorMatrix type="matrix" values="0 0 0 0 0 0 0 0 0 0 0 0 0 0 0 0 0 0 0.2 0"/>
<feBlend mode="normal" in2="BackgroundImageFix" result="effect1_dropShadow_1236_1323"/>
<feBlend mode="normal" in="SourceGraphic" in2="effect1_dropShadow_1236_1323" result="shape"/>
</filter>
<filter id="filter2_d_1236_1323" x="0.972656" y="17.3162" width="87.4199" height="51.9089" filterUnits="userSpaceOnUse" color-interpolation-filters="sRGB">
<feFlood flood-opacity="0" result="BackgroundImageFix"/>
<feColorMatrix in="SourceAlpha" type="matrix" values="0 0 0 0 0 0 0 0 0 0 0 0 0 0 0 0 0 0 127 0" result="hardAlpha"/>
<feOffset dy="3"/>
<feGaussianBlur stdDeviation="4"/>
<feColorMatrix type="matrix" values="0 0 0 0 0 0 0 0 0 0 0 0 0 0 0 0 0 0 0.2 0"/>
<feBlend mode="normal" in2="BackgroundImageFix" result="effect1_dropShadow_1236_1323"/>
<feBlend mode="normal" in="SourceGraphic" in2="effect1_dropShadow_1236_1323" result="shape"/>
</filter>
</defs>
</svg>
