<svg width="131" height="219" viewBox="0 0 131 219" fill="none" xmlns="http://www.w3.org/2000/svg">
<path d="M77.5375 160.546C70.5785 158.79 63.5269 163.022 61.7872 169.998C60.0475 176.974 64.2786 184.052 71.2376 185.807C78.1965 187.563 85.2482 183.331 86.9879 176.355C88.7275 169.379 84.4965 162.301 77.5375 160.546Z" fill="#22A529"/>
<path d="M65.4852 167.704C68.5522 162.727 74.9351 161.202 79.9081 164.287C84.8812 167.373 86.4184 173.774 83.3514 178.752C80.2845 183.729 73.9016 185.255 68.9285 182.169C63.9554 179.083 62.4183 172.682 65.4852 167.704Z" stroke="#77CA00" stroke-width="1.4754" stroke-linecap="round" stroke-linejoin="round"/>
<path d="M69.8841 168.554C72.4201 166.057 76.5121 166.044 79.0911 168.613C81.5883 171.16 81.6105 175.262 79.054 177.841C76.518 180.338 72.426 180.35 69.847 177.782C67.268 175.213 67.3276 171.132 69.8841 168.554Z" stroke="#77CA00" stroke-width="1.4754" stroke-linecap="round" stroke-linejoin="round"/>
<path d="M72.0322 171.798C72.7886 170.508 74.548 170.08 75.8169 170.924C77.1062 171.685 77.5366 173.449 76.6983 174.719C75.8599 175.989 74.1824 176.437 72.9135 175.594C71.6446 174.75 71.2757 173.089 72.0322 171.798Z" stroke="#77CA00" stroke-width="1.4754" stroke-linecap="round" stroke-linejoin="round"/>
<g filter="url(#filter0_d_1233_1307)">
<path d="M69.5204 93.3139C72.7443 111.706 77.0194 123.679 88.7809 137.914C87.1365 138.995 84.2499 139.26 83.2189 137.53C71.4553 118.269 69.0468 108.897 68.3583 92.7569L69.5204 93.3139Z" fill="#147A33"/>
<path d="M89.4235 129.361C77.8664 116.206 90.4163 99.0453 103.832 95.6256C105.268 95.2469 106.85 96.0255 107.483 97.3843C113.509 110.006 109.73 129.728 92.107 130.502C91.1259 130.526 90.0694 130.078 89.4235 129.361Z" fill="#147A33"/>
<path d="M69.6773 127.942C60.374 140.759 42.8511 132.728 37.29 121.379C36.6974 120.15 37.0703 118.618 38.1533 117.784C48.0335 110.022 66.0914 109.749 70.1367 125.322C70.4163 126.225 70.2255 127.204 69.6773 127.942Z" fill="#147A33"/>
<path d="M78.006 125.916C75.0705 126.693 71.8955 126.696 68.9023 126.147C67.0984 125.792 65.1903 125.328 63.6327 124.401C62.6853 123.849 61.9508 125.352 62.8783 125.84C64.6688 126.835 66.7656 127.453 68.7625 127.747C71.9886 128.365 75.3567 128.301 78.5496 127.443C79.5348 127.206 79.0555 125.658 78.006 125.916Z" fill="#147A33"/>
<path d="M54.8716 44.2677C54.8716 44.2677 50.5369 31.1828 40.4613 22.3717C38.7225 20.8629 38.9024 19.3908 36.7083 18.2367C34.181 16.6914 33.0236 34.397 47.9204 48.2831L54.8716 44.2677Z" fill="#ED9C00"/>
<path d="M55.2775 44.2117C55.2775 44.2117 52.6839 29.4495 41.7312 22.8242C39.1196 21.2345 37.5762 18.5318 37.0699 18.2655C34.6515 16.6153 33.4941 34.3209 48.3264 48.227L55.2775 44.2117Z" fill="#FED700"/>
<path d="M48.5247 42.9292C48.6291 43.0381 48.7625 42.784 48.6781 42.7397C46.8716 40.3316 45.343 37.9075 44.0567 35.1243C43.9968 34.9307 43.7544 35.2897 43.7944 35.4187C44.9718 38.3067 46.6093 40.626 48.5247 42.9292Z" fill="#F6BC00"/>
<path d="M62.9112 43.5983C62.9112 43.5983 67.3599 25.5709 56.5094 11.9763C54.8128 9.46316 46.631 25.473 54.832 44.4271L62.9112 43.5983Z" fill="#ED9C00"/>
<path d="M63.38 43.5224C63.38 43.5224 67.8286 25.495 56.9782 11.9003C55.2815 9.38723 47.0998 25.3971 55.3007 44.3512L63.38 43.5224Z" fill="#FED700"/>
<path d="M58.4802 24.9525C59.9312 30.092 60.8907 35.2435 60.9276 40.6128C60.9476 40.6773 61.141 40.6169 61.121 40.5523C61.2976 35.1871 60.447 29.9306 58.7382 24.8718C58.6782 24.6782 58.4402 24.8234 58.4802 24.9525Z" fill="#F6BC00"/>
<path d="M70.1092 46.5894C70.1092 46.5894 77.3657 34.9063 77.75 21.5522C77.8189 19.2661 79.0508 18.4559 78.5048 16.0083C78.1608 13.0729 63.8346 23.3592 62.6444 43.6885L70.1092 46.5894Z" fill="#ED9C00"/>
<path d="M70.4666 46.8318C70.4666 46.8318 80.167 35.5162 78.2783 22.8027C77.83 19.7584 78.9777 16.8516 78.8623 16.2508C78.5183 13.3153 64.192 23.6016 63.0018 43.9309L70.4666 46.8318Z" fill="#FED700"/>
<path d="M67.1231 40.8011C67.0987 40.9502 67.3562 40.8697 67.4005 40.785C68.102 37.8057 68.9677 35.1288 70.304 32.3754C70.3927 32.2061 69.9666 32.198 69.8778 32.3673C68.4572 35.0763 67.6958 37.8621 67.1231 40.8011Z" fill="#F6BC00"/>
<path d="M76.1252 51.6521C76.1252 51.6521 91.7146 42.9533 94.0229 26.242C94.6998 23.4125 78.0009 28.0721 70.1381 46.4508L76.1252 51.6521Z" fill="#ED9C00"/>
<path d="M76.1994 52.1242C76.1994 52.1242 91.7888 43.4255 94.0971 26.7142C94.774 23.8847 78.0751 28.5443 70.2124 46.923L76.1994 52.1242Z" fill="#FED700"/>
<path d="M74.1188 44.4936C74.0744 44.5782 74.2231 44.6024 74.2675 44.5178C75.6558 42.3861 77.0884 40.1698 78.6653 38.1912C80.5041 35.9184 82.74 34.0161 84.7874 31.9608C84.8962 31.856 84.5789 31.7433 84.4701 31.8481C80.2557 35.5719 76.8891 39.5252 74.1188 44.4936Z" fill="#F6BC00"/>
<path d="M79.3191 58.3048C79.3191 58.3048 91.8747 53.9521 100.306 44.0297C101.748 42.3054 103.15 42.5032 104.24 40.3236C105.74 37.874 88.6092 36.798 75.3699 51.478L79.3191 58.3048Z" fill="#ED9C00"/>
<path d="M79.3948 58.7765C79.3948 58.7765 93.6189 56.1649 99.958 45.4119C101.482 42.8132 104.069 41.3673 104.336 40.8597C105.835 38.4101 88.7049 37.334 75.4656 52.0141L79.3948 58.7765Z" fill="#FED700"/>
<path d="M80.5147 52.1272C80.406 52.2318 80.6588 52.3647 80.7032 52.2801C83.0422 50.4883 85.3323 48.9944 87.9595 47.6776C88.0882 47.6374 87.7955 47.3757 87.6668 47.416C84.9997 48.6039 82.7495 50.2266 80.5147 52.1272Z" fill="#F6BC00"/>
<path d="M79.0585 65.1948C79.0585 65.1948 95.0026 71.0984 108.331 62.4013C110.765 61.1446 97.0421 51.929 79.0454 57.6308L79.0585 65.1948Z" fill="#ED9C00"/>
<path d="M79.1151 65.602C79.1151 65.602 95.0593 71.5057 108.388 62.8085C110.822 61.5518 97.0988 52.3362 79.102 58.038L79.1151 65.602Z" fill="#FED700"/>
<path d="M83.2514 59.3567C83.187 59.3769 83.2269 59.5057 83.2913 59.4855C85.7273 59.147 88.1633 58.8084 90.5505 58.7678C93.3436 58.6708 96.0832 59.0851 98.8474 59.3504C98.996 59.3745 98.832 59.0726 98.7676 59.0927C93.417 58.2239 88.5585 58.2608 83.2514 59.3567Z" fill="#F6BC00"/>
<path d="M76.3275 72.9927C76.3275 72.9927 87.9319 79.6915 100.852 79.4689C103.092 79.405 103.897 80.6387 106.234 79.9782C109.057 79.5193 98.4714 65.8508 78.7866 65.4308L76.3275 72.9927Z" fill="#ED9C00"/>
<path d="M76.0638 73.2872C76.0638 73.2872 87.4063 82.332 99.6677 79.9808C102.599 79.4171 105.456 80.4337 105.97 80.2726C108.793 79.8137 98.2078 66.1453 78.5229 65.7252L76.0638 73.2872Z" fill="#FED700"/>
<path d="M81.7641 69.8025C81.6154 69.7784 81.6952 70.0362 81.7795 70.0805C84.6442 70.6679 87.3357 71.3802 90.038 72.5841C90.2066 72.6726 90.1513 72.2658 90.0471 72.157C87.3248 70.8887 84.6533 70.2409 81.7641 69.8025Z" fill="#F6BC00"/>
<path d="M72.1357 78.1269C72.1357 78.1269 80.103 93.8233 95.8541 96.1136C98.527 96.7635 94.791 80.5923 77.4461 72.9263L72.1357 78.1269Z" fill="#ED9C00"/>
<path d="M71.7294 78.1828C71.7294 78.1828 79.6968 93.8792 95.4478 96.1695C98.1207 96.8194 94.3848 80.6482 77.0398 72.9822L71.7294 78.1828Z" fill="#FED700"/>
<path d="M78.618 76.9493C78.5337 76.9049 78.5091 77.0541 78.5935 77.0984C80.634 78.4406 82.6744 79.7827 84.5815 81.3789C86.7616 83.1725 88.5507 85.301 90.5131 87.3043C90.6174 87.4132 90.6664 87.1148 90.6465 87.0503C87.0684 82.7934 83.403 79.6252 78.618 76.9493Z" fill="#F6BC00"/>
<path d="M65.5571 81.2422C65.5571 81.2422 68.9793 94.1175 78.1338 103.146C79.6796 104.716 79.4597 106.059 81.4807 107.338C83.7705 109.028 85.9163 92.0042 72.411 77.8237L65.5571 81.2422Z" fill="#ED9C00"/>
<path d="M65.0876 81.3181C65.0876 81.3181 66.7085 95.677 76.8644 102.693C79.3029 104.408 80.5687 107.127 81.0751 107.393C83.3648 109.084 85.5105 92.0598 72.0057 77.8794L65.0876 81.3181Z" fill="#FED700"/>
<path d="M71.5101 82.9154C71.4056 82.8065 71.2522 82.9961 71.3566 83.105C72.97 85.5737 74.2655 87.9295 75.403 90.6886C75.443 90.8177 75.7054 90.5233 75.6654 90.3942C74.6568 87.5947 73.2323 85.2793 71.5101 82.9154Z" fill="#F6BC00"/>
<path d="M58.3378 81.3718C58.3378 81.3718 53.9312 98.3951 64.2335 110.675C65.7858 112.95 72.9995 98.3756 65.0848 81.0306L58.3378 81.3718Z" fill="#ED9C00"/>
<path d="M57.9315 81.4279C57.9315 81.4279 53.5249 98.4513 63.8273 110.731C65.3796 113.006 72.5933 98.4318 64.6785 81.0867L57.9315 81.4279Z" fill="#FED700"/>
<path d="M63.9481 85.1359C63.9282 85.0714 63.8192 85.1763 63.8192 85.1763C64.4101 87.5402 65.0856 89.9486 65.4831 92.373C65.9161 95.1404 65.8778 97.9843 65.9684 100.788C65.944 100.937 66.2464 100.772 66.2064 100.643C66.343 95.1485 65.6969 90.3238 63.9481 85.1359Z" fill="#F6BC00"/>
<path d="M51.6539 79.1409C51.6539 79.1409 45.2894 90.97 45.8063 104.043C45.8662 106.289 44.7185 107.143 45.3733 109.486C45.8905 112.297 59.1854 101.413 59.0881 81.4855L51.6539 79.1409Z" fill="#ED9C00"/>
<path d="M51.2966 78.8991C51.2966 78.8991 42.6123 90.534 45.2137 102.813C45.8551 105.797 44.9005 108.643 45.0803 109.224C45.5975 112.035 58.8924 101.151 58.7952 81.2235L51.2966 78.8991Z" fill="#FED700"/>
<path d="M54.9526 84.5482C54.9771 84.3991 54.7194 84.4798 54.675 84.5644C54.165 87.4831 53.5108 90.164 52.3858 92.9216C52.2969 93.091 52.7033 93.0344 52.8122 92.9296C54.0216 90.2163 54.5914 87.4911 54.9526 84.5482Z" fill="#F6BC00"/>
<path d="M46.3968 74.6915C46.3968 74.6915 32.4298 85.2185 32.9488 101.26C32.8067 103.993 47.2619 98.6915 51.7411 80.0951L46.3968 74.6915Z" fill="#ED9C00"/>
<path d="M46.3656 74.1346C46.3656 74.1346 32.3986 84.6616 32.9176 100.703C32.7755 103.437 47.2306 98.1346 51.7098 79.5382L46.3656 74.1346Z" fill="#FED700"/>
<path d="M47.7934 80.1279C47.8379 80.0432 47.6048 79.9748 47.5604 80.0594C46.4602 82.6671 45.1314 84.9927 43.5252 87.3346C43.4164 87.4394 43.7982 87.5319 43.907 87.4271C45.5975 85.1296 46.7775 82.7798 47.7934 80.1279Z" fill="#F6BC00"/>
<path d="M42.9322 68.7618C42.9322 68.7618 30.9637 74.558 23.8322 85.4895C22.6428 87.347 21.1518 87.3184 20.3796 89.6113C19.1325 92.1942 36.2641 91.2191 47.7025 75.0497L42.9322 68.7618Z" fill="#ED9C00"/>
<path d="M42.7914 68.3098C42.7914 68.3098 29.0014 72.554 23.9666 84.1026C22.7794 86.879 20.3565 88.6274 20.1745 89.1794C18.9275 91.7623 36.059 90.7873 47.4974 74.6179L42.7914 68.3098Z" fill="#FED700"/>
<path d="M42.4838 75.059C42.5282 74.9744 42.3396 74.8214 42.2952 74.9059C40.1842 76.9803 38.1221 78.7566 35.6385 80.3115C35.5297 80.4163 35.8669 80.5934 35.9956 80.5531C38.4348 79.0828 40.477 77.242 42.4838 75.059Z" fill="#F6BC00"/>
<path d="M42.5152 61.7336C42.5152 61.7336 25.17 59.7349 14.6291 71.7311C12.6079 73.6364 26.8424 79.7199 42.697 69.385L42.5152 61.7336Z" fill="#ED9C00"/>
<path d="M42.8434 61.2055C42.8434 61.2055 25.4982 59.2068 14.9572 71.203C12.956 73.1728 27.1905 79.2563 43.0251 68.8569L42.8434 61.2055Z" fill="#FED700"/>
<path d="M26.4262 67.8936C30.8581 65.8021 35.281 64.1371 40.1119 63.3331C40.1762 63.313 40.052 63.14 39.9877 63.1601C35.1812 63.8152 30.5055 65.3474 26.2178 67.6763C26.1734 67.7608 26.3819 67.9781 26.4262 67.8936Z" fill="#F6BC00"/>
<path d="M45.1572 54.1009C45.1572 54.1009 32.1561 49.0434 18.8752 51.2891C16.5874 51.6513 15.6088 50.5427 13.2433 51.5659C10.4318 52.5164 23.4505 64.9258 43.7945 62.2384L45.1572 54.1009Z" fill="#ED9C00"/>
<path d="M45.3797 53.6776C45.3797 53.6776 32.3032 46.0969 20.0231 50.4348C17.1029 51.4901 14.0251 50.8968 13.4659 51.1425C10.6344 52.0286 23.6731 64.5024 43.9971 61.7505L45.3797 53.6776Z" fill="#FED700"/>
<path d="M40.0885 58.2373C40.2372 58.2614 40.1574 58.0037 40.0731 57.9594C37.0064 57.8593 34.1373 57.4852 31.2129 56.7044C31.0643 56.6802 31.1196 57.087 31.2682 57.1111C34.1681 58.041 37.0617 58.266 40.0885 58.2373Z" fill="#F6BC00"/>
<path d="M48.5464 47.5164C48.5464 47.5164 37.8433 33.2443 21.2576 33.2684C18.4274 33.0217 25.3237 48.9098 44.3799 54.1279L48.5464 47.5164Z" fill="#ED9C00"/>
<path d="M49.0152 47.4405C49.0152 47.4405 38.312 33.1683 21.7263 33.1925C18.8962 32.9458 25.7925 48.8338 44.8486 54.052L49.0152 47.4405Z" fill="#FED700"/>
<path d="M32.2868 39.9447C36.9994 41.9346 41.4054 44.3035 45.3669 47.519C45.4513 47.5633 45.4558 47.3497 45.4359 47.2852C41.5833 43.9648 37.1174 41.4025 32.4002 39.6263C32.1871 39.6223 32.2025 39.9004 32.2868 39.9447Z" fill="#F6BC00"/>
<path d="M41.6057 65.713C43.3011 76.4338 53.3376 83.7659 63.9026 82.0873C74.5319 80.3886 81.7322 70.3513 80.0368 59.6305C78.3413 48.9097 68.3048 41.5776 57.7398 43.2562C47.1105 44.9549 39.9102 54.9922 41.6057 65.713Z" fill="#612913"/>
<path d="M67.0561 77.9092C66.6054 78.0503 66.1193 77.8488 65.9152 77.4176C65.7112 76.9863 65.9578 76.4138 66.3886 76.2082C67.27 75.8614 68.0472 75.4058 68.8044 74.8858C69.2152 74.6156 69.8101 74.7123 70.0786 75.1234C70.347 75.5345 70.2491 76.1311 69.8383 76.4012C68.9523 76.9617 68.0464 77.4576 67.1205 77.889C67.1205 77.889 67.1205 77.889 67.0561 77.9092ZM61.3392 79.0628C61.2749 79.0829 61.1461 79.1233 61.0617 79.079C60.0161 79.1234 58.995 79.0188 57.9539 78.8496C57.4433 78.7973 57.135 78.2571 57.2084 77.8097C57.2619 77.2978 57.8015 76.9873 58.2476 77.0598C59.14 77.2048 60.0968 77.3296 60.9936 77.261C61.4843 77.2488 61.9014 77.6841 61.9123 78.1759C61.9876 78.6475 61.7256 78.9418 61.3392 79.0628ZM73.8048 72.3295C73.5472 72.4101 73.2498 72.3618 72.9968 72.2288C72.5551 71.9427 72.4599 71.4066 72.7464 70.9631C73.2751 70.1609 73.7394 69.3788 74.1193 68.5524C74.3215 68.0647 74.901 67.8832 75.3227 68.1048C75.8088 68.3063 75.9884 68.8868 75.7662 69.31C75.3618 70.2856 74.8531 71.1523 74.28 72.0392C74.1712 72.144 73.9979 72.269 73.8048 72.3295ZM52.9243 76.7461C52.6667 76.8267 52.3693 76.7784 52.1806 76.6253C51.2973 76.053 50.4784 75.4605 49.6839 74.719C49.2867 74.3482 49.3203 73.7717 49.6268 73.3928C49.9976 72.9937 50.5726 73.0258 50.9499 73.3321C51.64 73.9649 52.3746 74.513 53.1736 75.041C53.6153 75.3271 53.7105 75.8632 53.424 76.3067C53.355 76.5405 53.1174 76.6856 52.9243 76.7461ZM76.5386 64.0455C76.4742 64.0657 76.3455 64.106 76.2611 64.0617C75.7705 64.0738 75.3533 63.6386 75.4068 63.1266C75.405 62.2076 75.4031 61.2885 75.2525 60.3453C75.1772 59.8737 75.5082 59.3456 75.9789 59.2689C76.4495 59.1923 76.9755 59.5227 77.0508 59.9944C77.2214 61.0021 77.2631 62.0501 77.2405 63.1183C77.1671 63.5658 76.8606 63.9447 76.5386 64.0455ZM47.1572 70.2046C46.7065 70.3458 46.2204 70.1443 46.0807 69.6928C45.7325 69.0237 45.493 68.2498 45.2735 67.5404C45.1937 67.2824 45.1139 67.0245 45.0341 66.7665C44.8744 66.2506 45.2254 65.787 45.6761 65.6458C46.1912 65.4845 46.6528 65.8351 46.7925 66.2866C46.8723 66.5446 46.9321 66.738 47.012 66.996C47.2115 67.6409 47.4754 68.2657 47.7394 68.8905C47.9434 69.3217 47.7612 69.874 47.266 70.0998C47.2216 70.1845 47.2216 70.1845 47.1572 70.2046ZM74.3309 55.5405C73.9446 55.6615 73.4785 55.5245 73.2944 55.1577C72.8418 54.3798 72.2604 53.6422 71.6791 52.9046C71.3463 52.5137 71.3798 51.9372 71.7707 51.6026C72.1615 51.268 72.7365 51.3002 73.0693 51.6911C73.735 52.473 74.3562 53.3396 74.9131 54.2264C75.1815 54.6375 75.0192 55.2542 74.5885 55.4599C74.4597 55.5002 74.3953 55.5204 74.3309 55.5405ZM45.762 61.5866C45.6333 61.627 45.5045 61.6673 45.3558 61.6431C44.8452 61.5908 44.4924 61.1353 44.5459 60.6234C44.6529 59.5995 44.8886 58.5353 45.2286 57.58C45.3664 57.1123 45.906 56.8019 46.3921 57.0034C46.8583 57.1404 47.1666 57.6805 46.9644 58.1682C46.6688 59.039 46.4575 59.954 46.395 60.8932C46.3461 61.1915 46.084 61.4858 45.762 61.5866ZM67.9753 49.6078C67.7821 49.6683 67.5046 49.6844 67.316 49.5313C66.4726 49.088 65.6047 48.7939 64.7368 48.4997C64.2707 48.3627 63.9623 47.8226 64.1001 47.355C64.238 46.8874 64.7775 46.5769 65.2437 46.7139C66.2403 46.9678 67.2125 47.3707 68.1403 47.8583C68.562 48.08 68.806 48.6403 68.5194 49.0837C68.3861 49.3377 68.1685 49.5473 67.9753 49.6078ZM49.2595 53.488C49.0019 53.5687 48.6401 53.5405 48.4315 53.3229C48.0542 53.0166 48.0034 52.3958 48.3099 52.0168C48.9873 51.2388 49.7291 50.4406 50.5307 49.8358C50.9216 49.5012 51.5165 49.5979 51.8294 49.9243C52.1622 50.3153 52.0643 50.9119 51.7379 51.2263C51.0006 51.8109 50.3676 52.5043 49.7991 53.1776C49.5814 53.3872 49.3883 53.4477 49.2595 53.488ZM59.3736 48.057C59.3092 48.0772 59.2448 48.0973 59.1804 48.1175C58.9673 48.1135 58.7097 48.1941 58.4966 48.1901C57.8328 48.3273 57.1046 48.4846 56.4607 48.6862C55.9456 48.8475 55.4396 48.5815 55.28 48.0656C55.1203 47.5497 55.3869 47.0417 55.902 46.8804C56.6747 46.6385 57.4029 46.4812 58.2154 46.3682C58.4929 46.352 58.7505 46.2714 58.9636 46.2754C59.4342 46.1987 59.9158 46.6139 59.9911 47.0855C60.0464 47.4926 59.7599 47.936 59.3736 48.057Z" fill="#B37458"/>
<path d="M63.9045 72.7418C63.8402 72.7619 63.8402 72.7619 63.7758 72.7821C63.2607 72.9434 62.7546 72.6774 62.6594 72.1413C62.5641 71.6052 62.7863 71.1819 63.3014 71.0206C64.1384 70.7585 64.9355 70.3674 65.6483 69.932C66.0591 69.6618 66.654 69.7585 66.9225 70.1696C67.1909 70.5808 67.093 71.1773 66.6822 71.4475C65.7962 72.0079 64.8703 72.4393 63.9045 72.7418ZM58.1704 72.6982C57.9773 72.7587 57.8285 72.7345 57.5955 72.666C56.5788 72.3477 55.6511 71.8601 54.8322 71.2676C54.3905 70.9815 54.3397 70.3607 54.6462 69.9818C54.9328 69.5383 55.5521 69.4859 55.9294 69.7922C56.6441 70.2758 57.4031 70.6747 58.271 70.9689C58.7371 71.1059 59.0455 71.646 58.8433 72.1338C58.6456 72.4079 58.428 72.6175 58.1704 72.6982ZM69.9495 67.1702C69.7563 67.2307 69.5432 67.2267 69.3101 67.1582C68.824 66.9567 68.6 66.461 68.8022 65.9732C69.1178 65.167 69.349 64.3164 69.3671 63.4618C69.4206 62.9499 69.8758 62.5951 70.3664 62.583C70.877 62.6353 71.2298 63.0908 71.2407 63.5825C71.1337 64.6064 70.898 65.6706 70.4936 66.6461C70.4247 66.8799 70.207 67.0896 69.9495 67.1702ZM52.1522 66.9428C51.7015 67.0839 51.1954 66.818 50.9914 66.3867C50.9315 66.1932 50.8716 65.9997 50.7918 65.7417C50.5524 64.9678 50.3574 64.1093 50.3111 63.2749C50.3002 62.7831 50.6511 62.3195 51.1417 62.3074C51.6323 62.2952 52.094 62.6458 52.1049 63.1376C52.1756 63.8228 52.2464 64.5081 52.4459 65.153C52.5058 65.3465 52.5457 65.4755 52.6056 65.669C52.9139 66.2091 52.7117 66.6968 52.1522 66.9428C52.2166 66.9226 52.2166 66.9226 52.1522 66.9428ZM69.4022 58.7819C69.0159 58.9029 68.5498 58.7659 68.3457 58.3346C67.8932 57.5567 67.3962 56.8635 66.7904 56.275C66.3931 55.9042 66.4267 55.3278 66.7332 54.9489C67.1041 54.5498 67.679 54.5819 68.0563 54.8882C68.8507 55.6298 69.452 56.4319 69.9445 57.3388C70.2129 57.7499 70.0506 58.3667 69.6199 58.5723C69.531 58.7416 69.4666 58.7618 69.4022 58.7819ZM52.8837 58.5785C52.6261 58.6592 52.413 58.6552 52.16 58.5222C51.7183 58.236 51.5587 57.7201 51.8452 57.2767C52.3539 56.4099 53.0114 55.5674 53.8375 54.8135C54.2283 54.4789 54.8033 54.511 55.1361 54.902C55.469 55.293 55.4355 55.8694 55.0446 56.204C54.3717 56.7684 53.8875 57.486 53.4033 58.2036C53.25 58.393 53.0768 58.518 52.8837 58.5785ZM62.6377 54.0384C62.5089 54.0787 62.3802 54.1191 62.2314 54.0949C62.0183 54.0909 61.7853 54.0224 61.5721 54.0184C60.9128 53.9419 60.2935 53.9944 59.6741 54.0469C59.2034 54.1235 58.7418 53.7729 58.6466 53.2368C58.5713 52.7652 58.9222 52.3016 59.4572 52.2047C60.2054 52.1119 61.0379 52.0635 61.7815 52.1843C62.079 52.2326 62.2921 52.2366 62.5896 52.285C63.1001 52.3373 63.4085 52.8774 63.3351 53.3248C63.2217 53.6433 62.9596 53.9376 62.6377 54.0384Z" fill="#B37458"/>
<path d="M64.326 65.8884C64.0685 65.969 63.7711 65.9207 63.5181 65.7878C63.0765 65.5017 63.0257 64.881 63.3322 64.5021C63.8363 63.8491 64.0031 63.0189 63.8725 62.1403C63.7972 61.6688 64.1281 61.1407 64.5987 61.0641C65.0693 60.9875 65.5952 61.3179 65.6705 61.7894C65.8565 63.0751 65.5718 64.4373 64.7612 65.4692C64.7123 65.7675 64.5191 65.8279 64.326 65.8884ZM57.0929 64.1926C57.0285 64.2128 57.0285 64.2128 56.9641 64.2329C56.4935 64.3096 55.9676 63.9791 55.8923 63.5076C55.7064 62.222 55.9911 60.8597 56.7372 59.848C57.0238 59.4046 57.6431 59.3521 58.0203 59.6584C58.4619 59.9445 58.5127 60.5651 58.2062 60.944C57.7021 61.597 57.5353 62.4273 57.6659 63.3059C57.83 63.6081 57.5435 64.0515 57.0929 64.1926Z" fill="#B37458"/>
<path d="M91.7674 124.103C91.2281 126.465 90.0097 128.686 88.4584 130.516C87.3665 131.778 86.1704 132.93 84.7256 133.736C83.7114 134.336 84.6612 135.808 85.6954 135.272C87.2489 134.361 88.6825 133.064 89.8632 131.633C91.6319 129.594 92.9191 127.139 93.5273 124.543C93.7869 123.33 92.0471 122.955 91.7674 124.103Z" fill="#147A33"/>
</g>
<g filter="url(#filter1_d_1233_1307)">
<path d="M74.1637 185.874C74.1637 185.874 74.6329 195.786 68.4293 201.667C66.9282 203.087 66.3419 205.038 66.0722 205.319C64.6766 206.716 61.3695 195.389 69.0741 184.291L74.1637 185.874Z" fill="#77CA00"/>
<path d="M73.6102 185.886C73.8331 190.988 72.1914 196.77 68.7556 200.55C68.1458 201.196 67.4891 201.83 66.9614 202.546C66.6331 203.063 65.8357 204.061 65.7771 204.696C65.7185 205.131 65.7067 204.578 65.8944 204.825C65.7536 204.59 65.6012 204.402 65.4605 204.166C64.5458 202.037 64.5692 199.345 64.7803 197.1C65.2141 192.562 66.9496 188.203 69.5294 184.457C69.3066 184.551 69.1424 184.609 68.9196 184.703C70.6317 185.235 72.3437 185.766 73.9972 186.333C74.6421 186.546 74.9001 185.512 74.2552 185.299C72.5431 184.767 70.831 184.236 69.1776 183.669C68.943 183.61 68.7085 183.75 68.5678 183.915C66.0349 187.673 64.276 191.926 63.7483 196.44C63.4552 199.014 63.3966 202.047 64.4285 204.506C64.6396 205.059 65.0149 205.753 65.6364 205.86C66.598 206.002 66.938 204.639 67.2546 203.969C68.2865 202.031 70.0689 200.682 71.265 198.885C72.3439 197.158 73.1178 195.255 73.6455 193.339C74.2904 190.954 74.7008 188.309 74.6187 185.84C74.6421 185.147 73.5867 185.18 73.6102 185.886Z" fill="#29A529"/>
<path d="M79.5117 185.172C79.5117 185.172 84.987 196.195 79.8754 206.497C79.1602 208.365 71.4808 199.184 74.1303 185.763L79.5117 185.172Z" fill="#77CA00"/>
<path d="M79.0432 185.453C81.3881 190.241 82.1736 196.285 81.0247 201.491C80.8372 202.442 80.5558 203.371 80.2393 204.24C80.04 204.839 79.8055 205.38 79.5124 205.955C79.278 206.496 79.2897 206.249 79.4421 206.237C79.5476 206.214 79.3483 206.214 79.1842 206.072C78.9262 205.907 78.7269 205.707 78.5393 205.46C76.8863 203.694 75.9014 201.248 75.1745 198.966C73.8849 194.744 73.7676 190.218 74.553 185.869C74.3655 186.022 74.2365 186.139 74.0489 186.292C75.8427 186.095 77.6364 185.898 79.4301 185.701C80.0984 185.619 80.1101 184.573 79.395 184.643C77.6012 184.84 75.8075 185.037 74.0137 185.234C73.8027 185.28 73.5682 185.421 73.5096 185.656C72.689 189.946 72.7711 194.413 73.9084 198.646C74.647 201.281 75.7608 204.01 77.5897 206.07C78.0118 206.576 78.6097 207.176 79.278 207.295C80.38 207.473 80.7317 205.863 81.0131 205.135C82.6309 201.046 82.8536 196.556 82.1384 192.229C81.7163 189.724 81.048 187.208 79.9225 184.926C79.688 184.267 78.7501 184.83 79.0432 185.453Z" fill="#29A529"/>
<path d="M83.6477 181.964C83.6477 181.964 91.5815 187.911 92.2027 196.408C92.3434 198.441 93.5153 200.135 93.5153 200.535C93.7263 202.486 82.9096 197.91 79.1828 184.883L83.6477 181.964Z" fill="#77CA00"/>
<path d="M83.3752 182.445C83.1174 182.28 83.5393 182.586 83.6213 182.657C83.9026 182.928 84.2425 183.163 84.5237 183.434C85.4144 184.258 86.2816 185.176 87.0902 186.129C89.434 188.918 91.2271 192.317 91.6139 195.961C91.7193 196.936 91.8483 197.818 92.1647 198.747C92.317 199.135 92.4694 199.523 92.6686 199.923C92.692 200.028 92.8913 200.628 92.985 200.652C92.8913 200.628 93.2077 200.558 93.0319 200.464C92.7975 200.405 92.5397 200.439 92.2702 200.321C90.0435 199.66 88.0279 197.953 86.3872 196.34C83.1996 193.139 80.9729 189.081 79.7072 184.766C79.6135 184.942 79.5549 185.177 79.4494 185.4C80.9377 184.427 82.426 183.454 83.9143 182.481C84.512 182.082 83.9377 181.188 83.3518 181.54L78.8869 184.459C78.6994 184.612 78.5939 184.835 78.6291 185.094C79.8713 189.303 81.9691 193.278 85.0043 196.491C86.856 198.456 89.1529 200.434 91.7311 201.284C92.2819 201.473 93.114 201.733 93.653 201.37C94.6023 200.76 93.5592 199.348 93.2897 198.631C92.8326 197.467 92.774 196.303 92.5748 195.104C92.4342 194.07 92.1412 193.047 91.7896 192.059C91.1099 190.19 90.1489 188.449 89.0004 186.861C87.559 184.849 85.8362 182.966 83.8674 181.47C83.3635 181.094 82.8362 182.009 83.3752 182.445Z" fill="#29A529"/>
<path d="M86.6371 177.767C86.6371 177.767 98.0372 181.192 101.951 191.665C102.759 193.417 91.2652 192.765 83.4971 181.968L86.6371 177.767Z" fill="#77CA00"/>
<path d="M86.5112 178.284C90.4011 179.465 94.2091 181.973 97.0211 184.879C98.2865 186.197 99.4113 187.679 100.302 189.302C100.548 189.713 100.735 190.16 100.934 190.56C101.063 190.842 101.216 191.629 101.462 191.841C101.298 191.7 101.731 191.759 101.333 191.759C100.478 191.793 99.7628 191.862 98.9075 191.696C97.5718 191.459 96.2244 191.07 94.9121 190.539C90.4832 188.723 86.7925 185.545 83.9687 181.687C83.9687 181.887 83.9805 182.04 83.9805 182.239C85.0232 180.855 86.0777 179.423 87.1205 178.038C87.554 177.499 86.5932 176.957 86.2066 177.508C85.1638 178.893 84.1093 180.325 83.0666 181.709C82.9845 181.838 82.9611 182.132 83.0783 182.262C85.8669 186.061 89.4639 189.215 93.7522 191.195C95.9432 192.197 98.9427 193.353 101.403 192.875C102.036 192.735 102.669 192.395 102.551 191.667C102.434 190.938 101.977 190.174 101.637 189.539C101.169 188.622 100.642 187.74 100.056 186.893C97.9584 183.918 95.1698 181.517 92.0883 179.691C90.4363 178.725 88.6671 177.829 86.8158 177.263C86.1245 177.038 85.8668 178.072 86.5112 178.284Z" fill="#29A529"/>
<path d="M87.7789 173.004C87.7789 173.004 97.3853 172.631 103.091 178.712C104.473 180.159 106.359 180.784 106.593 181.043C107.941 182.431 96.9051 185.538 86.1974 177.946L87.7789 173.004Z" fill="#77CA00"/>
<path d="M87.7922 173.556C92.7127 173.399 98.2423 174.993 101.898 178.311C103.198 179.488 104.288 180.511 105.893 181.265C106.431 181.501 106.033 181.301 106.15 181.231C106.033 181.301 105.787 181.488 105.623 181.547C103.596 182.483 100.925 182.409 98.7345 182.206C94.3061 181.788 90.0651 180.019 86.4216 177.453C86.5153 177.677 86.5739 177.841 86.6676 178.064C87.1831 176.397 87.7454 174.742 88.2608 173.075C88.4717 172.43 87.4408 172.17 87.2299 172.815L85.6366 177.805C85.5781 178.039 85.7187 178.274 85.8827 178.416C89.491 180.923 93.6851 182.679 98.0784 183.238C100.597 183.524 103.608 183.634 106.01 182.593C106.513 182.37 107.193 182.043 107.252 181.408C107.345 180.434 105.928 180.126 105.272 179.761C103.444 178.701 102.097 176.914 100.293 175.76C98.6524 174.747 96.8482 173.993 94.9386 173.461C92.6541 172.835 90.1236 172.397 87.7571 172.499C87.0659 172.474 87.0893 173.578 87.7922 173.556Z" fill="#29A529"/>
<path d="M86.5797 168.647C86.5797 168.647 96.1173 162.564 106.053 166.269C107.823 166.765 100.218 174.684 87.646 173.56L86.5797 168.647Z" fill="#77CA00"/>
<path d="M86.8707 169.071C90.8428 166.527 96.0803 165.302 100.732 165.626C101.658 165.71 102.572 165.841 103.474 166.018C104.036 166.16 104.552 166.29 105.103 166.479C105.29 166.526 105.466 166.62 105.653 166.668C106.251 166.868 105.829 166.762 105.841 166.715C105.841 166.715 105.841 166.515 105.747 166.691C105.63 166.961 105.466 167.22 105.267 167.419C103.849 169.109 101.716 170.269 99.7596 171.123C95.9632 172.762 91.7919 173.308 87.644 172.961C87.8081 173.102 87.9838 173.197 88.1948 173.35C87.8549 171.716 87.4683 170.07 87.1284 168.437C86.9995 167.755 85.9333 168.035 86.1091 168.729C86.4489 170.363 86.8355 172.008 87.1754 173.642C87.2105 173.9 87.48 174.018 87.7261 174.03C91.8271 174.366 95.9867 173.867 99.7713 172.275C102.044 171.35 104.458 170.061 106.087 168.125C106.45 167.668 106.942 167.093 106.907 166.435C106.884 166.129 106.731 165.941 106.52 165.788C105.888 165.329 104.833 165.163 104.071 165.02C100.263 164.11 96.2092 164.386 92.4949 165.496C90.3975 166.115 88.2415 166.97 86.3551 168.142C85.7575 168.54 86.2731 169.469 86.8707 169.071Z" fill="#29A529"/>
<path d="M83.4903 164.07C83.4903 164.07 89.5962 156.569 97.8703 156.359C99.8744 156.315 101.585 155.248 101.925 155.284C103.847 155.169 98.9134 165.562 86.1039 168.575L83.4903 164.07Z" fill="#77CA00"/>
<path d="M83.8902 164.47C87.1248 160.491 92.2697 157.243 97.4263 156.946C98.4342 156.9 99.4069 156.796 100.344 156.433C100.719 156.328 101.059 156.164 101.446 156.012C101.552 155.988 101.973 155.895 101.997 155.801C101.985 155.848 101.774 155.695 101.821 155.707C101.774 155.695 101.833 155.66 101.809 155.754C101.763 155.942 101.739 156.235 101.634 156.459C100.895 158.62 99.1374 160.474 97.5201 161.964C94.2855 164.944 90.2423 166.971 85.9529 167.987C86.1287 168.081 86.3631 168.14 86.5858 168.247C85.7185 166.729 84.7926 165.247 83.9254 163.73C83.5738 163.141 82.6362 163.704 82.9878 164.292C83.8551 165.81 84.7809 167.292 85.6482 168.809C85.7888 169.044 86.0232 169.104 86.2811 169.069C90.4181 168.064 94.3324 166.155 97.6139 163.386C99.6296 161.697 101.622 159.502 102.583 157.048C102.817 156.507 103.063 155.72 102.747 155.191C102.22 154.309 101.036 155.059 100.38 155.293C98.2935 156.066 96.0551 155.851 93.9573 156.47C92.0821 156.996 90.3242 157.851 88.66 158.93C86.6443 160.22 84.6402 161.862 83.0816 163.716C82.6597 164.209 83.4566 165.01 83.8902 164.47Z" fill="#29A529"/>
<path d="M79.9919 161.54C79.9919 161.54 82.911 150.236 92.853 146.548C94.4943 145.763 94.4006 156.731 84.1774 164.145L79.9919 161.54Z" fill="#77CA00"/>
<path d="M80.507 161.67C81.5035 157.875 83.7192 154.187 86.4508 151.429C87.5997 150.22 88.901 149.199 90.3547 148.367C91.1167 147.91 91.9491 147.57 92.7463 147.172C93.309 146.914 93.0042 147.137 92.887 147.007C92.8049 146.937 92.9339 147.019 92.9104 147.113C92.8987 147.36 93.0277 147.642 93.0629 147.901C93.098 148.359 93.0863 148.806 93.016 149.288C92.887 150.604 92.5236 151.862 92.0664 153.095C90.4955 157.395 87.4943 161.035 83.8365 163.709C84.0358 163.71 84.1882 163.698 84.3875 163.698C83.0042 162.85 81.5856 161.942 80.2022 161.094C79.5926 160.74 79.065 161.656 79.6746 162.01C81.058 162.859 82.4766 163.766 83.86 164.614C83.989 164.697 84.2352 164.709 84.411 164.604C88.0101 161.964 91.0231 158.477 92.7112 154.307C93.5787 152.228 94.6221 149.243 93.9538 146.927C93.7545 146.327 93.3794 145.832 92.7111 145.914C91.9843 146.03 91.1519 146.57 90.5188 146.91C89.6044 147.378 88.7134 147.953 87.9045 148.598C85.255 150.628 83.0978 153.281 81.5152 156.229C80.6594 157.862 79.827 159.6 79.3815 161.387C79.2643 162.056 80.3429 162.328 80.507 161.67Z" fill="#29A529"/>
<path d="M75.2265 160.492C75.2265 160.492 74.2061 150.991 79.7999 144.957C81.1603 143.501 81.5941 141.562 81.8521 141.327C83.1069 139.895 86.9653 150.611 80.1988 161.746L75.2265 160.492Z" fill="#77CA00"/>
<path d="M75.7784 160.481C75.2155 155.143 76.693 149.42 80.1991 145.358C80.762 144.7 81.231 144.019 81.5711 143.255C81.7587 142.903 82.2629 142.081 82.2512 141.728C82.2395 141.775 82.0284 141.822 81.9932 141.763C81.9815 141.81 82.087 141.787 82.1222 141.845C82.1691 142.057 82.4506 142.328 82.5444 142.551C83.4825 144.587 83.6115 147.068 83.506 149.289C83.3184 153.639 81.9348 157.787 79.7068 161.522C79.9296 161.428 80.0938 161.37 80.3166 161.276C78.6279 160.85 76.9862 160.436 75.2976 160.01C74.6409 159.845 74.383 160.879 75.0396 161.045C76.7283 161.47 78.37 161.884 80.0586 162.31C80.2931 162.369 80.5159 162.276 80.6683 162.064C82.826 158.411 84.2448 154.322 84.5614 150.055C84.749 147.504 84.62 144.624 83.6115 142.271C83.4004 141.718 83.0252 141.024 82.4388 140.776C81.618 140.469 81.2662 141.28 81.0082 141.914C80.6212 142.866 80.2108 143.712 79.519 144.487C78.8154 145.308 78.1118 146.13 77.5255 147.082C76.5053 148.773 75.79 150.641 75.3093 152.569C74.6761 155.107 74.3829 157.881 74.6761 160.503C74.7582 161.173 75.8136 161.14 75.7784 160.481Z" fill="#29A529"/>
<path d="M70.5097 161.455C70.5097 161.455 65.175 151.066 70.1109 141.669C70.8261 140.001 77.6147 148.358 74.9299 160.721L70.5097 161.455Z" fill="#77CA00"/>
<path d="M70.979 161.173C68.7983 156.926 68.0127 151.482 68.9271 146.816C69.1147 145.864 69.3492 144.924 69.6775 144.008C69.8533 143.503 70.0878 142.962 70.3106 142.469C70.3223 142.422 70.5802 141.987 70.6037 141.893C70.5802 141.788 70.5685 141.835 70.6037 141.893C70.6154 142.046 70.3223 141.822 70.6154 142.046C70.8264 142.199 71.0726 142.411 71.2719 142.612C72.7258 144.177 73.5699 146.389 74.1679 148.388C75.3286 152.328 75.3287 156.525 74.4728 160.555C74.6018 160.438 74.7308 160.321 74.8715 160.156C73.4177 160.389 71.9052 160.657 70.4514 160.89C69.7714 161.018 70.0645 162.042 70.7445 161.913C72.1983 161.68 73.7108 161.412 75.1646 161.18C75.317 161.168 75.5163 160.968 75.5632 160.78C76.4073 156.797 76.4424 152.659 75.4458 148.66C74.8479 146.261 73.8396 143.709 72.2099 141.849C71.823 141.402 71.2602 140.86 70.674 140.812C69.6305 140.799 69.2905 142.362 69.0092 143.09C67.5085 146.908 67.3561 151.116 68.1417 155.162C68.5404 157.361 69.2204 159.63 70.2639 161.642C70.3928 162.324 71.319 161.808 70.979 161.173Z" fill="#29A529"/>
<path d="M66.5857 164.015C66.5857 164.015 59.2257 157.763 59.1671 149.407C59.167 147.409 58.1474 145.704 58.1474 145.304C58.0771 143.388 68.2966 148.563 71.1211 161.413L66.5857 164.015Z" fill="#77CA00"/>
<path d="M66.9373 163.604C63.0347 160.272 59.9055 155.038 59.7062 149.843C59.6711 148.785 59.5656 147.81 59.2257 146.775C59.1437 146.504 58.792 145.317 58.71 145.246C58.8506 145.282 58.3819 145.363 58.7217 145.399C58.8624 145.435 59.2491 145.482 59.4718 145.588C61.6048 146.426 63.4096 148.18 64.8863 149.851C67.7927 153.181 69.6679 157.251 70.6407 161.542C70.7344 161.366 70.793 161.131 70.8985 160.907C69.3867 161.775 67.8749 162.642 66.3748 163.463C65.7888 163.814 66.3045 164.743 66.9373 164.404C68.4492 163.536 69.961 162.669 71.4611 161.849C71.6955 161.708 71.754 161.473 71.7189 161.214C70.8164 157.041 69.0116 153.089 66.2926 149.806C64.6518 147.794 62.5306 145.711 60.0929 144.696C59.5538 144.46 58.7334 144.153 58.1592 144.458C57.2333 144.974 57.9834 146.162 58.2061 146.867C58.9327 148.949 58.7101 151.24 59.2726 153.38C59.7532 155.249 60.6087 157.013 61.5932 158.66C62.8706 160.731 64.4059 162.766 66.2576 164.332C66.7264 164.85 67.4647 164.087 66.9373 163.604Z" fill="#29A529"/>
<path d="M64.0529 167.777C64.0529 167.777 53.4483 162.955 51.4679 152.518C50.964 150.743 61.1701 152.169 66.7596 163.516L64.0529 167.777Z" fill="#77CA00"/>
<path d="M64.3206 167.296C60.6997 165.634 57.3367 162.738 55.0634 159.468C54.0674 158.068 53.2588 156.516 52.6729 154.87C52.3799 154.047 52.3213 153.083 51.9698 152.295C52.0284 152.46 51.7823 152.448 52.0401 152.413C53.915 152.087 56.0359 153.171 57.6061 154.067C61.4379 156.282 64.2971 159.799 66.254 163.739C66.254 163.539 66.2423 163.386 66.2423 163.186C65.34 164.607 64.4378 166.027 63.5355 167.448C63.184 168.058 64.098 168.588 64.4495 167.978L66.5235 164.656C66.7579 164.315 67.1797 163.822 67.1797 163.423C67.2031 162.929 66.6407 162.188 66.3829 161.824C66.0079 161.13 65.6212 160.483 65.1759 159.871C62.762 156.366 59.3403 153.305 55.2625 151.877C54.2548 151.523 53.0478 151.169 51.9581 151.344C50.8214 151.506 50.7394 152.235 50.9386 153.234C51.8761 157.465 54.3838 161.194 57.6062 164.054C59.3991 165.655 61.4497 167.221 63.6878 168.235C64.4026 168.565 64.9416 167.603 64.3206 167.296Z" fill="#29A529"/>
<path d="M62.5371 172.045C62.5371 172.045 52.9187 171.267 48.0216 164.541C46.8266 162.942 45.0342 162.14 44.8233 161.788C43.6517 160.294 54.9688 158.456 64.7161 167.303L62.5371 172.045Z" fill="#77CA00"/>
<path d="M62.5124 171.54C58.0253 171.157 53.011 169.094 49.7892 165.836C48.5942 164.636 47.7389 163.272 46.2979 162.259C45.9581 162.024 45.4895 161.706 45.2318 161.541C45.4426 161.694 45.0209 161.788 45.5247 161.565C47.5163 160.77 50.1172 161.126 52.1557 161.54C56.7131 162.44 60.837 164.678 64.2931 167.796C64.2462 167.585 64.2462 167.385 64.2111 167.126C63.473 168.687 62.7701 170.307 62.032 171.868C61.7274 172.49 62.6881 173.032 62.9459 172.398C63.6839 170.837 64.3869 169.217 65.1249 167.656C65.2304 167.433 65.1952 167.175 65.0429 166.987C61.6219 163.927 57.5566 161.654 53.0812 160.625C50.6795 160.07 47.5631 159.583 45.1849 160.531C44.6343 160.742 44.0368 161.14 44.1656 161.821C44.2359 162.139 44.482 162.351 44.7397 162.515C45.4075 163.033 46.1573 163.422 46.7548 164.022C47.5163 164.763 48.0904 165.657 48.8051 166.386C49.5197 167.115 50.293 167.81 51.1365 168.422C52.5658 169.481 54.1591 170.282 55.8345 170.954C57.9667 171.792 60.2513 172.418 62.5358 172.644C63.2271 172.669 63.2036 171.565 62.5124 171.54Z" fill="#29A529"/>
<path d="M63.2926 176.389C63.2926 176.389 52.2918 180.154 43.6925 173.892C42.1343 172.95 50.4992 166.973 62.2967 171.395L63.2926 176.389Z" fill="#77CA00"/>
<path d="M63.5719 176.659C63.5719 176.659 52.5711 180.424 43.9718 174.162C42.4137 173.22 50.7784 167.243 62.576 171.666L63.5719 176.659Z" fill="#77CA00"/>
<path d="M63.4564 176.131C58.7232 177.733 52.9591 177.677 48.2845 175.849C47.2887 175.448 46.3514 175.012 45.4493 174.435C45.1095 174.199 44.6174 173.776 44.2894 173.693C44.3363 173.705 44.3714 173.764 44.348 173.858C44.4768 173.541 44.8049 173.224 45.1681 172.966C46.8317 171.688 49.0694 171.104 51.0845 170.814C54.9155 170.232 58.8403 170.873 62.4957 172.194C62.3785 172.065 62.2613 171.935 62.0973 171.794L63.0463 176.776C63.1752 177.457 64.1945 177.165 64.0656 176.484C63.8196 175.274 63.6204 174.075 63.3743 172.865C63.2806 172.442 63.2689 171.89 63.1166 171.502C62.8002 170.773 61.0195 170.524 60.3165 170.347C56.3566 169.248 52.0569 169.112 48.1556 170.375C46.9606 170.772 45.7421 171.264 44.7112 172.002C44.1605 172.412 43.4341 172.928 43.3053 173.645C43.2701 173.985 43.3521 174.255 43.5865 174.514C44.3363 175.302 45.6836 175.892 46.7029 176.398C48.9757 177.471 51.4243 178.038 53.9549 178.277C57.1768 178.541 60.6798 178.276 63.7844 177.212C64.4054 176.919 64.1125 175.897 63.4564 176.131Z" fill="#29A529"/>
<path d="M66.3332 181.157C66.3332 181.157 58.8686 187.914 50.3142 186.855C48.2401 186.581 46.3417 187.401 45.955 187.354C43.9629 187.151 50.6657 177.255 64.3058 176.101L66.3332 181.157Z" fill="#77CA00"/>
<path d="M65.9358 180.757C61.7524 184.546 55.9049 186.817 50.2566 186.291C49.2371 186.184 48.2645 186.288 47.3153 186.498C46.9403 186.603 46.5302 186.649 46.1552 186.755C45.7919 186.813 46.0966 186.79 46.038 186.825C46.0966 186.79 46.0497 186.978 46.1201 186.696C46.1904 186.414 46.3076 186.144 46.4716 185.886C47.6434 183.784 49.6941 182.154 51.6628 180.852C55.4244 178.355 59.807 176.964 64.2835 176.594C64.1194 176.453 63.9436 176.359 63.7327 176.206C64.4124 177.876 65.0803 179.592 65.76 181.262C66.0061 181.873 67.0725 181.593 66.7795 180.97C66.0998 179.3 65.4319 177.583 64.7522 175.914C64.6584 175.69 64.4592 175.49 64.2014 175.525C59.8656 175.93 55.565 177.192 51.862 179.454C49.5066 180.908 47.1512 182.761 45.663 185.132C45.3232 185.696 44.8896 186.435 45.0185 187.117C45.2295 188.069 46.2373 187.824 46.9286 187.649C48.1473 187.357 49.2723 187.241 50.5262 187.408C51.6511 187.492 52.7878 187.529 53.9714 187.378C56.0221 187.146 58.0142 186.55 59.9126 185.73C62.3149 184.688 64.7054 183.293 66.6975 181.498C67.26 181.041 66.4514 180.288 65.9358 180.757Z" fill="#29A529"/>
<path d="M69.5866 184.674C69.5866 184.674 64.6634 195.422 53.8555 197.792C52.0152 198.376 54.2774 187.107 65.9175 181.001L69.5866 184.674Z" fill="#77CA00"/>
<path d="M69.1048 184.403C67.3348 188.303 64.1699 191.801 60.6768 194.217C59.1764 195.237 57.5119 196.116 55.777 196.678C55.2847 196.853 54.851 196.994 54.3704 197.122C54.2649 197.145 53.4443 197.238 53.7843 197.274C54.0304 197.286 53.8546 197.392 53.8429 197.039C53.7491 196.216 54.0304 195.288 54.3235 194.513C54.7572 193.173 55.4253 191.893 56.1169 190.719C58.555 186.738 62.1185 183.64 66.1977 181.472C65.9984 181.472 65.764 181.412 65.5647 181.412C66.7955 182.672 68.0381 183.884 69.2689 185.144C69.7495 185.615 70.5349 184.864 70.0074 184.381C68.7765 183.121 67.534 181.909 66.3032 180.649C66.1508 180.461 65.8577 180.437 65.6702 180.59C61.6496 182.723 58.1565 185.738 55.6597 189.554C54.3 191.609 52.7527 194.416 52.8113 196.979C52.8231 197.531 52.9872 198.272 53.6085 198.379C54.218 198.532 55.0737 198.099 55.6598 197.947C56.6913 197.608 57.6877 197.21 58.6958 196.764C61.931 195.183 64.7326 192.742 66.9831 189.913C68.2022 188.422 69.3158 186.754 70.148 185.016C70.3239 184.311 69.4095 183.781 69.1048 184.403Z" fill="#29A529"/>
<path d="M86.987 178.06C89.6921 171.403 86.5474 163.818 79.9934 161.115C73.4394 158.412 65.9149 161.604 63.2215 168.214C60.5164 174.871 63.6612 182.455 70.2152 185.159C76.816 187.874 84.2819 184.716 86.987 178.06Z" fill="#29A529"/>
<path d="M76.7926 162.356C77.074 162.427 77.2969 162.733 77.2268 163.015C77.1918 163.355 76.8871 163.578 76.5471 163.542C75.9257 163.435 75.3277 163.434 74.7298 163.432C74.3781 163.443 74.0966 163.172 74.0729 162.867C74.061 162.514 74.3304 162.233 74.6352 162.21C75.3387 162.188 76.0304 162.213 76.6988 162.332C76.7457 162.344 76.7926 162.356 76.7926 162.356ZM80.4513 163.68C80.4982 163.692 80.5451 163.703 80.6272 163.774C81.2371 164.128 81.7884 164.517 82.3163 164.999C82.5626 165.211 82.6098 165.623 82.352 165.857C82.1411 166.103 81.7308 166.15 81.4961 165.891C81.0504 165.478 80.546 165.101 80.0182 164.818C79.7133 164.641 79.6545 164.277 79.8301 163.972C79.9355 163.749 80.2168 163.62 80.4513 163.68ZM71.1069 163.166C71.2945 163.213 71.4119 163.343 71.5175 163.519C71.6466 163.802 71.5062 164.165 71.2132 164.341C70.6506 164.598 70.1232 164.914 69.6427 165.242C69.3497 165.418 69.0097 165.382 68.7868 165.076C68.6107 164.782 68.6457 164.441 68.9503 164.219C69.5011 163.809 70.134 163.469 70.7552 163.177C70.8138 163.142 70.9662 163.13 71.1069 163.166ZM84.3815 167.917C84.5692 167.965 84.6982 168.047 84.8038 168.224C85.0973 168.847 85.3322 169.506 85.5671 170.164C85.6376 170.481 85.4503 170.833 85.1338 170.903C84.8173 170.973 84.4654 170.784 84.3949 170.467C84.2421 169.879 83.9838 169.315 83.7255 168.75C83.5495 168.456 83.6899 168.092 83.9829 167.917C84.0884 167.893 84.2408 167.882 84.3815 167.917ZM66.7245 166.951C66.7714 166.963 66.8652 166.987 66.9004 167.045C67.2054 167.222 67.2642 167.587 67.0886 167.892C66.7606 168.408 66.4796 168.936 66.2337 169.523C66.105 169.84 65.7651 170.003 65.4484 169.874C65.1318 169.744 64.9675 169.403 65.0962 169.086C65.3537 168.452 65.6582 167.83 66.0447 167.279C66.2204 166.973 66.49 166.892 66.7245 166.951ZM85.4051 173.618C85.6866 173.689 85.9095 173.995 85.8393 174.276C85.7693 174.758 85.6876 175.286 85.5589 175.803C85.5122 175.991 85.4771 176.132 85.4303 176.32C85.3484 176.648 85.0085 176.812 84.6802 176.729C84.3519 176.646 84.1875 176.305 84.2694 175.976C84.3045 175.835 84.3513 175.648 84.3863 175.507C84.4916 175.084 84.5616 174.603 84.62 174.168C84.6549 173.827 84.9596 173.605 85.2996 173.641C85.3582 173.606 85.3582 173.606 85.4051 173.618ZM65.0515 172.469C65.3329 172.54 65.5206 172.787 65.4974 173.081C65.4977 173.68 65.545 174.291 65.6392 174.914C65.7098 175.231 65.4755 175.571 65.159 175.641C64.8425 175.711 64.5023 175.475 64.4318 175.158C64.3024 174.476 64.2316 173.76 64.2429 173.113C64.231 172.761 64.5473 172.491 64.8405 172.516C64.9576 172.445 65.0046 172.457 65.0515 172.469ZM83.2278 178.958C83.3217 178.982 83.3686 178.994 83.4507 179.064C83.697 179.276 83.7559 179.641 83.5333 179.934C83.0998 180.473 82.6312 180.954 82.1156 181.423C81.8578 181.657 81.4709 181.609 81.2363 181.35C81.0016 181.091 81.0483 180.704 81.3061 180.469C81.7513 180.083 82.2083 179.649 82.5831 179.145C82.7706 178.992 82.9933 178.899 83.2278 178.958ZM66.6026 178.053C66.7433 178.088 66.8723 178.171 66.9779 178.347C67.2948 178.877 67.6703 179.371 68.1044 179.83C68.339 180.089 68.2924 180.476 68.0932 180.676C67.8354 180.91 67.4485 180.862 67.249 180.662C66.7798 180.144 66.3691 179.591 66.017 179.003C65.8409 178.709 65.9345 178.333 66.2275 178.158C66.3094 178.029 66.4619 178.017 66.6026 178.053ZM78.5052 182.308C78.6928 182.355 78.857 182.497 78.951 182.72C79.0684 183.049 78.881 183.401 78.5645 183.471C77.9081 183.705 77.2282 183.832 76.5483 183.96C76.2318 184.03 75.8916 183.794 75.8797 183.442C75.8092 183.124 76.0434 182.784 76.3951 182.773C77.0165 182.681 77.6026 182.529 78.2004 182.331C78.3059 182.307 78.4114 182.284 78.5052 182.308ZM70.9312 181.892C70.9781 181.904 71.025 181.916 71.025 181.916C71.154 181.998 71.2947 182.034 71.4237 182.116C71.8342 182.27 72.2915 182.435 72.7136 182.542C73.042 182.625 73.2532 182.978 73.1714 183.307C73.0895 183.635 72.7379 183.846 72.4096 183.763C71.8936 183.633 71.4363 183.467 70.9321 183.29C70.803 183.207 70.6154 183.16 70.4864 183.078C70.1698 182.948 70.064 182.571 70.1928 182.255C70.3685 181.949 70.6498 181.821 70.9312 181.892Z" fill="#77CA00"/>
<path d="M76.7837 166.397C76.8306 166.409 76.8306 166.409 76.8775 166.421C77.2058 166.504 77.3702 166.845 77.2883 167.174C77.2065 167.503 76.8666 167.666 76.5383 167.583C75.9754 167.441 75.4009 167.346 74.8382 167.403C74.4865 167.414 74.2049 167.144 74.1813 166.838C74.1693 166.486 74.4388 166.204 74.7436 166.181C75.4939 166.171 76.174 166.243 76.7837 166.397ZM80.0208 168.413C80.1615 168.449 80.2436 168.519 80.3257 168.59C80.795 169.108 81.1471 169.696 81.4289 170.366C81.5464 170.696 81.4176 171.013 81.1246 171.188C80.7964 171.305 80.4798 171.175 80.3037 170.881C80.0807 170.375 79.7638 169.846 79.4235 169.41C79.1889 169.152 79.2355 168.764 79.4933 168.53C79.6691 168.424 79.8332 168.366 80.0208 168.413ZM71.4852 167.455C71.6259 167.49 71.7549 167.573 71.8253 167.691C72.013 167.938 71.9664 168.325 71.7086 168.56C71.275 168.899 70.8767 169.298 70.5135 169.755C70.3026 170.002 69.9276 170.106 69.6812 169.894C69.4349 169.683 69.3291 169.306 69.54 169.06C69.9265 168.509 70.4538 167.993 71.0046 167.583C71.1334 167.466 71.2975 167.407 71.4852 167.455ZM81.4428 173.715C81.7711 173.798 81.9471 174.092 81.9122 174.432C81.8771 174.573 81.842 174.714 81.8069 174.855C81.6783 175.372 81.491 175.923 81.2217 176.404C81.046 176.709 80.7178 176.826 80.4129 176.649C80.108 176.472 79.9905 176.143 80.1662 175.838C80.3652 175.439 80.5291 174.981 80.6343 174.559C80.6577 174.465 80.6928 174.324 80.7162 174.23C80.7511 173.889 81.1027 173.679 81.4428 173.715ZM68.9676 172.36C69.249 172.431 69.4368 172.678 69.4135 172.972C69.367 173.559 69.4729 174.135 69.5904 174.664C69.661 174.981 69.4736 175.333 69.1571 175.403C68.8406 175.473 68.4888 175.284 68.4182 174.967C68.2419 174.273 68.1594 173.604 68.1825 172.91C68.2174 172.57 68.4752 172.335 68.8269 172.324C68.8738 172.336 68.9207 172.348 68.9676 172.36ZM78.2332 178.195C78.3739 178.231 78.5498 178.325 78.6086 178.49C78.7846 178.784 78.6442 179.148 78.3512 179.323C77.7183 179.663 77.0619 179.896 76.382 180.024C76.0655 180.094 75.7253 179.858 75.6548 179.541C75.5843 179.223 75.8185 178.883 76.135 178.813C76.7094 178.709 77.2603 178.499 77.7291 178.218C77.9401 178.171 78.0925 178.16 78.2332 178.195ZM71.1514 177.405C71.2453 177.428 71.3391 177.452 71.4212 177.523C71.5502 177.605 71.6206 177.723 71.7496 177.805C72.0898 178.041 72.4768 178.289 72.8403 178.43C73.157 178.56 73.2627 178.936 73.1457 179.206C73.0169 179.523 72.6418 179.628 72.3721 179.51C71.9264 179.298 71.4456 179.026 71.0233 178.72C70.8943 178.638 70.7301 178.496 70.6128 178.367C70.3664 178.155 70.3193 177.744 70.5301 177.497C70.7059 177.392 70.9169 177.345 71.1514 177.405Z" fill="#77CA00"/>
<path d="M74.219 170.093C74.4066 170.14 74.5708 170.282 74.6295 170.446C74.747 170.775 74.6182 171.092 74.3253 171.268C73.8214 171.49 73.4231 171.888 73.2007 172.381C73.0719 172.698 72.7321 172.862 72.4155 172.732C72.0989 172.602 71.9346 172.261 72.0634 171.944C72.4145 171.135 73.0236 170.49 73.8088 170.139C73.9729 170.081 74.0784 170.057 74.219 170.093ZM77.7379 173.577C77.7848 173.589 77.7847 173.589 77.8316 173.601C78.1482 173.731 78.3125 174.072 78.1838 174.389C77.8327 175.199 77.2235 175.843 76.4384 176.194C76.1102 176.311 75.7936 176.181 75.6176 175.887C75.5002 175.558 75.6289 175.241 75.9219 175.065C76.4258 174.843 76.8241 174.445 77.0465 173.952C77.1166 173.67 77.4096 173.495 77.7379 173.577Z" fill="#77CA00"/>
</g>
<defs>
<filter id="filter0_d_1233_1307" x="4.86328" y="6.63965" width="113.289" height="143.137" filterUnits="userSpaceOnUse" color-interpolation-filters="sRGB">
<feFlood flood-opacity="0" result="BackgroundImageFix"/>
<feColorMatrix in="SourceAlpha" type="matrix" values="0 0 0 0 0 0 0 0 0 0 0 0 0 0 0 0 0 0 127 0" result="hardAlpha"/>
<feOffset dy="3"/>
<feGaussianBlur stdDeviation="4"/>
<feColorMatrix type="matrix" values="0 0 0 0 0 0 0 0 0 0 0 0 0 0 0 0 0 0 0.2 0"/>
<feBlend mode="normal" in2="BackgroundImageFix" result="effect1_dropShadow_1233_1307"/>
<feBlend mode="normal" in="SourceGraphic" in2="effect1_dropShadow_1233_1307" result="shape"/>
</filter>
<filter id="filter1_d_1233_1307" x="35.2969" y="135.709" width="79.959" height="82.5996" filterUnits="userSpaceOnUse" color-interpolation-filters="sRGB">
<feFlood flood-opacity="0" result="BackgroundImageFix"/>
<feColorMatrix in="SourceAlpha" type="matrix" values="0 0 0 0 0 0 0 0 0 0 0 0 0 0 0 0 0 0 127 0" result="hardAlpha"/>
<feOffset dy="3"/>
<feGaussianBlur stdDeviation="4"/>
<feColorMatrix type="matrix" values="0 0 0 0 0 0 0 0 0 0 0 0 0 0 0 0 0 0 0.2 0"/>
<feBlend mode="normal" in2="BackgroundImageFix" result="effect1_dropShadow_1233_1307"/>
<feBlend mode="normal" in="SourceGraphic" in2="effect1_dropShadow_1233_1307" result="shape"/>
</filter>
</defs>
</svg>
