<svg width="112" height="148" viewBox="0 0 112 148" fill="none" xmlns="http://www.w3.org/2000/svg">
<g filter="url(#filter0_d_1019_7182)">
<path d="M54.4449 87.8933C52.0875 106.417 52.6263 119.127 59.6312 136.232C57.7453 136.772 54.9164 136.164 54.4449 134.203C48.9218 112.299 49.3933 102.631 53.502 87.0144L54.4449 87.8933Z" fill="#147A33"/>
<path d="M62.7959 128.254C55.6563 112.231 72.6971 99.5891 86.5048 100.333C87.9866 100.4 89.2663 101.617 89.4684 103.105C91.489 116.964 82.0594 134.677 65.0186 130.147C64.0757 129.877 63.2001 129.133 62.7959 128.254Z" fill="#147A33"/>
<path d="M44.3411 121.02C31.6784 130.485 17.3318 117.572 15.3785 105.065C15.1765 103.713 15.9847 102.361 17.2645 101.888C28.9842 97.4257 46.2943 102.564 45.5534 118.654C45.5534 119.601 45.082 120.479 44.3411 121.02Z" fill="#147A33"/>
<path d="M52.8959 121.561C49.8649 121.426 46.834 120.479 44.1398 119.06C42.5233 118.181 40.8394 117.167 39.627 115.815C38.8861 115.003 37.7411 116.22 38.482 116.964C39.8964 118.451 41.715 119.668 43.5336 120.547C46.4298 122.102 49.6629 123.048 52.9633 123.184C53.9736 123.251 53.9736 121.629 52.8959 121.561Z" fill="#147A33"/>
<path d="M54.9818 36.7153C54.9818 36.7153 54.7124 22.9237 47.7075 11.4983C46.4951 9.5377 47.1013 8.18558 45.3501 6.42782C43.3968 4.19682 37.0655 20.7603 47.1687 38.4731L54.9818 36.7153Z" fill="#ED9C00"/>
<path d="M55.3868 36.7831C55.3868 36.7831 57.2727 21.9097 48.786 12.3097C46.7654 10.0111 46.0919 6.96879 45.6877 6.56315C43.8692 4.26455 37.5378 20.828 47.5737 38.5408L55.3868 36.7831Z" fill="#FED700"/>
<path d="M49.3233 33.538C49.3906 33.6732 49.5927 33.4704 49.5253 33.4028C48.515 30.5633 47.7741 27.7915 47.37 24.7492C47.37 24.5464 47.0332 24.8168 47.0332 24.952C47.3026 28.0619 48.1782 30.7661 49.3233 33.538Z" fill="#F6BC00"/>
<path d="M62.864 38.4732C62.864 38.4732 72.4284 22.5858 66.097 6.36034C65.2214 3.45328 52.6935 16.2984 54.9162 36.8507L62.864 38.4732Z" fill="#ED9C00"/>
<path d="M63.3347 38.5406C63.3347 38.5406 72.8991 22.6532 66.5677 6.42773C65.6921 3.52067 53.1642 16.3658 55.3869 36.9181L63.3347 38.5406Z" fill="#FED700"/>
<path d="M64.1455 19.3409C64.0108 24.6818 63.4046 29.8874 61.8555 35.0255C61.8555 35.0931 62.0575 35.0931 62.0575 35.0255C63.8088 29.955 64.5497 24.6818 64.4149 19.3409C64.4149 19.1381 64.1455 19.2057 64.1455 19.3409Z" fill="#F6BC00"/>
<path d="M68.8577 43.4761C68.8577 43.4761 79.2304 34.4845 83.5411 21.8421C84.282 19.6787 85.6964 19.2731 85.8985 16.7717C86.4373 13.8646 69.7333 19.4083 62.5938 38.4732L68.8577 43.4761Z" fill="#ED9C00"/>
<path d="M69.1273 43.8142C69.1273 43.8142 81.7226 35.9043 83.6759 23.1944C84.1474 20.1521 86.1007 17.7183 86.168 17.1098C86.7068 14.2028 70.0029 19.7465 62.8633 38.8114L69.1273 43.8142Z" fill="#FED700"/>
<path d="M67.7138 37.0535C67.6465 37.1887 67.9159 37.1887 67.9833 37.1211C69.5324 34.4845 71.1489 32.1859 73.2369 29.9549C73.3716 29.8197 72.9675 29.6845 72.8328 29.8197C70.6775 31.9831 69.1283 34.4169 67.7138 37.0535Z" fill="#F6BC00"/>
<path d="M73.1018 50.1014C73.1018 50.1014 90.5466 46.4507 97.6862 31.1717C99.168 28.6703 81.8579 28.1294 68.9258 43.3408L73.1018 50.1014Z" fill="#ED9C00"/>
<path d="M73.0334 50.5748C73.0334 50.5748 90.4783 46.9241 97.6179 31.6451C99.0997 29.1437 81.7895 28.6028 68.8574 43.8142L73.0334 50.5748Z" fill="#FED700"/>
<path d="M73.3016 42.6649C73.2342 42.7325 73.3689 42.8001 73.4363 42.7325C75.3896 41.1099 77.4102 39.4198 79.4982 38.0001C81.923 36.3775 84.6172 35.2282 87.1766 33.8761C87.3113 33.8085 87.0419 33.6057 86.9072 33.6733C81.7883 35.9719 77.4102 38.7437 73.3016 42.6649Z" fill="#F6BC00"/>
<path d="M74.179 57.403C74.179 57.403 87.4478 56.9973 98.4267 50.0339C100.313 48.817 101.592 49.4254 103.276 47.6677C105.432 45.7747 89.4011 39.6226 72.4277 49.6959L74.179 57.403Z" fill="#ED9C00"/>
<path d="M74.1125 57.8761C74.1125 57.8761 88.4591 59.6339 97.6867 51.2507C99.9094 49.2225 102.806 48.6141 103.21 48.2085C105.365 46.3155 89.3347 40.1633 72.3613 50.2366L74.1125 57.8761Z" fill="#FED700"/>
<path d="M77.1449 51.8591C77.0102 51.9267 77.2123 52.1296 77.2796 52.0619C80.0412 51.0479 82.668 50.3042 85.5643 49.831C85.699 49.831 85.4969 49.4929 85.3622 49.4929C82.4659 49.831 79.8391 50.7098 77.1449 51.8591Z" fill="#F6BC00"/>
<path d="M71.8887 63.893C71.8887 63.893 85.3596 74.3044 100.649 69.9776C103.343 69.5043 92.9707 56.5916 74.1114 56.6592L71.8887 63.893Z" fill="#ED9C00"/>
<path d="M71.8223 64.2986C71.8223 64.2986 85.2932 74.7099 100.583 70.3831C103.277 69.9099 92.9043 56.9971 74.045 57.0647L71.8223 64.2986Z" fill="#FED700"/>
<path d="M77.615 59.5664C77.5476 59.5664 77.5476 59.7016 77.615 59.7016C80.0397 60.1073 82.4645 60.5129 84.7546 61.1889C87.4488 61.9326 89.9409 63.1495 92.5004 64.2312C92.6351 64.2988 92.5677 63.9608 92.5004 63.9608C87.6508 61.527 83.0033 60.1073 77.615 59.5664Z" fill="#F6BC00"/>
<path d="M66.9727 70.5185C66.9727 70.5185 76.0655 80.389 88.4588 84.0397C90.6142 84.6482 91.0183 86.0679 93.4431 86.1355C96.272 86.5411 90.21 70.3157 71.5528 64.0283L66.9727 70.5185Z" fill="#ED9C00"/>
<path d="M66.6348 70.7214C66.6348 70.7214 74.7847 82.7553 87.178 84.175C90.1416 84.513 92.5663 86.3384 93.1052 86.3384C95.9341 86.744 89.8721 70.5186 71.2149 64.2312L66.6348 70.7214Z" fill="#FED700"/>
<path d="M73.1018 69.0989C72.9671 69.0313 72.9671 69.3017 73.0345 69.3693C75.594 70.789 77.9514 72.2764 80.1741 74.237C80.3088 74.3722 80.3761 73.9665 80.3088 73.8313C78.0861 71.8031 75.7287 70.3834 73.1018 69.0989Z" fill="#F6BC00"/>
<path d="M61.4492 74.1691C61.4492 74.1691 64.4128 91.5439 78.7594 98.4397C81.1168 99.8594 82.3292 83.2959 68.05 70.7888L61.4492 74.1691Z" fill="#ED9C00"/>
<path d="M61.0449 74.1015C61.0449 74.1015 64.0085 91.4762 78.3551 98.3721C80.7125 99.7918 81.9249 83.2283 67.6457 70.7212L61.0449 74.1015Z" fill="#FED700"/>
<path d="M67.9839 74.9803C67.9166 74.9127 67.8492 75.0479 67.9166 75.1156C69.4657 77.0085 71.0149 78.9015 72.362 80.9973C73.9111 83.3635 74.9888 85.9325 76.2686 88.4339C76.3359 88.5692 76.4706 88.2987 76.4706 88.2311C74.3153 83.0931 71.7558 78.9691 67.9839 74.9803Z" fill="#F6BC00"/>
<path d="M54.2427 75.1835C54.2427 75.1835 53.7039 88.5019 59.7658 99.8597C60.7762 101.82 60.17 103.037 61.7191 104.863C63.403 107.161 70.4752 91.5441 61.7865 73.9666L54.2427 75.1835Z" fill="#ED9C00"/>
<path d="M53.7715 75.1158C53.7715 75.1158 51.0773 89.3131 58.6884 99.0484C60.507 101.415 60.9111 104.389 61.3152 104.795C62.9991 107.093 70.0713 91.4765 61.3826 73.8989L53.7715 75.1158Z" fill="#FED700"/>
<path d="M59.4266 78.5638C59.3592 78.4286 59.1571 78.5638 59.2245 78.699C60.0328 81.5385 60.5716 84.1751 60.841 87.1498C60.841 87.285 61.1778 87.0822 61.1778 86.947C61.0431 83.9723 60.3695 81.3357 59.4266 78.5638Z" fill="#F6BC00"/>
<path d="M47.3044 73.155C47.3044 73.155 38.0768 88.096 44.2735 102.902C45.0817 105.538 56.2626 93.7749 53.8379 74.8452L47.3044 73.155Z" fill="#ED9C00"/>
<path d="M46.9001 73.0876C46.9001 73.0876 37.6726 88.0286 43.8692 102.834C44.6774 105.471 55.8583 93.7075 53.4336 74.7778L46.9001 73.0876Z" fill="#FED700"/>
<path d="M51.5468 78.4285C51.5468 78.3609 51.4121 78.4285 51.4121 78.4285C51.2774 80.8623 51.2101 83.3637 50.8733 85.7975C50.4692 88.5694 49.5936 91.2736 48.8527 93.9779C48.7853 94.1131 49.1221 94.0455 49.1221 93.9103C50.8733 88.7046 51.6816 83.9046 51.5468 78.4285Z" fill="#F6BC00"/>
<path d="M41.5791 69.0312C41.5791 69.0312 32.0147 78.4285 28.647 91.0708C28.0408 93.2342 26.6937 93.7074 26.6264 96.1413C26.2896 98.9807 42.1853 92.5582 47.9778 73.4932L41.5791 69.0312Z" fill="#ED9C00"/>
<path d="M41.3086 68.6934C41.3086 68.6934 29.5889 77.2117 28.4439 89.7188C28.1745 92.7611 26.4232 95.1949 26.4232 95.8034C26.0865 98.6428 41.9822 92.2203 47.7747 73.1554L41.3086 68.6934Z" fill="#FED700"/>
<path d="M43.1296 75.1835C43.1969 75.0483 42.9275 75.0483 42.8601 75.1159C41.513 77.7526 40.0986 80.1188 38.2127 82.4174C38.0779 82.5526 38.4821 82.6202 38.6168 82.5526C40.5701 80.3216 41.9172 77.8878 43.1296 75.1835Z" fill="#F6BC00"/>
<path d="M37.8756 63.217C37.8756 63.217 21.4411 69.0988 17.1977 84.5806C16.2547 87.1496 31.6116 86.4059 41.3781 69.9776L37.8756 63.217Z" fill="#ED9C00"/>
<path d="M38.0104 62.6763C38.0104 62.6763 21.5758 68.558 17.3325 84.0398C16.3895 86.6088 31.7464 85.8651 41.5128 69.4369L38.0104 62.6763Z" fill="#FED700"/>
<path d="M37.6068 68.8282C37.6741 68.7606 37.472 68.6254 37.4047 68.693C35.5861 70.8564 33.6328 72.6817 31.4101 74.4395C31.2754 74.5071 31.6122 74.7099 31.7469 74.6423C34.037 72.9522 35.8555 71.0592 37.6068 68.8282Z" fill="#F6BC00"/>
<path d="M36.326 56.5242C36.326 56.5242 23.1918 58.4847 13.156 66.8003C11.4721 68.22 10.0577 67.7468 8.64321 69.7073C6.68993 71.8031 23.3265 75.9947 39.0202 63.9608L36.326 56.5242Z" fill="#ED9C00"/>
<path d="M36.325 56.0508C36.325 56.0508 21.9111 55.9832 13.6938 65.5156C11.7405 67.8142 8.91163 68.7607 8.57485 69.234C6.62157 71.3298 23.2582 75.5213 38.9518 63.4875L36.325 56.0508Z" fill="#FED700"/>
<path d="M34.0372 62.4061C34.1046 62.3385 33.9699 62.1357 33.9025 62.2033C31.2757 63.5554 28.7836 64.6371 25.9547 65.3808C25.82 65.4484 26.0894 65.7188 26.2241 65.7188C28.9856 65.0428 31.4778 63.8935 34.0372 62.4061Z" fill="#F6BC00"/>
<path d="M38.0097 49.6959C38.0097 49.6959 22.0467 42.5973 8.44102 50.9128C5.9489 52.1297 17.736 62.203 35.9217 57.065L38.0097 49.6959Z" fill="#ED9C00"/>
<path d="M38.4804 49.2901C38.4804 49.2901 22.5174 42.1915 8.91172 50.507C6.4196 51.7916 18.2067 61.8649 36.3924 56.6592L38.4804 49.2901Z" fill="#FED700"/>
<path d="M20.8367 50.7776C25.6862 50.1015 30.401 49.8311 35.2506 50.5071C35.3179 50.5071 35.2506 50.3043 35.1832 50.3043C30.401 49.4931 25.4841 49.5607 20.702 50.5071C20.6346 50.5748 20.7693 50.8452 20.8367 50.7776Z" fill="#F6BC00"/>
<path d="M42.7914 43.2056C42.7914 43.2056 31.88 34.4845 18.5437 32.6591C16.2537 32.3211 15.6475 30.9689 13.088 31.2394C10.1244 31.307 18.8805 47.0592 39.0869 50.5747L42.7914 43.2056Z" fill="#ED9C00"/>
<path d="M43.1293 42.8677C43.1293 42.8677 32.8914 31.7127 19.8919 32.1859C16.7936 32.3211 14.0321 30.8338 13.4259 30.9014C10.4623 30.9014 19.2184 46.7212 39.4248 50.1691L43.1293 42.8677Z" fill="#FED700"/>
<path d="M36.7302 45.6396C36.8649 45.7072 36.8649 45.4368 36.7976 45.3692C33.9013 44.3551 31.2745 43.1382 28.715 41.5156C28.5803 41.448 28.5129 41.8537 28.6476 41.9213C31.1398 43.679 33.834 44.7607 36.7302 45.6396Z" fill="#F6BC00"/>
<path d="M47.9783 37.9324C47.9783 37.9324 41.9837 21.0985 26.1554 16.1633C23.5285 15.0816 25.4145 32.3211 42.0511 43.0029L47.9783 37.9324Z" fill="#ED9C00"/>
<path d="M48.449 38.0001C48.449 38.0001 42.4544 21.1662 26.6261 16.2309C23.9992 15.1492 25.8852 32.3888 42.5218 43.0705L48.449 38.0001Z" fill="#FED700"/>
<path d="M34.7089 25.8312C38.6154 29.1439 42.1179 32.7271 44.9468 36.9862C45.0141 37.0538 45.0815 36.851 45.0815 36.7834C42.3873 32.4566 38.8848 28.6707 34.9109 25.5608C34.7089 25.4932 34.6415 25.7636 34.7089 25.8312Z" fill="#F6BC00"/>
<path d="M35.988 53.2114C34.4389 63.9607 41.8479 73.9664 52.4226 75.5213C63.0646 77.0763 72.8984 69.6396 74.4476 58.8903C75.9967 48.1409 68.5877 38.1352 58.013 36.5803C47.371 35.0253 37.5372 42.462 35.988 53.2114Z" fill="#612913"/>
<path d="M56.6674 72.479C56.1959 72.479 55.7918 72.141 55.7244 71.6678C55.6571 71.1945 56.0612 70.7213 56.5327 70.6537C57.4757 70.5861 58.3513 70.3833 59.2269 70.1128C59.6984 69.9776 60.2372 70.2481 60.3719 70.7213C60.5066 71.1945 60.2372 71.7354 59.7657 71.8706C58.7554 72.141 57.7451 72.3438 56.7348 72.479C56.7348 72.479 56.7348 72.479 56.6674 72.479ZM50.8749 71.8706C50.8076 71.8706 50.6728 71.8706 50.6055 71.803C49.5952 71.5326 48.6522 71.1269 47.7092 70.6537C47.2378 70.4509 47.103 69.8424 47.3051 69.4368C47.5072 68.9635 48.1134 68.8283 48.5175 69.0311C49.3258 69.4368 50.2014 69.8424 51.077 70.0452C51.5485 70.1804 51.8179 70.7213 51.6832 71.1945C51.6158 71.6678 51.279 71.8706 50.8749 71.8706ZM64.75 69.1664C64.4806 69.1664 64.2111 69.0311 64.0091 68.8283C63.6723 68.4227 63.7397 67.8818 64.1438 67.5438C64.8847 66.9354 65.5582 66.3269 66.1644 65.6508C66.5012 65.2452 67.1074 65.2452 67.4442 65.5832C67.8483 65.9213 67.8483 66.5297 67.5115 66.8677C66.838 67.679 66.0971 68.3551 65.2888 69.0311C65.1541 69.0987 64.952 69.1664 64.75 69.1664ZM43.5332 67.1382C43.2638 67.1382 42.9944 67.003 42.8597 66.8001C42.1862 65.9889 41.58 65.1776 41.0411 64.2311C40.7717 63.7579 40.9738 63.217 41.3779 62.9466C41.8494 62.6762 42.3882 62.879 42.6576 63.2846C43.1291 64.0959 43.668 64.8396 44.2741 65.5832C44.6109 65.9889 44.5436 66.5297 44.1394 66.8677C44.0047 67.0706 43.7353 67.1382 43.5332 67.1382ZM69.8016 62.0677C69.7342 62.0677 69.5995 62.0677 69.5322 62.0001C69.0607 61.8649 68.7913 61.3241 68.9933 60.8508C69.2627 59.9719 69.5322 59.0931 69.6669 58.1466C69.7342 57.6733 70.2057 57.2677 70.6772 57.3353C71.1487 57.4029 71.5528 57.8761 71.4855 58.3494C71.3507 59.3635 71.0813 60.3776 70.7445 61.3917C70.5425 61.7973 70.1384 62.0677 69.8016 62.0677ZM39.9634 59.1607C39.492 59.1607 39.0878 58.8226 39.0878 58.3494C38.9531 57.6057 38.9531 56.7944 38.9531 56.0508C38.9531 55.7804 38.9531 55.5099 38.9531 55.2395C38.9531 54.6987 39.4246 54.3606 39.8961 54.3606C40.4349 54.3606 40.7717 54.8339 40.7717 55.3071C40.7717 55.5775 40.7717 55.7804 40.7717 56.0508C40.7717 56.7268 40.8391 57.4029 40.9064 58.079C40.9738 58.5522 40.637 59.0254 40.0982 59.0931C40.0308 59.1607 40.0308 59.1607 39.9634 59.1607ZM70.2057 53.2789C69.8016 53.2789 69.3975 53.0085 69.3301 52.6029C69.128 51.724 68.7913 50.8451 68.4545 49.9662C68.2524 49.493 68.4545 48.9521 68.926 48.7493C69.3975 48.5465 69.9363 48.7493 70.1384 49.2226C70.5425 50.1691 70.8793 51.1832 71.1487 52.1972C71.2834 52.6705 70.9466 53.2113 70.4751 53.2789C70.3404 53.2789 70.2731 53.2789 70.2057 53.2789ZM41.1758 50.5071C41.0411 50.5071 40.9064 50.5071 40.7717 50.4395C40.3002 50.2367 40.0982 49.6958 40.3002 49.2226C40.7043 48.2761 41.2432 47.3296 41.8494 46.5183C42.1188 46.1127 42.725 45.9775 43.1291 46.3155C43.5332 46.5859 43.668 47.1944 43.3312 47.6C42.7923 48.3437 42.3209 49.155 41.9841 50.0338C41.8494 50.3043 41.5126 50.5071 41.1758 50.5071ZM65.895 45.7071C65.6929 45.7071 65.4235 45.6395 65.2888 45.4366C64.6153 44.7606 63.8744 44.2197 63.1335 43.6789C62.7293 43.4085 62.5946 42.8 62.864 42.3944C63.1335 41.9887 63.7397 41.8535 64.1438 42.1239C65.0194 42.6648 65.8277 43.3409 66.5686 44.0845C66.9053 44.4225 66.9727 45.031 66.5686 45.369C66.3665 45.5718 66.0971 45.7071 65.895 45.7071ZM46.901 43.8141C46.6316 43.8141 46.2948 43.6789 46.1601 43.4085C45.8907 43.0028 46.0254 42.3944 46.4295 42.1239C47.3051 41.5831 48.2481 41.0422 49.191 40.7042C49.6625 40.5014 50.2014 40.7718 50.4034 41.1775C50.6055 41.6507 50.3361 42.1915 49.9319 42.3944C49.0563 42.7324 48.2481 43.2056 47.5072 43.6789C47.2378 43.8141 47.0357 43.8141 46.901 43.8141ZM58.1492 41.6507C58.0819 41.6507 58.0145 41.6507 57.9472 41.6507C57.7451 41.5831 57.4757 41.5831 57.2736 41.5155C56.6001 41.4479 55.8592 41.3803 55.1856 41.3803C54.6468 41.3803 54.2426 40.9746 54.2426 40.4338C54.2426 39.8929 54.6468 39.4873 55.1856 39.4873C55.9939 39.4873 56.7348 39.5549 57.543 39.6901C57.8124 39.7577 58.0819 39.7577 58.2839 39.8253C58.7554 39.8929 59.0922 40.4338 59.0248 40.907C58.9575 41.3127 58.5533 41.6507 58.1492 41.6507Z" fill="#B37458"/>
<path d="M55.1861 66.5973C55.1187 66.5973 55.1187 66.5973 55.0514 66.5973C54.5125 66.5973 54.1084 66.1917 54.1758 65.6509C54.2431 65.11 54.5799 64.772 55.1187 64.772C55.9943 64.772 56.8699 64.6368 57.6782 64.434C58.1497 64.2987 58.6885 64.5692 58.8232 65.0424C58.9579 65.5156 58.6885 66.0565 58.217 66.1917C57.2067 66.4621 56.1964 66.5973 55.1861 66.5973ZM49.7303 64.8396C49.5283 64.8396 49.3936 64.772 49.1915 64.6368C48.3159 64.0283 47.575 63.2846 46.9688 62.4734C46.632 62.0677 46.7667 61.4593 47.1709 61.1889C47.575 60.8508 48.1812 60.986 48.4506 61.3917C48.9894 62.0677 49.5956 62.6762 50.3365 63.217C50.7407 63.4875 50.8754 64.0959 50.5386 64.5016C50.2692 64.7044 49.9998 64.8396 49.7303 64.8396ZM62.5951 63.0818C62.393 63.0818 62.191 63.0142 61.9889 62.879C61.5848 62.541 61.5174 62.0001 61.8542 61.5945C62.393 60.9184 62.8645 60.1748 63.1339 59.3635C63.336 58.8903 63.8748 58.6874 64.3463 58.8226C64.8178 59.0255 65.0199 59.5663 64.8852 60.0396C64.481 60.986 63.9422 61.9325 63.2686 62.7438C63.1339 62.9466 62.8645 63.0818 62.5951 63.0818ZM45.6891 57.5381C45.2176 57.5381 44.8134 57.1325 44.7461 56.6593C44.7461 56.4564 44.7461 56.2536 44.7461 55.9832C44.7461 55.1719 44.8134 54.293 45.0155 53.4818C45.1502 53.0085 45.6217 52.6705 46.0932 52.8057C46.5647 52.9409 46.9014 53.4142 46.7667 53.8874C46.632 54.5635 46.4973 55.2395 46.4973 55.9156C46.4973 56.1184 46.4973 56.2536 46.4973 56.4564C46.632 57.0649 46.2953 57.4705 45.6891 57.5381C45.7564 57.5381 45.7564 57.5381 45.6891 57.5381ZM64.5484 54.9015C64.1443 54.9015 63.7401 54.6311 63.6728 54.1578C63.4707 53.279 63.2013 52.4677 62.7972 51.724C62.5277 51.2508 62.7298 50.7099 63.1339 50.4395C63.6054 50.1691 64.1442 50.3719 64.4137 50.7775C64.9525 51.724 65.2893 52.6705 65.4913 53.6846C65.6261 54.1578 65.2893 54.6987 64.8178 54.7663C64.6831 54.9015 64.6157 54.9015 64.5484 54.9015ZM48.8547 49.7634C48.5853 49.7634 48.3832 49.6958 48.1812 49.493C47.8444 49.0874 47.8444 48.5465 48.2485 48.2085C48.9894 47.5324 49.8651 46.924 50.8754 46.4507C51.3469 46.2479 51.8857 46.4507 52.0878 46.924C52.2898 47.3972 52.0878 47.9381 51.6163 48.1409C50.808 48.4789 50.1345 49.0198 49.4609 49.5606C49.2589 49.6958 49.0568 49.7634 48.8547 49.7634ZM59.4968 48.3437C59.3621 48.3437 59.2274 48.3437 59.0926 48.2761C58.8906 48.2085 58.6885 48.0733 58.4865 48.0057C57.8803 47.7353 57.2741 47.6 56.6679 47.4648C56.1964 47.3972 55.8596 46.924 55.927 46.3831C55.9943 45.9099 56.4658 45.5719 57.0046 45.6395C57.7456 45.7747 58.5538 45.9775 59.2274 46.3155C59.4968 46.4507 59.6988 46.5184 59.9683 46.6536C60.4397 46.8564 60.5744 47.4648 60.3724 47.8705C60.1703 48.1409 59.8335 48.3437 59.4968 48.3437Z" fill="#B37458"/>
<path d="M57.6108 60.1747C57.3413 60.1747 57.0719 60.0395 56.8699 59.8367C56.5331 59.431 56.6678 58.8226 57.0719 58.5521C57.7455 58.0789 58.1496 57.3352 58.2843 56.4564C58.3517 55.9831 58.8231 55.5775 59.2946 55.6451C59.7661 55.7127 60.1702 56.1859 60.1029 56.6592C59.9008 57.9437 59.2273 59.1606 58.1496 59.9043C58.0149 60.1747 57.8128 60.1747 57.6108 60.1747ZM51.2121 56.3888C51.1447 56.3888 51.1447 56.3888 51.0773 56.3888C50.6059 56.3211 50.2017 55.8479 50.2691 55.3747C50.4712 54.0901 51.1447 52.8732 52.155 52.1296C52.5592 51.7915 53.1653 51.9268 53.4348 52.3324C53.7715 52.738 53.6368 53.3465 53.2327 53.6169C52.5592 54.0901 52.155 54.8338 52.0203 55.7127C52.0877 56.0507 51.6835 56.3888 51.2121 56.3888Z" fill="#B37458"/>
<path d="M66.5685 123.927C65.3562 126.023 63.5376 127.781 61.5169 129.065C60.1025 129.944 58.6207 130.688 57.0042 131.026C55.8591 131.296 56.3306 132.986 57.4757 132.784C59.2269 132.378 60.9781 131.567 62.5273 130.553C64.8173 129.133 66.7706 127.172 68.1177 124.874C68.7239 123.792 67.1747 122.913 66.5685 123.927Z" fill="#147A33"/>
</g>
<defs>
<filter id="filter0_d_1019_7182" x="0.109375" y="0.951416" width="111.361" height="146.469" filterUnits="userSpaceOnUse" color-interpolation-filters="sRGB">
<feFlood flood-opacity="0" result="BackgroundImageFix"/>
<feColorMatrix in="SourceAlpha" type="matrix" values="0 0 0 0 0 0 0 0 0 0 0 0 0 0 0 0 0 0 127 0" result="hardAlpha"/>
<feOffset dy="3"/>
<feGaussianBlur stdDeviation="4"/>
<feColorMatrix type="matrix" values="0 0 0 0 0 0 0 0 0 0 0 0 0 0 0 0 0 0 0.2 0"/>
<feBlend mode="normal" in2="BackgroundImageFix" result="effect1_dropShadow_1019_7182"/>
<feBlend mode="normal" in="SourceGraphic" in2="effect1_dropShadow_1019_7182" result="shape"/>
</filter>
</defs>
</svg>
