<svg width="256" height="162" viewBox="0 0 256 162" fill="none" xmlns="http://www.w3.org/2000/svg">
<path d="M61.5176 68.836V0H81.8855C85.431 0 88.788 0.678932 91.9563 1.99907C95.1246 3.31922 97.8404 5.16742 100.179 7.54367C102.517 9.91993 104.328 12.6734 105.686 15.804C107.006 18.9723 107.685 22.367 107.685 25.988C107.685 28.666 107.308 31.2308 106.553 33.6448C105.799 36.0965 104.743 38.3219 103.385 40.3587C102.027 42.3954 100.367 44.2436 98.4439 45.8655C96.5202 47.4874 94.408 48.7699 92.0695 49.7128L106.78 68.836H101.348L87.5055 51.0707C85.6573 51.4856 83.7714 51.6742 81.8478 51.6742H66.2324V68.836H61.5176ZM66.2324 46.9594H81.8478C84.7144 46.9594 87.4678 46.3936 90.0327 45.2998C92.5975 44.2059 94.8606 42.6972 96.7465 40.7736C98.6702 38.8499 100.179 36.6245 101.273 34.0597C102.367 31.5326 102.932 28.8168 102.932 25.9125C102.932 22.9705 102.367 20.1793 101.273 17.6145C100.179 15.0496 98.6702 12.7865 96.7465 10.8629C94.8229 8.93925 92.5975 7.43052 90.0327 6.33669C87.4678 5.24285 84.7521 4.67708 81.8478 4.67708H66.2324V46.9594Z" fill="white"/>
<path d="M118.549 0V43.1498C118.549 46.0164 119.115 48.7699 120.209 51.3347C121.303 53.8996 122.812 56.1626 124.735 58.0486C126.659 59.9722 128.884 61.4809 131.449 62.6125C134.014 63.744 136.73 64.3098 139.634 64.3098C142.651 64.3098 145.443 63.7063 148.045 62.4993C150.648 61.2924 152.911 59.6705 154.759 57.6337C156.645 55.5592 158.116 53.1829 159.172 50.5049C160.228 47.7892 160.756 44.8849 160.756 41.8297V0H165.471V43.1498C165.471 46.7708 164.792 50.1654 163.472 53.2583C162.152 56.389 160.304 59.1047 157.927 61.4809C155.551 63.8572 152.798 65.7054 149.667 67.0255C146.499 68.3457 143.142 69.0246 139.596 69.0246C135.975 69.0246 132.581 68.3457 129.412 67.0255C126.244 65.7054 123.528 63.8572 121.227 61.4809C118.927 59.1047 117.116 56.389 115.796 53.2583C114.476 50.1277 113.797 46.7708 113.797 43.1498V0H118.549Z" fill="white"/>
<path d="M215.561 68.836H173.43V0H215.561V4.7148H178.144V39.5666H210.431V44.2814H178.144V64.1212H215.561V68.836Z" fill="white"/>
<path d="M11.0515 107.346C9.05241 109.27 7.50596 111.495 6.41212 114.022C5.31829 116.549 4.75252 119.265 4.75252 122.132C4.75252 124.998 5.31829 127.752 6.44984 130.317C7.5814 132.881 9.09013 135.145 11.0138 137.03C12.9374 138.954 15.1628 140.463 17.7276 141.557C20.2925 142.651 23.0459 143.216 25.988 143.216C28.8546 143.216 31.608 142.651 34.1728 141.557C36.7377 140.463 39.0008 138.954 40.8867 137.03C42.8104 135.107 44.3191 132.881 45.4506 130.317C46.5822 127.752 47.148 125.036 47.148 122.132C47.148 118.85 46.469 116.059 45.1489 113.796C43.8288 111.533 42.1314 109.647 40.0946 108.138C38.0578 106.63 35.9079 105.46 33.5694 104.63C31.2308 103.801 29.0809 103.197 27.0818 102.782C22.7819 101.952 19.5758 100.406 17.539 98.1051C15.5023 95.8043 14.4461 93.0886 14.4461 89.9203C14.5216 86.9028 15.5777 84.3379 17.6899 82.2257C19.7644 80.1135 22.4801 79.0574 25.7616 79.0574C29.0431 79.0574 31.6834 80.038 33.6825 82.0371C35.6816 84.0362 36.8509 86.337 37.1903 89.015L33.6825 90.3352C33.5316 88.3361 32.7395 86.601 31.2685 85.1677C29.7975 83.7344 28.0625 83.0178 26.0634 83.0178C23.9889 83.0178 22.2538 83.7345 20.8205 85.13C19.3872 86.5256 18.7083 88.2229 18.746 90.222C18.746 92.2211 19.5004 93.9938 21.0468 95.5403C22.5933 97.0867 24.8941 98.1806 27.987 98.7841C31.1554 99.3498 34.1728 100.217 37.0772 101.424C39.9815 102.631 42.5086 104.178 44.6963 106.101C46.8462 108.025 48.5813 110.288 49.9014 112.966C51.1838 115.606 51.8628 118.662 51.8628 122.169C51.8628 125.79 51.1838 129.185 49.8637 132.316C48.5436 135.446 46.6953 138.162 44.3191 140.463C41.9428 142.764 39.1894 144.574 36.0588 145.932C32.8904 147.29 29.5335 147.931 25.988 147.931C22.367 147.931 18.9723 147.252 15.804 145.932C12.6357 144.612 9.88221 142.764 7.54367 140.425C5.16742 138.087 3.31922 135.371 1.99907 132.24C0.678932 129.11 0 125.753 0 122.132C0 118.435 0.678931 115.041 2.07451 111.948C3.43237 108.855 5.31829 106.215 7.73227 104.027L11.0515 107.346Z" fill="white"/>
<path d="M63.6684 147.931V83.8095H45.375V79.0947H86.6766V83.8095H68.3832V147.931H63.6684Z" fill="white"/>
<path d="M150.383 113.607C150.383 118.398 149.478 122.886 147.705 127.073C145.932 131.26 143.48 134.881 140.425 137.973C137.332 141.066 133.711 143.48 129.487 145.253C125.262 147.026 120.774 147.931 115.984 147.931C111.193 147.931 106.667 147.026 102.48 145.253C98.256 143.48 94.5973 141.029 91.4667 137.973C88.3361 134.881 85.8844 131.26 84.1116 127.073C82.3388 122.886 81.4336 118.398 81.4336 113.607C81.4336 108.817 82.3388 104.291 84.1116 100.104C85.8844 95.8798 88.3361 92.2211 91.4667 89.0905C94.5973 85.9598 98.256 83.5081 102.48 81.7354C106.705 79.9626 111.193 79.0574 115.984 79.0574C120.774 79.0574 125.3 79.9626 129.487 81.7354C133.711 83.5081 137.332 85.9598 140.425 89.0905C143.518 92.2211 145.932 95.8798 147.705 100.104C149.478 104.329 150.383 108.817 150.383 113.607ZM145.63 113.57C145.63 109.458 144.876 105.573 143.329 101.952C141.783 98.3315 139.671 95.1631 136.955 92.4851C134.239 89.8071 131.109 87.6949 127.488 86.1484C123.867 84.602 120.019 83.8476 115.908 83.8476C111.797 83.8476 107.95 84.602 104.329 86.1484C100.745 87.6949 97.5771 89.8071 94.8613 92.4851C92.1456 95.1631 89.9957 98.3315 88.4492 101.952C86.865 105.573 86.073 109.458 86.073 113.57C86.073 117.681 86.865 121.566 88.4492 125.149C90.0334 128.77 92.1833 131.901 94.8613 134.579C97.5771 137.257 100.708 139.369 104.329 140.915C107.912 142.462 111.797 143.216 115.908 143.216C120.019 143.216 123.867 142.462 127.488 140.915C131.071 139.369 134.239 137.257 136.955 134.579C139.671 131.901 141.783 128.77 143.329 125.149C144.876 121.566 145.63 117.681 145.63 113.57ZM100.217 157.285H131.561V162H100.217V157.285Z" fill="white"/>
<path d="M157.891 147.931V79.0947H178.259C181.804 79.0947 185.161 79.7737 188.329 81.0938C191.498 82.4139 194.213 84.2621 196.552 86.6384C198.89 89.0147 200.701 91.7681 202.059 94.8987C203.379 98.0671 204.058 101.424 204.058 105.083C204.058 107.761 203.681 110.326 202.926 112.74C202.172 115.191 201.116 117.417 199.758 119.453C198.4 121.49 196.741 123.338 194.817 124.96C192.893 126.582 190.781 127.865 188.443 128.808L203.153 147.931H197.646L183.879 130.165C182.03 130.58 180.144 130.769 178.221 130.769H162.605V147.931H157.891ZM162.605 126.054H178.221C181.087 126.054 183.841 125.488 186.406 124.394C188.971 123.301 191.234 121.792 193.12 119.868C195.043 117.945 196.552 115.719 197.646 113.154C198.74 110.627 199.305 107.912 199.305 105.007C199.305 102.065 198.74 99.274 197.646 96.7092C196.552 94.1443 195.043 91.8812 193.12 89.9576C191.196 88.034 188.971 86.5252 186.406 85.4314C183.841 84.3376 181.125 83.7718 178.221 83.7718H162.605V126.054Z" fill="white"/>
<path d="M209.376 79.0947L229.857 119.265L250.376 79.0947H255.732L232.271 124.394V147.931H227.556V124.394L204.133 79.0947H209.376Z" fill="white"/>
<path d="M130.959 101.727C130.959 101.727 124.924 101.538 120.775 106.215C118.285 109.007 117.795 111.194 117.87 112.514C117.87 113.118 118.059 113.57 118.248 113.872L115.947 116.173L113.608 113.834C113.797 113.533 113.91 113.118 113.91 112.627C113.985 111.307 113.457 109.082 111.006 106.329C106.857 101.651 100.822 101.84 100.822 101.84C100.822 101.84 100.331 107.46 104.103 111.156C107.158 114.174 109.987 115.23 111.798 115.004C112.213 114.966 112.59 114.777 112.854 114.589C112.854 114.589 112.892 114.551 112.967 114.513L115.494 117.041V129.525H116.475V116.965L118.926 114.513C119.228 114.702 119.568 114.853 119.983 114.891C121.793 115.117 124.622 114.061 127.677 111.043C131.411 107.347 130.959 101.727 130.959 101.727Z" fill="white"/>
<path d="M33.4575 68.836V4.7148H15.1641V0H56.4657V4.7148H38.1723V68.836H33.4575Z" fill="white"/>
</svg>
